<?xml version="1.0" encoding="utf-8"?>
<!-- Generator: Adobe Illustrator 24.0.3, SVG Export Plug-In . SVG Version: 6.00 Build 0)  -->
<svg version="1.1" id="レイヤー_1" xmlns="http://www.w3.org/2000/svg" xmlns:xlink="http://www.w3.org/1999/xlink" x="0px"
	 y="0px" width="345px" height="360px" viewBox="0 0 345 360" style="enable-background:new 0 0 345 360;" xml:space="preserve">
<style type="text/css">
	.st0{fill:#A1A1A1;}
	.st1{fill:#CA161D;}
</style>
<g>
	<path class="st0" d="M343,2v356H2V2H343 M345,0H0v360h345V0L345,0z"/>
</g>
<g>
	<path class="st1" d="M119.3,171.8v51H13.5v-51H119.3 M122.3,168.8H10.5v57h111.8V168.8L122.3,168.8z"/>
</g>
<g>
	<path d="M30.3,26.3c1.1,1.2,1.7,2.8,1.7,4.4c0,3.6-2.9,6.6-6.6,6.6s-6.6-3-6.6-6.6c0-1.9,0.8-3.6,2.2-4.9c1.2-1.1,2.8-1.7,4.4-1.7
		C27.3,24.1,29,24.9,30.3,26.3z"/>
	<path d="M45.3,26.3c1.1,1.2,1.7,2.8,1.7,4.4c0,3.6-2.9,6.6-6.6,6.6s-6.6-3-6.6-6.6c0-1.9,0.8-3.6,2.2-4.9c1.2-1.1,2.8-1.7,4.4-1.7
		C42.3,24.1,44,24.9,45.3,26.3z"/>
	<path d="M60.3,26.3c1.1,1.2,1.7,2.8,1.7,4.4c0,3.6-2.9,6.6-6.6,6.6s-6.6-3-6.6-6.6c0-1.9,0.8-3.6,2.2-4.9c1.2-1.1,2.8-1.7,4.4-1.7
		C57.3,24.1,59,24.9,60.3,26.3z"/>
	<path d="M75.3,26.3c1.1,1.2,1.7,2.8,1.7,4.4c0,3.6-2.9,6.6-6.6,6.6s-6.6-3-6.6-6.6c0-1.9,0.8-3.6,2.2-4.9c1.2-1.1,2.8-1.7,4.4-1.7
		C72.3,24.1,74,24.9,75.3,26.3z"/>
	<path d="M90.3,26.3c1.1,1.2,1.7,2.8,1.7,4.4c0,3.6-2.9,6.6-6.6,6.6s-6.6-3-6.6-6.6c0-1.9,0.8-3.6,2.2-4.9c1.2-1.1,2.8-1.7,4.4-1.7
		C87.3,24.1,89,24.9,90.3,26.3z"/>
	<path d="M105.3,26.3c1.1,1.2,1.7,2.8,1.7,4.4c0,3.6-2.9,6.6-6.6,6.6s-6.6-3-6.6-6.6c0-1.9,0.8-3.6,2.2-4.9c1.2-1.1,2.8-1.7,4.4-1.7
		C102.3,24.1,104,24.9,105.3,26.3z"/>
	<path d="M119.6,31.3c-0.6,0-1,0-1.4,0.1v-1c-0.3,0.4-0.3,0.5-0.6,1.3c-0.3-0.6-0.5-1-0.8-1.7c0,0.9,0,1.6,0,2.1v3.8
		c0,0.8,0,1.4,0.1,1.8h-1.7c0.1-0.5,0.1-1.1,0.1-1.8v-3.1c0-1.1,0.1-1.8,0.1-2.1c-0.4,1.5-0.8,2.3-1.5,3.6c-0.2-0.8-0.4-1.3-0.8-1.8
		c0.6-0.7,1-1.5,1.4-2.5c0.3-0.9,0.4-1.2,0.6-1.9h-0.6c-0.4,0-0.7,0-1,0.1v-1.6c0.3,0,0.5,0.1,1,0.1h0.8v-1.2c0-0.8,0-1.2-0.1-1.6
		h1.7c-0.1,0.4-0.1,0.8-0.1,1.6v1.2h0.4c0.4,0,0.6,0,0.9-0.1V28c-0.3,0-0.5,0-0.9,0H117c0.2,0.6,0.7,1.4,1.2,2v-0.1
		c0.4,0.1,0.9,0.1,1.5,0.1h1.8v-0.8h-1.4c-0.8,0-1,0-1.4,0.1v-1.4c0.4,0,0.7,0.1,1.4,0.1h1.4V27H120c-0.7,0-1,0-1.4,0.1v-1.5
		c0.4,0.1,0.8,0.1,1.4,0.1h0.2c-0.2-0.5-0.4-0.9-0.9-1.5l1.4-0.5c0.4,0.7,0.7,1.2,1,1.9h1.3c0.5-0.8,0.7-1.2,0.9-1.9l1.6,0.4
		c-0.4,0.7-0.6,1.2-0.9,1.5h0.7c0.6,0,1.1,0,1.5-0.1v1.5c-0.5-0.1-0.8-0.1-1.5-0.1h-2.3v0.8h1.8c0.8,0,1.1,0,1.5-0.1v1.4
		c-0.4-0.1-0.7-0.1-1.5-0.1h-1.8v0.8h2.4c0.6,0,1.1,0,1.6-0.1v1.5c-0.5-0.1-1-0.1-1.6-0.1h-2.3c0.2,0.7,0.4,1.1,0.9,1.8
		c0.5-0.4,0.9-0.9,1.4-1.6l1.2,0.9c-0.6,0.8-1,1.2-1.7,1.8c0.8,0.7,1.4,1.1,2.4,1.6c-0.4,0.5-0.7,0.9-1,1.5
		c-0.8-0.5-1.3-0.9-1.8-1.4c-0.7-0.7-1.2-1.5-1.6-2.4c0,0.7,0,0.8,0,1.1v2.1c0,0.9-0.5,1.2-1.9,1.2c-0.2,0-0.6,0-1.1,0
		c-0.1-0.7-0.2-1-0.4-1.5c0.5,0.1,0.9,0.1,1.4,0.1c0.3,0,0.4-0.1,0.4-0.3v-1.4c-1.1,0.8-1.5,1.1-2.9,1.9c-0.1,0.1-0.4,0.3-0.6,0.4
		l-0.6-1.6c0.4-0.1,0.7-0.2,1.2-0.5c1-0.5,1.2-0.6,2.9-1.8v-1.6H119.6z M119.3,31.4c0.7,0.7,1,1,1.5,1.7l-1.1,0.8
		c-0.5-0.7-0.7-1-1.4-1.7L119.3,31.4z"/>
	<path d="M23.1,65.1c-1,0.8-1.4,1.5-1.4,2.2c0,0.7,0.4,1.2,1.3,1.5c0.6,0.2,1.6,0.3,2.7,0.3c1.9,0,3.7-0.2,4.5-0.6l0.1,1.2
		c-0.2,0-0.3,0-0.5,0.1c-1.3,0.2-2.7,0.3-4,0.3c-1.4,0-2.7-0.2-3.5-0.5c-1.1-0.5-1.7-1.2-1.7-2.3c0-1,0.6-1.9,1.7-2.9L23.1,65.1z
		 M21.5,59.6c1.1,0.3,2.3,0.4,4,0.4c1.8,0,3-0.1,3.8-0.3l0.1,1c-0.9,0.4-2.3,1.2-3.8,2.3l-0.8-0.6c1-0.6,1.3-0.9,2-1.2
		C27,61,27,61,27.2,60.9c0.1-0.1,0.1-0.1,0.3-0.2c-0.9,0.2-1.4,0.2-2.3,0.2c-1.1,0-2.3-0.1-3.3-0.2c-0.3,0-0.3,0-0.5,0L21.5,59.6z"
		/>
	<path d="M39.7,66.4c-0.9,2-1.8,2.9-2.8,2.9c-1.4,0-2.5-1.6-2.5-3.7c0-1.5,0.6-3,1.6-4.1c1.2-1.3,2.8-2,4.8-2c1.7,0,3.1,0.5,4.1,1.5
		c0.9,0.9,1.5,2.2,1.5,3.7c0,2.3-1.3,4.2-3.4,5.2c-0.7,0.3-1.2,0.5-2.3,0.7c-0.1-0.5-0.2-0.6-0.5-1c1.1-0.2,1.8-0.4,2.5-0.7
		c1.6-0.8,2.7-2.4,2.7-4.2c0-1.7-0.9-3.1-2.4-3.8c-0.6-0.2-1-0.3-1.7-0.4C41,62.6,40.4,64.9,39.7,66.4z M37.9,61.2
		c-1.5,0.9-2.4,2.6-2.4,4.5c0,1.4,0.6,2.5,1.4,2.5c0.6,0,1.2-0.7,1.9-2.2c0.6-1.4,1.2-3.6,1.4-5.5C39.2,60.6,38.6,60.8,37.9,61.2z"
		/>
	<path d="M50.9,62.5c-0.1,4.9-0.4,6.6-1.7,8.9c-0.3-0.3-0.5-0.5-0.8-0.7c0.6-0.9,0.9-1.7,1.1-2.7c0.3-1.5,0.5-3.6,0.5-6.9
		c0-1,0-1.4-0.1-1.8c0.5,0,1,0.1,1.5,0.1h3.9v-0.4c0-0.4,0-0.7-0.1-1h1.1c0,0.3-0.1,0.6-0.1,1v0.4h4.1c0.8,0,1.2,0,1.6-0.1v1
		c-0.5-0.1-0.9-0.1-1.6-0.1h-9.6l0,1.6h2.7v-0.2c0-0.4,0-0.7-0.1-1h1c0,0.3-0.1,0.6-0.1,1v0.3H58v-0.2c0-0.4,0-0.7-0.1-1h1
		c0,0.3-0.1,0.6-0.1,1v0.2h1.8c0.7,0,1,0,1.4-0.1v1c-0.3-0.1-0.7-0.1-1.4-0.1h-1.8v1.5c0,0.3,0,0.6,0,0.9c-0.3,0-0.4,0-1,0h-3.3
		c-0.6,0-0.9,0-1.1,0c0-0.3,0-0.6,0-0.9v-1.5H50.9z M60.2,66.5c-0.2,0.2-0.3,0.3-0.5,0.6c-0.7,0.8-1.5,1.6-2.4,2.2
		c1.5,0.7,3.1,1.1,4.9,1.2c-0.2,0.3-0.3,0.6-0.5,1c-2.2-0.3-3.7-0.8-5.3-1.7c-1.6,0.9-3.1,1.4-5.4,1.8c-0.1-0.3-0.2-0.6-0.4-0.9
		c2.2-0.3,3.6-0.7,5-1.4c-1-0.7-1.6-1.4-2.4-2.5c-0.7,0-1.1,0-1.5,0.1v-0.9c0.3,0.1,0.8,0.1,1.5,0.1h5.4c0.5,0,0.7,0,1,0L60.2,66.5z
		 M54.2,66.7c0.6,0.8,1.2,1.4,2.2,2c0.9-0.6,1.5-1,2.4-2H54.2z M54.5,64H58v-1.6h-3.5V64z"/>
	<path d="M66.9,58.9c-0.6,1.5-1.2,4.6-1.2,7c0,0.5,0,1.4,0.1,2.1c0,0.1,0,0.1,0,0.4c0,0.1,0,0.1,0,0.3l0.1,0
		c0.3-1.1,0.4-1.4,0.9-2.6c0.1-0.1,0.1-0.2,0.1-0.3l0.7,0.3c-0.7,1.5-1.3,3.4-1.3,4.3c0,0.1,0,0.1,0,0.3l-1.1,0.1
		c0-0.1,0-0.2-0.1-0.6c-0.3-1.4-0.4-2.9-0.4-4.5c0-2,0.2-3.6,0.8-6.2c0.1-0.7,0.1-0.8,0.2-0.9L66.9,58.9z M68.4,61.6
		c0.7,0.2,1.4,0.2,2.7,0.2c0.6,0,1,0,1.6,0c0-1.4,0-1.4,0-2.5c0-0.3,0-0.5,0-0.6h1.1c-0.1,0.4-0.1,1.1-0.1,2.4c0,0.2,0,0.4,0,0.7
		c1.2-0.1,2-0.3,2.6-0.6l0,1c0,0,0,0-1.1,0.2c-0.4,0.1-0.8,0.1-1.6,0.2c0,1.5,0,2.2,0.2,4.2c1.1,0.5,1.5,0.7,2.5,1.5
		c0.2,0.1,0.2,0.1,0.4,0.3l-0.5,1.1c-0.5-0.5-1.1-0.9-2.1-1.6c-0.1,0-0.1,0-0.1-0.1C74,68,74,68,73.9,68c0,0.2,0,0.3,0,0.4
		c0,0.4-0.1,0.8-0.2,1c-0.4,0.8-1.3,1.3-2.5,1.3c-1.7,0-2.8-0.8-2.8-2.1c0-1.2,1.2-2.1,2.9-2.1c0.6,0,1.3,0.1,1.7,0.3
		c0-0.3-0.1-1.7-0.1-3.9c-0.7,0-1.1,0-1.7,0c-0.6,0-1.2,0-1.7,0c-0.3,0-0.4,0-0.5,0c-0.1,0-0.2,0-0.3,0c-0.1,0-0.1,0-0.1,0
		c0,0,0,0-0.1,0L68.4,61.6z M71.3,67.3c-1.2,0-1.9,0.5-1.9,1.2c0,0.7,0.7,1.2,1.7,1.2c0.7,0,1.2-0.2,1.5-0.5
		c0.2-0.2,0.3-0.6,0.3-1.2c0-0.1,0-0.5,0-0.5C72.3,67.3,71.9,67.3,71.3,67.3z"/>
	<path d="M79.4,67.4c1.2,1,2,1.8,3,3.2l-0.8,0.8c-1-1.4-1.8-2.3-3-3.3L79.4,67.4z"/>
	<path d="M95.7,62.5c1.4,0.6,2.5,1.1,3.8,2l-0.6,1c-1.1-0.8-2.5-1.5-3.8-2.1L95.7,62.5z M95.3,69.3c1,0,2.5-0.4,4-0.9
		c1.9-0.7,3.3-1.8,4.5-3.3c0.8-1.1,1.3-2,1.8-3.4c0.4,0.4,0.5,0.5,0.9,0.8c-1.3,3.1-3.1,5.2-5.8,6.5c-1.1,0.5-2.6,1-3.8,1.3
		c-0.2,0-0.5,0.1-0.8,0.2s-0.4,0.1-0.6,0.2L95.3,69.3z M96.8,58.9c1.5,0.6,2.4,1.1,3.7,1.9l-0.6,1c-1-0.8-2.6-1.6-3.7-2L96.8,58.9z"
		/>
	<path d="M114.6,71.2c0.1-0.4,0.1-0.8,0.1-1.3v-3.8c0,0,0-0.1,0-0.2c0-0.1,0-0.1,0-0.3c0-0.1,0-0.1,0-0.2c-1,0.7-2.9,1.5-5.1,2.2
		c-0.2-0.5-0.3-0.6-0.6-1c1.8-0.5,2.9-0.8,4.3-1.5c1.9-0.9,3.6-2.1,5-3.7c-0.4,0-0.6,0-0.9,0l-5.7,0c-0.7,0-1,0-1.5,0.1v-1.1
		c0.4,0.1,0.8,0.1,1.5,0.1h2.8v-1.3c0-0.5,0-0.7-0.1-1h1.2c-0.1,0.3-0.1,0.5-0.1,1v1.4h3.1c0.3,0,0.5,0,0.7-0.1l0.6,0.7
		c-0.2,0.2-0.3,0.2-0.4,0.4c-1,1.2-1.8,1.9-3.5,3.1c2.3,0.9,3.6,1.5,5.5,2.6l-0.6,1c-1.2-0.8-2.5-1.5-4.9-2.6
		c-0.1,0-0.2-0.1-0.4-0.2c0,0.2,0.1,0.4,0.1,0.8v3.7c0,0.7,0,0.9,0.1,1.3H114.6z"/>
	<path d="M127.2,63.5c1.1,0.9,1.7,1.4,3,2.8c0.6-0.5,1.4-1.3,2-1.8c0.8-0.9,1.8-2.2,2.5-3.3c0-0.1,0.1-0.1,0.1-0.2
		c-0.2,0-0.2,0-8.6,0c-0.8,0-1.2,0-1.7,0.1v-1.2c0.5,0.1,0.9,0.1,1.8,0.1h8.7c0.5,0,0.6,0,0.8-0.1l0.6,0.8c-0.2,0.2-0.3,0.3-0.6,0.8
		c-1.5,2.3-3.1,4.1-4.9,5.6c0.6,0.6,1.2,1.4,2.2,2.7l-0.9,0.8c-1.4-2.2-3.6-4.6-5.8-6.4L127.2,63.5z"/>
	<path d="M147.7,61.6v-1.5c0-1.1,0-1.2,0-1.5h1.2c0,0.4,0,0.4-0.1,1.4c0,0.3,0,0.3,0,1.6h1.3c0.9,0,1.2,0,1.8-0.1v1.1
		c-0.5-0.1-0.9-0.1-1.7-0.1h-1.3c0,3-0.2,4-0.7,5.1c-0.5,1-1.4,1.8-2.4,2.5c-0.5,0.3-0.9,0.5-1.7,0.8c-0.2-0.4-0.3-0.6-0.7-0.9
		c1.3-0.4,2.1-0.8,2.9-1.5c1-0.9,1.5-1.9,1.6-3.7c0-0.5,0-0.9,0.1-2.2h-4.6v2.5c0,0.6,0,0.8,0.1,1.2h-1.2c0-0.3,0.1-0.6,0.1-1.3
		v-2.5h-1.3c-0.8,0-1.2,0-1.7,0.1v-1.1c0.5,0.1,0.9,0.1,1.8,0.1h1.2v-1.7c0-0.6,0-0.9-0.1-1.3h1.2c-0.1,0.4-0.1,0.5-0.1,1.2v1.8
		H147.7z"/>
	<path d="M155,69.1c1.2,0,3-0.5,4.4-1.2c2.9-1.3,4.9-3.5,6.1-6.7c0.3,0.5,0.5,0.6,0.9,0.9c-1.2,2.6-2.6,4.4-4.6,5.7
		c-1.5,1.1-3.1,1.7-5.6,2.2c-0.4,0.1-0.5,0.1-0.9,0.2L155,69.1z M156,59.8c1.6,1,2.5,1.8,3.6,2.8l-0.8,0.9c-1.1-1.2-2.3-2.1-3.6-2.9
		L156,59.8z"/>
	<path d="M170.7,62.5c1.4,0.6,2.5,1.1,3.8,2l-0.6,1c-1.1-0.8-2.5-1.5-3.8-2.1L170.7,62.5z M170.3,69.3c1,0,2.5-0.4,4-0.9
		c1.9-0.7,3.3-1.8,4.5-3.3c0.8-1.1,1.3-2,1.8-3.4c0.4,0.4,0.5,0.5,0.9,0.8c-1.3,3.1-3.1,5.2-5.8,6.5c-1,0.5-2.6,1-3.8,1.3
		c-0.2,0-0.5,0.1-0.8,0.2s-0.4,0.1-0.6,0.2L170.3,69.3z M171.8,58.9c1.5,0.6,2.4,1.1,3.7,1.9l-0.6,1c-1-0.8-2.6-1.6-3.7-2
		L171.8,58.9z"/>
	<path d="M187.8,62.3c-0.1-0.8-0.1-0.8-0.3-1.1l1.1-0.2c0,0.3,0,0.3,0.2,1.1l0.2,1.3l5-0.8c0.3-0.1,0.5-0.1,0.6-0.2l0.6,0.6
		c-0.1,0.2-0.2,0.3-0.3,0.7c-0.6,1.5-1.5,2.6-2.9,3.5c-0.3-0.3-0.4-0.4-0.8-0.6c1.3-0.8,2.1-1.6,2.7-2.9c0,0,0-0.1,0.1-0.1
		c-0.2,0-0.2,0-0.4,0.1l-4.5,0.7l1.1,5.6c0.2,0.8,0.2,0.8,0.3,1.2l-1.2,0.2c0-0.4,0-0.7-0.1-1.2l-1-5.7l-1.5,0.3
		c-0.6,0.1-0.9,0.2-1.3,0.3l-0.2-1.1c0.5,0,0.8,0,1.4-0.1l1.4-0.2L187.8,62.3z"/>
	<path d="M210.7,59.3c-0.3,0.2-0.3,0.2-0.7,0.6c-0.9,1-2.2,2.1-3.5,3v6.4c0,0.9,0,1.2,0.1,1.6h-1.3c0.1-0.4,0.1-0.7,0.1-1.6v-5.7
		c-2,1.2-3,1.7-5.8,2.6c-0.2-0.5-0.3-0.6-0.6-1c2.8-0.7,5.4-2,7.8-3.9c1.4-1.1,2.4-2.1,2.9-2.8L210.7,59.3z"/>
	<path d="M215,69.1c1.2,0,3-0.5,4.4-1.2c2.9-1.3,4.9-3.5,6.1-6.7c0.3,0.5,0.5,0.6,0.9,0.9c-1.2,2.6-2.6,4.4-4.6,5.7
		c-1.5,1.1-3.1,1.7-5.6,2.2c-0.4,0.1-0.5,0.1-0.9,0.2L215,69.1z M216,59.8c1.6,1,2.5,1.8,3.6,2.8l-0.8,0.9c-1.1-1.2-2.3-2.1-3.6-2.9
		L216,59.8z"/>
	<path d="M240.3,60.3c1.1,1.2,1.7,2.8,1.7,4.4c0,3.6-2.9,6.6-6.6,6.6s-6.6-3-6.6-6.6c0-1.9,0.8-3.6,2.2-4.9c1.2-1.1,2.8-1.7,4.4-1.7
		C237.3,58.2,239,58.9,240.3,60.3z"/>
	<path d="M255.3,60.3c1.1,1.2,1.7,2.8,1.7,4.4c0,3.6-2.9,6.6-6.6,6.6s-6.6-3-6.6-6.6c0-1.9,0.8-3.6,2.2-4.9c1.2-1.1,2.8-1.7,4.4-1.7
		C252.3,58.2,254,58.9,255.3,60.3z"/>
	<path d="M270.3,60.3c1.1,1.2,1.7,2.8,1.7,4.4c0,3.6-2.9,6.6-6.6,6.6s-6.6-3-6.6-6.6c0-1.9,0.8-3.6,2.2-4.9c1.2-1.1,2.8-1.7,4.4-1.7
		C267.3,58.2,269,58.9,270.3,60.3z"/>
	<path d="M279.7,66.4c-0.9,2-1.8,2.9-2.8,2.9c-1.4,0-2.5-1.6-2.5-3.7c0-1.5,0.6-3,1.6-4.1c1.2-1.3,2.8-2,4.8-2
		c1.7,0,3.2,0.5,4.1,1.5c0.9,0.9,1.5,2.2,1.5,3.7c0,2.3-1.3,4.2-3.4,5.2c-0.7,0.3-1.2,0.5-2.3,0.7c-0.2-0.5-0.2-0.6-0.5-1
		c1.1-0.2,1.8-0.4,2.5-0.7c1.7-0.8,2.7-2.4,2.7-4.2c0-1.7-0.9-3.1-2.4-3.8c-0.6-0.2-1-0.3-1.7-0.4C281,62.6,280.4,64.9,279.7,66.4z
		 M277.9,61.2c-1.5,0.9-2.4,2.6-2.4,4.5c0,1.4,0.6,2.5,1.4,2.5c0.6,0,1.2-0.7,1.9-2.2c0.6-1.4,1.2-3.6,1.4-5.5
		C279.2,60.6,278.6,60.8,277.9,61.2z"/>
	<path d="M296.8,63.8c0-0.1,0-0.3,0-1c-0.3,0.6-0.4,0.8-1.1,1.7c-0.8,1-2.1,2.3-3.6,3.3c-0.7,0.5-1.3,0.9-2.5,1.5
		c-0.2-0.4-0.4-0.6-0.8-0.9c1.8-0.8,3.5-2,5.1-3.6c0.8-0.8,1.7-1.9,2.2-2.7l-4.9,0c-0.9,0-1.2,0-1.7,0.1v-1.1
		c0.5,0.1,0.8,0.1,1.7,0.1l5.5,0l0-1.5c0-0.8,0-0.8-0.1-1.2h1.2c0,0.3-0.1,0.6-0.1,0.8v0.4l0,1.5h2c0.8,0,1,0,1.5-0.1v1.1
		c-0.3,0-0.6,0-1.2,0c-0.1,0-0.2,0-0.2,0h-2l0.1,7.3c0,0.6,0,1.1,0.1,1.5h-1.2c0-0.4,0.1-0.6,0.1-1.2c0-0.2,0-0.2,0-0.3l-0.1-5.5
		V63.8L296.8,63.8z"/>
	<path d="M305,69.1c1.2,0,3-0.5,4.4-1.2c2.9-1.3,4.9-3.5,6.1-6.7c0.3,0.5,0.5,0.6,0.9,0.9c-1.2,2.6-2.6,4.4-4.6,5.7
		c-1.5,1.1-3.1,1.7-5.6,2.2c-0.4,0.1-0.5,0.1-0.9,0.2L305,69.1z M306,59.8c1.6,1,2.5,1.8,3.6,2.8l-0.8,0.9c-1.1-1.2-2.3-2.1-3.6-2.9
		L306,59.8z"/>
	<path d="M320,62.6c0.5,0.1,0.9,0.1,1.8,0.1h7.7c0.6,0,0.7,0,1-0.1l0.6,0.6c-0.1,0.2-0.2,0.3-0.4,0.9c-1.3,3.5-3.3,5.4-7.2,6.7
		c-0.2-0.4-0.3-0.6-0.6-1c2-0.6,3.3-1.2,4.5-2.3c1.1-1,1.7-2.1,2.4-3.9h-7.8c-0.8,0-1.2,0-1.7,0.1V62.6z M321.3,59.1
		c0.4,0.1,0.7,0.1,1.6,0.1h5c0.8,0,1.1,0,1.6-0.1v1.2c-0.4-0.1-0.8-0.1-1.6-0.1h-5c-0.8,0-1.2,0-1.6,0.1V59.1z"/>
	<path d="M30.7,85.3c-0.3,0.2-0.3,0.2-0.7,0.6c-0.9,1-2.2,2.1-3.5,3v6.4c0,0.9,0,1.2,0.1,1.6h-1.3c0.1-0.4,0.1-0.7,0.1-1.6v-5.7
		c-1.9,1.2-3,1.7-5.8,2.6c-0.2-0.5-0.3-0.6-0.6-1c2.8-0.7,5.4-2,7.8-3.9c1.4-1.1,2.4-2.1,2.9-2.8L30.7,85.3z"/>
	<path d="M35,95.2c1.2,0,3-0.5,4.4-1.2c2.9-1.3,4.9-3.5,6.1-6.7c0.3,0.5,0.5,0.6,0.9,0.9c-1.2,2.6-2.6,4.4-4.6,5.7
		c-1.5,1.1-3.1,1.7-5.6,2.2c-0.4,0.1-0.5,0.1-0.9,0.2L35,95.2z M36,85.9c1.6,1,2.5,1.8,3.6,2.8l-0.8,0.9c-1.1-1.2-2.3-2.1-3.6-2.9
		L36,85.9z"/>
	<path d="M51.7,87.5c-0.5,0.8-0.9,1.4-1.6,2.1c-0.3-0.3-0.5-0.5-0.8-0.7c0.9-0.8,1.4-1.5,1.9-2.5c0.4-0.7,0.6-1.5,0.7-2.1l1.1,0.3
		c-0.1,0.2-0.2,0.4-0.3,0.7c-0.2,0.6-0.3,0.8-0.5,1.3h2.7v-1.2c0-0.5,0-0.9-0.1-1.3H56c-0.1,0.4-0.1,0.8-0.1,1.3v1.2h3.6
		c0.6,0,1,0,1.4-0.1v1.1c-0.4-0.1-0.8-0.1-1.4-0.1h-3.6v2.7h4.7c0.7,0,1.1,0,1.5-0.1v1.1c-0.4-0.1-0.9-0.1-1.5-0.1h-3.1v5
		c0,0.4,0.2,0.5,1.4,0.5c1.3,0,1.7-0.1,1.9-0.4c0.2-0.4,0.3-1,0.3-2.2c0.3,0.2,0.6,0.3,1,0.4c-0.1,1.3-0.2,1.9-0.4,2.4
		c-0.3,0.7-0.9,0.8-2.8,0.8c-1.8,0-2.2-0.2-2.2-1V91h-2.2c-0.1,1.6-0.2,2.2-0.6,3.2c-0.5,1.1-1.2,1.9-2.5,2.6
		c-0.5,0.3-1,0.6-1.8,0.9c-0.1-0.2-0.2-0.4-0.3-0.5c-0.2-0.3-0.2-0.3-0.3-0.5c1.5-0.4,2.4-1,3.1-1.7c0.7-0.7,1.1-1.5,1.3-2.6
		c0.1-0.3,0.1-0.7,0.1-1.4h-2.7c-0.6,0-1.1,0-1.5,0.1v-1.1c0.4,0.1,0.9,0.1,1.5,0.1h4.5v-2.7H51.7z"/>
	<path d="M69.2,91.6c0,0.2-0.1,0.3-0.1,0.6c0,0.2-0.1,1-0.2,1.2c-0.2,1-0.8,1.9-1.6,2.6c-0.8,0.7-1.5,1-2.9,1.5
		c-0.2-0.4-0.3-0.6-0.6-0.9c1-0.2,1.4-0.4,2-0.7c1.6-0.9,2.3-2,2.3-3.7c0-0.2,0-0.3,0-0.6L69.2,91.6z M69.8,85.4c0-0.6,0-1-0.1-1.4
		h1.1c-0.1,0.3-0.1,0.7-0.1,1.4v0.3h4.5c0.8,0,1.2,0,1.6-0.1v1c-0.5-0.1-1-0.1-1.6-0.1h-4.5V88h3.5c0.8,0,1.2,0,1.6-0.1v1
		c-0.4-0.1-0.8-0.1-1.6-0.1h-7.6c-0.7,0-1.1,0-1.6,0.1v-1c0.4,0.1,0.8,0.1,1.6,0.1h3.3v-1.5h-4.1c-0.7,0-1.2,0-1.7,0.1v-1
		c0.4,0.1,0.9,0.1,1.7,0.1h4.1V85.4z M64.1,92.9c0-0.3,0.1-0.6,0.1-1V91c0-0.4,0-0.7-0.1-1c0.5,0,0.8,0.1,1.5,0.1h9.7
		c0.7,0,1,0,1.5-0.1c0,0.3-0.1,0.6-0.1,1v0.9c0,0.5,0,0.7,0.1,1h-1v-2H65.1v2H64.1z M72.2,95.8c0,0.5,0.2,0.5,1.5,0.5
		c1.4,0,1.8-0.1,2-0.3c0.2-0.3,0.3-0.8,0.4-2c0.3,0.2,0.6,0.3,0.9,0.4c-0.1,1.4-0.3,2.1-0.7,2.4c-0.3,0.3-1,0.4-2.6,0.4
		c-1.1,0-1.7-0.1-2.1-0.2c-0.4-0.1-0.5-0.4-0.5-0.9v-3.3c0-0.6,0-0.9-0.1-1.2h1.1c-0.1,0.3-0.1,0.6-0.1,1.2V95.8z"/>
	<path d="M83.1,84.4c-0.1,0.3-0.2,0.7-0.3,1.5c-0.2,1.5-0.5,3.1-0.5,3.9l0.1,0c0-0.1,0-0.1,0.1-0.4c0.2-0.8,0.5-1.6,0.9-2.2
		c0.8-1.3,1.8-1.9,3-1.9c1,0,1.8,0.5,2.4,1.3c0.6,0.9,0.9,2,0.9,3.6c0,2.7-1.2,4.8-3.5,5.9c-0.7,0.4-1.6,0.7-2.7,0.9
		c-0.2-0.5-0.3-0.6-0.6-1c1.4-0.2,2.2-0.5,3-0.9c1.8-1,2.6-2.6,2.6-5c0-2.4-0.8-3.8-2.3-3.8c-1.1,0-2.1,0.9-3,2.6
		c-0.5,1.1-0.8,2.2-0.8,3.3c0,0.1,0,0.1,0,0.4l-1.1,0c0-0.1,0-0.1,0-0.2l0-0.3l0-1.6c0-0.1,0-0.3,0-0.3c0-1.5,0.1-2.9,0.5-5.5
		c0-0.2,0-0.3,0-0.5L83.1,84.4z"/>
	<path d="M105.1,85.6c-0.2,0-0.2,0-0.5,0.1c-1.1,0.4-2.1,0.7-3.3,0.9c0,1.4,0,2.4,0,3h3.6c0.9,0,1.1,0,1.6-0.1v1.1
		c-0.5-0.1-0.8-0.1-1.6-0.1h-3.7c-0.1,1.4-0.4,2.4-1,3.3c-0.8,1.3-1.9,2.2-3.7,3.1c-0.3-0.5-0.4-0.6-0.8-0.9
		c1.6-0.6,2.8-1.5,3.5-2.6c0.6-0.8,0.8-1.7,0.9-2.9h-4.2c-0.8,0-1,0-1.6,0.1v-1.1c0.5,0.1,0.7,0.1,1.6,0.1h4.3c0-0.7,0-1.5,0-2.8
		c-0.9,0.2-2.2,0.3-4.4,0.4c-0.1-0.4-0.1-0.5-0.4-1c0.4,0,0.6,0,0.9,0c1.9,0,4.4-0.4,6.3-0.9c0.8-0.3,1.2-0.4,1.7-0.7L105.1,85.6z"
		/>
	<path d="M117.6,88.2c-0.2,2.2-0.3,3.1-0.8,4.2c-0.5,1.2-1.4,2.3-2.6,3.1c-0.6,0.5-1.2,0.8-2.3,1.3c-0.2-0.5-0.3-0.6-0.7-1
		c1.3-0.5,2.2-1.1,3.2-1.9c1.4-1.3,2-3,2.1-5.8h-4.1c-0.9,1.4-1.5,2.2-2.6,3.2c-0.3-0.3-0.4-0.5-0.9-0.7c1.4-1.1,2.4-2.4,3.2-4.1
		c0.4-1,0.6-1.5,0.8-2.1l1.1,0.4c-0.1,0.3-0.2,0.3-0.4,0.8c-0.3,0.8-0.6,1.3-0.8,1.6c0.2,0,0.2,0,7,0c0.9,0,1.2,0,1.8-0.1v1.1
		c-0.4,0-0.4,0-1.9,0H117.6z"/>
	<path d="M126.6,88.2c0.6,1,0.9,1.7,1.5,3.3l-1,0.3c-0.4-1.3-0.8-2.3-1.4-3.4L126.6,88.2z M135.1,88.1c-0.1,0.2-0.1,0.2-0.3,1.2
		c-0.2,1.1-0.8,2.4-1.3,3.4c-1.1,1.8-2.6,3.2-5,4.3c-0.2-0.4-0.3-0.5-0.7-0.8c2.3-1,3.7-2.2,4.8-3.9c0.6-0.9,1-2.1,1.3-3.2
		c0.1-0.5,0.2-0.8,0.2-1V88c0,0,0,0,0-0.1L135.1,88.1z M129.7,87.6c0.8,1.4,1.1,2,1.5,3.2l-1,0.3c-0.3-1.1-0.7-2.2-1.4-3.3
		L129.7,87.6z"/>
	<path d="M142.3,96.9c0.1-0.4,0.1-0.8,0.1-1.6V86c0-0.8,0-1.2-0.1-1.5h1.3c-0.1,0.4-0.1,0.7-0.1,1.6v2.8c2.3,0.8,4,1.6,6.7,3.2
		l-0.6,1.1c-1.4-1-3.5-2.1-5.6-3c-0.2-0.1-0.3-0.1-0.5-0.3l0,0c0,0.3,0.1,0.5,0.1,0.9v4.5c0,0.8,0,1.2,0.1,1.6H142.3z"/>
	<path d="M162.7,87.7v-1.5c0-1.1,0-1.2,0-1.5h1.2c0,0.4,0,0.4-0.1,1.4c0,0.3,0,0.3,0,1.6h1.3c0.9,0,1.2,0,1.8-0.1v1.1
		c-0.5-0.1-0.9-0.1-1.7-0.1h-1.3c0,3-0.2,4-0.7,5.1c-0.5,1-1.4,1.8-2.4,2.5c-0.5,0.3-0.9,0.5-1.7,0.8c-0.2-0.4-0.3-0.6-0.7-0.9
		c1.3-0.4,2.1-0.8,2.9-1.5c1-0.9,1.5-1.9,1.6-3.7c0-0.5,0-0.9,0.1-2.2h-4.6v2.5c0,0.6,0,0.8,0.1,1.2h-1.2c0-0.3,0.1-0.6,0.1-1.3
		v-2.5h-1.3c-0.8,0-1.2,0-1.7,0.1v-1.1c0.5,0.1,0.9,0.1,1.8,0.1h1.2v-1.7c0-0.6,0-0.9-0.1-1.3h1.2c-0.1,0.4-0.1,0.5-0.1,1.2v1.8
		H162.7z"/>
	<path d="M169.2,90.1c0.4,0.1,0.8,0.1,1.9,0.1h8.7c1.1,0,1.4,0,1.8-0.1v1.2c-0.5,0-0.8-0.1-1.8-0.1h-8.7c-1.1,0-1.4,0-1.9,0.1V90.1z
		"/>
	<path d="M187.1,89.8c2.4-0.4,6-1.9,7-2.9l0.8,1c-0.2,0.1-0.3,0.1-0.6,0.3c-2.2,1.2-4.6,2.1-7.2,2.5V93l0,0.1c0,0,0,0.1,0,0.2
		c0,1.1,0.1,1.4,0.3,1.6c0.2,0.2,0.5,0.3,1.1,0.4c0.5,0.1,1.2,0.1,1.8,0.1c0.9,0,2.3-0.1,3.4-0.2c0.6-0.1,0.9-0.1,1.5-0.3l0.1,1.2
		c-0.2,0-0.3,0-0.5,0l-0.2,0l-0.7,0.1c-1,0.1-2.9,0.2-4,0.2c-1.8,0-2.8-0.2-3.3-0.6c-0.4-0.3-0.5-0.7-0.6-1.4c0-0.2,0-0.5,0-1.2
		v-6.9c0-0.7,0-0.9-0.1-1.2h1.2c-0.1,0.4-0.1,0.6-0.1,1.3V89.8z M194.6,84.2c0.7,0.8,1.1,1.4,1.5,2.3l-0.8,0.4
		c-0.4-0.8-1.1-1.9-1.5-2.4L194.6,84.2z M196.3,83.4c0.7,0.8,1,1.4,1.6,2.3l-0.8,0.4c-0.3-0.7-0.9-1.7-1.5-2.4L196.3,83.4z"/>
	<path d="M210.6,96.6c-1.2-1.5-2.9-3.1-4.8-4.6c-1,1.2-1.8,1.9-2.9,2.7c-1,0.8-1.8,1.2-2.9,1.8c-0.2-0.4-0.4-0.6-0.7-1
		c1.2-0.5,1.9-0.9,3-1.7c2.4-1.8,4.3-4.1,5.4-6.8c0-0.1,0-0.1,0.1-0.2c0,0,0-0.1,0-0.1c-0.1,0-0.2,0-0.4,0l-5,0.1
		c-0.7,0-1.1,0-1.5,0.1l0-1.2c0.4,0.1,0.7,0.1,1.2,0.1c0,0,0.2,0,0.4,0l5.4-0.1c0.5,0,0.7,0,1-0.1l0.6,0.6c-0.1,0.2-0.3,0.4-0.4,0.7
		c-0.8,1.9-1.5,3-2.5,4.2c2,1.5,3.3,2.7,5,4.5L210.6,96.6z"/>
	<path d="M217,85c-0.2,0.6-0.4,1.4-0.6,2.4c-0.3,1.6-0.5,2.9-0.5,4.7c0,1.2,0,2.1,0.1,2.9c0.2-1,0.5-1.8,1-2.9l0.7,0.3
		c-0.7,1.5-1.2,3.3-1.2,4.1c0,0,0,0.1,0,0.2l-1.1,0.1c0-0.2,0-0.3-0.1-0.6c-0.3-1.6-0.4-2.7-0.4-4.2c0-2.1,0.2-3.7,0.7-5.9
		c0.1-0.7,0.2-0.9,0.2-1.2L217,85z M220.8,91c-0.8,0.8-1.1,1.5-1.1,2.2c0,1.1,0.9,1.6,2.9,1.6c1.4,0,2.6-0.2,3.4-0.5l0.2,1.2
		c-0.2,0-0.2,0-0.5,0.1c-1,0.2-2.1,0.3-3.1,0.3c-1.7,0-2.8-0.4-3.4-1.1c-0.3-0.4-0.5-0.8-0.5-1.4c0-0.9,0.4-1.7,1.3-2.8L220.8,91z
		 M218.9,86.5c0.6,0.2,1.4,0.2,2.5,0.2c1.7,0,3-0.1,4-0.4l0.1,1.1c0,0-0.4,0-1,0.1c-0.9,0.1-2.1,0.2-3.2,0.2c-0.8,0-1.4,0-2.4-0.1
		L218.9,86.5z"/>
	<path d="M229.4,86.6c0.3,0,0.4,0,0.5,0c0.2,0,0.4,0,0.9,0c1.8-0.1,6.6-0.4,8.5-0.5c0.8,0,1.5-0.1,1.8-0.2l0.1,1.1
		c-0.6,0-1.1,0.1-1.7,0.2c-1,0.3-2.1,0.8-2.9,1.5c-1.2,1-1.8,2.2-1.8,3.5c0,1.3,0.8,2.3,2.1,2.8c0.7,0.3,1.7,0.5,2.2,0.5
		c0,0,0.1,0,0.2,0l-0.2,1.2c-0.2,0-0.2,0-0.5-0.1c-1.5-0.3-2.4-0.6-3.2-1.2c-1.1-0.7-1.7-1.8-1.7-3.1c0-1.7,1-3.4,2.8-4.6
		c0.5-0.3,0.9-0.5,1.4-0.8c-0.9,0.1-1.6,0.2-3.3,0.3c-3.1,0.2-4.4,0.3-5.2,0.5L229.4,86.6z"/>
	<path d="M247.9,91.2c-1,0.8-1.4,1.5-1.4,2.2c0,0.7,0.4,1.2,1.3,1.5c0.6,0.2,1.6,0.3,2.7,0.3c1.9,0,3.7-0.2,4.5-0.6l0.1,1.2
		c-0.2,0-0.2,0-0.5,0.1c-1.3,0.2-2.7,0.3-4,0.3c-1.4,0-2.7-0.2-3.5-0.5c-1.1-0.5-1.7-1.2-1.7-2.3c0-1,0.6-1.9,1.7-2.9L247.9,91.2z
		 M246.3,85.7c1.1,0.3,2.3,0.4,4,0.4c1.8,0,3-0.1,3.8-0.3l0.1,1c-0.9,0.4-2.5,1.3-3.8,2.3l-0.8-0.6c1.2-0.8,1.6-1,2.7-1.6
		c-0.9,0.2-1.4,0.2-2.3,0.2c-1,0-2.3-0.1-3.3-0.2c-0.3,0-0.3,0-0.5,0L246.3,85.7z M253.8,88.3c0.7,0.8,1.1,1.4,1.5,2.3l-0.8,0.5
		c-0.4-0.8-1.1-1.9-1.5-2.4L253.8,88.3z M255.4,87.4c0.7,0.8,1.1,1.4,1.6,2.3l-0.8,0.4c-0.3-0.7-1-1.7-1.5-2.4L255.4,87.4z"/>
	<path d="M260.9,94.4c-0.4,1.4-0.8,2.1-1.5,3.1c-0.3-0.3-0.4-0.4-0.7-0.6c0.7-0.9,1.1-1.6,1.4-2.9L260.9,94.4z M260.4,93.7
		c-0.5,0-0.8,0-1.2,0c0-0.3,0-0.8,0-1.5v-6c0-0.7,0-1.2-0.1-1.6c0.4,0,0.7,0,1.2,0h1.5c0.5,0,0.8,0,1.2,0c0,0.3,0,0.6,0,1.5v6.1
		c0,0.8,0,1.2,0,1.5c-0.3,0-0.6,0-1.2,0H260.4z M260.1,87.3h2.1v-1.9h-2.1V87.3z M260.1,90h2.1v-1.9h-2.1V90z M260.1,92.9h2.1v-2.1
		h-2.1V92.9z M262.2,94.1c0.3,1.1,0.7,1.7,1.3,2.6c-0.3,0.1-0.4,0.2-0.7,0.5c-0.6-1-0.9-1.7-1.3-2.8L262.2,94.1z M264.9,89.6
		c-0.7,0-1,0-1.4,0.1v-0.9c0.4,0.1,0.7,0.1,1.4,0.1h0.9v-1.1h-0.5c-0.6,0-0.9,0-1.2,0.1v-0.8c0.4,0,0.6,0.1,1.2,0.1h0.5v-1H265
		c-0.6,0-0.9,0-1.3,0.1v-0.9c0.4,0.1,0.7,0.1,1.3,0.1h0.8c0-0.6,0-0.9-0.1-1.2h1c-0.1,0.3-0.1,0.6-0.1,1.2h2.3c0-0.7,0-0.9-0.1-1.2
		h1c-0.1,0.3-0.1,0.7-0.1,1.2h1c0.6,0,1,0,1.3-0.1v0.9c-0.4-0.1-0.7-0.1-1.3-0.1h-1v1h0.7c0.6,0,0.9,0,1.2-0.1v0.8
		c-0.3-0.1-0.7-0.1-1.2-0.1h-0.6v1.1h1c0.7,0,1,0,1.4-0.1v0.9c-0.4-0.1-0.7-0.1-1.4-0.1h-2.6v1h1.8c0.6,0,1.1,0,1.5-0.1
		c0,0.3-0.1,0.8-0.1,1.5v2.4c0.4,0,0.6,0,0.9-0.1v0.9c-0.3,0-0.4,0-0.9-0.1v1.2c0,0.9-0.3,1.2-1.4,1.2c-0.5,0-0.8,0-1.5,0
		c0-0.4-0.1-0.6-0.2-0.9c0.6,0.1,1.1,0.1,1.5,0.1c0.5,0,0.6-0.1,0.6-0.4v-1.2h-5.3V96c0,1,0,1.2,0.1,1.6h-1c0-0.5,0.1-0.9,0.1-1.6
		v-0.9c-0.5,0-0.6,0-1,0.1v-0.9c0.3,0,0.6,0.1,1,0.1V92c0-0.6,0-0.9-0.1-1.5c0.4,0,0.8,0,1.6,0h1.4v-1H264.9z M267.3,91.3h-2.2v1.1
		h2.2V91.3z M267.3,93.1h-2.2v1.2h2.2V93.1z M266.6,87h2.3v-1h-2.3V87z M266.6,88.8h2.3v-1.1h-2.3V88.8z M270.4,92.5v-1.1h-2.3v1.1
		H270.4z M270.4,94.3v-1.2h-2.3v1.2H270.4z"/>
	<path d="M277.7,85.9c-0.3,0-0.6,0-1.1,0.1v-1.1c0.3,0.1,0.6,0.1,1.1,0.1h2c0.7,0,1.1,0,1.4-0.1c0,0.4-0.1,0.7-0.1,1
		c0,1.9,0.4,3.6,1.3,5.2c0.6,1.1,1.3,2.1,2.2,3.1c0.9,0.9,1.5,1.4,2.8,2.2c-0.4,0.3-0.5,0.4-0.8,1c-1.3-0.9-2-1.5-2.9-2.6
		c-0.9-1-1.6-2.1-2.1-3.2c-0.5-0.9-0.7-1.6-0.9-2.8c-0.5,2-1.1,3.4-2.1,4.9c-0.6,0.8-1.2,1.6-2,2.3c-0.6,0.5-0.9,0.8-1.9,1.5
		c-0.2-0.4-0.4-0.6-0.8-0.9c1.6-1,2.5-1.8,3.5-3c1.1-1.3,1.8-2.8,2.3-4.4c0.3-1,0.4-1.8,0.5-3.3H277.7z"/>
	<path d="M290,85.9c-0.5,0-0.9,0-1.3,0.1v-1c0.4,0.1,0.8,0.1,1.3,0.1h2.3c0.6,0,0.9,0,1.3-0.1v1c-0.3,0-0.7-0.1-1.2-0.1h-0.5v9.9
		c0,0.9-0.3,1.2-1.4,1.2c-0.4,0-0.8,0-1.4-0.1c0-0.3-0.1-0.7-0.2-1c0.5,0.1,1.1,0.1,1.6,0.1c0.4,0,0.5-0.1,0.5-0.4v-9.9H290z
		 M296.7,95.5c-1.1,1-1.9,1.5-3.5,2.1c-0.2-0.4-0.4-0.6-0.6-0.8c1.5-0.5,2.4-1,3.3-1.9L296.7,95.5z M295.4,85.6c-0.7,0-1,0-1.5,0.1
		v-1c0.4,0.1,0.9,0.1,1.5,0.1h5.3c0.7,0,1,0,1.4-0.1v1c-0.4-0.1-0.9-0.1-1.4-0.1h-2.4c0,0.1,0,0.1-0.1,0.3c-0.2,0.5-0.3,0.9-0.5,1.2
		h2.3c0.8,0,1.1,0,1.4-0.1c0,0.3-0.1,0.8-0.1,1.4v4.8c0,0.6,0,1.1,0.1,1.5c-0.4,0-0.8-0.1-1.4-0.1h-4.4c-0.6,0-1,0-1.3,0.1
		c0-0.4,0.1-0.8,0.1-1.5v-4.9c0-0.6,0-1-0.1-1.3c0.2,0,0.6,0.1,1.3,0.1h1.2c0.2-0.4,0.4-0.9,0.6-1.5H295.4z M295.2,89.3h5.2v-1.4
		h-5.2V89.3z M295.2,91.6h5.2v-1.5h-5.2V91.6z M295.2,93.9h5.2v-1.5h-5.2V93.9z M299.1,94.9c1,0.9,1.7,1.2,3.2,1.8
		c-0.3,0.3-0.5,0.5-0.6,0.8c-1.5-0.7-2.2-1.2-3.3-2.1L299.1,94.9z"/>
	<path d="M305.2,86.8c0.4,0,0.6,0,1.1,0c1.3,0,2.2-0.1,3.6-0.2c-0.5-1.2-0.8-1.8-0.9-2.1l1.1-0.2c0.1,0.5,0.4,1.3,0.8,2.1
		c1.8-0.3,3.2-0.6,4-1l0.1,1c-1.3,0.4-2.9,0.7-3.8,0.8c0.2,0.5,0.6,1.3,0.9,1.7c2-0.4,2.8-0.6,3.4-0.9l0.1,1
		c-0.3,0.1-0.3,0.1-0.8,0.2c-1,0.3-1.8,0.4-2.4,0.5c0.9,1.4,1,1.6,2.2,3l-0.9,0.6c-0.6-0.3-0.9-0.4-1.6-0.6c-0.5-0.1-1.3-0.1-2-0.1
		c-2.2,0-3.6,0.7-3.6,1.7c0,1,1.1,1.5,3.2,1.5c1.6,0,3.5-0.5,4.4-1l0.2,1.2c-0.2,0-0.2,0-0.9,0.3c-1.2,0.4-2.5,0.6-3.8,0.6
		c-1.4,0-2.3-0.2-3.1-0.6c-0.7-0.4-1.1-1.1-1.1-1.9c0-1.6,1.7-2.6,4.6-2.6c1.2,0,2,0.1,3,0.4c-0.5-0.5-1.1-1.4-1.6-2.3
		c-1.5,0.3-2.5,0.3-5.3,0.4c-0.7,0-0.8,0-1,0.1l0-1c0.3,0,0.6,0,1.2,0c1.6,0,3.5-0.2,4.7-0.4c-0.4-0.7-0.5-0.9-0.9-1.7
		c-1.2,0.2-2.4,0.2-4,0.3c-0.6,0-0.7,0-0.9,0L305.2,86.8z"/>
	<path d="M319.4,93.5c1.2,1,2,1.8,3,3.2l-0.8,0.8c-1-1.4-1.8-2.3-3-3.3L319.4,93.5z"/>
	<path d="M18.6,112.5c0.3,0.1,0.6,0.1,1.2,0.1h2.4c0.6,0,0.8,0,1.2-0.1v1c-0.3,0-0.5-0.1-1.1-0.1h-2.5c-0.5,0-0.8,0-1.2,0.1V112.5z
		 M19,123.3c0-0.4,0.1-1,0.1-1.5v-1.9c0-0.5,0-0.8-0.1-1.2c0.3,0,0.5,0.1,1,0.1h1.8c0.5,0,0.7,0,0.9,0c0,0.3,0,0.4,0,1.2v1.6
		c0,0.4,0,0.6,0,1c-0.2,0-0.5,0-0.8,0h-2v0.9H19z M19.1,114.6c0.3,0,0.5,0.1,1,0.1h1.8c0.5,0,0.7,0,1-0.1v0.9c-0.3,0-0.6-0.1-1-0.1
		h-1.8c-0.5,0-0.7,0-1,0.1V114.6z M19.1,116.7c0.3,0,0.5,0.1,1,0.1h1.8c0.5,0,0.7,0,1-0.1v0.9c-0.3,0-0.6-0.1-1-0.1h-1.8
		c-0.4,0-0.7,0-1,0.1V116.7z M19.1,110.4c0.3,0.1,0.6,0.1,1.1,0.1H22c0.5,0,0.7,0,1.1-0.1v0.9c-0.3,0-0.6-0.1-1.1-0.1h-1.8
		c-0.4,0-0.7,0-1.1,0.1V110.4z M19.9,121.7h2v-2.1h-2V121.7z M29.1,113.3c0,0.2,0,0.5,0,0.6c0,1.9,0.2,3.2,0.5,4.6
		c0.6-1.1,0.9-1.9,1.2-3c0.1-0.2,0.1-0.3,0.1-0.8l0.9,0.4c-0.1,0.2-0.1,0.3-0.3,0.8c-0.5,1.6-1,2.6-1.6,3.7c0.4,1.3,1,2.3,1.3,2.5
		c0.1-0.1,0.1-0.1,0.3-0.6c0.1-0.2,0.1-0.9,0.1-1.5c0.3,0.3,0.5,0.4,0.8,0.5c-0.2,2-0.5,2.7-1.1,2.7c-0.4,0-0.8-0.3-1.2-1
		c-0.3-0.5-0.6-1.1-0.8-1.6c-0.9,1.3-1.8,2.1-3.3,3.1c-0.2-0.3-0.4-0.5-0.7-0.7c1.7-1,2.7-1.9,3.7-3.4c-0.5-1.6-0.7-3.5-0.8-6.3
		h-3.4v0.9c0,0.4,0,0.7,0,1.3h1.5c0.6,0,1,0,1.3-0.1c0,0.3,0,0.3-0.1,1.6c-0.1,1.9-0.2,3.1-0.4,3.5c-0.2,0.4-0.5,0.5-1.1,0.5
		c-0.2,0-0.5,0-0.8-0.1c0-0.3,0-0.5-0.2-0.9c0.4,0.1,0.7,0.1,1,0.1c0.4,0,0.5-0.1,0.5-0.7c0.1-0.6,0.2-2.1,0.2-3.2h-1.8
		c-0.1,2.1-0.1,3-0.2,3.8c-0.2,1.4-0.5,2.3-1.1,3.5c-0.2-0.3-0.4-0.5-0.8-0.6c0.5-0.9,0.8-1.6,0.9-2.8c0.1-1,0.3-3.4,0.3-6.1
		c0-0.9,0-1.3-0.1-1.8c0.3,0,0.9,0.1,1.5,0.1h2.9c0-0.4,0-0.7,0-1.4c0-0.4,0-0.7-0.1-1h1c-0.1,0.3-0.1,0.6-0.1,1c0,0.1,0,0.3,0,0.6
		c0,0.2,0,0.4,0,0.7h1.6c0.6,0,1.1,0,1.5-0.1v1c-0.4,0-0.9-0.1-1.5-0.1H29.1z M31.2,112.1c-0.6-0.7-0.8-0.9-1.6-1.5l0.6-0.5
		c0.8,0.6,1,0.7,1.7,1.4L31.2,112.1z"/>
	<path d="M37,111c-0.2,0.6-0.4,1.4-0.6,2.4c-0.3,1.6-0.5,2.9-0.5,4.7c0,1.2,0,2.1,0.1,2.9c0.2-1,0.5-1.8,1-2.9l0.7,0.3
		c-0.7,1.5-1.2,3.3-1.2,4.1c0,0,0,0.1,0,0.2l-1.1,0.1c0-0.2,0-0.3-0.1-0.6c-0.3-1.6-0.4-2.7-0.4-4.2c0-2.1,0.2-3.7,0.7-5.9
		c0.2-0.7,0.2-0.9,0.2-1.2L37,111z M40.8,117c-0.7,0.8-1.1,1.5-1.1,2.2c0,1.1,0.9,1.6,2.9,1.6c1.4,0,2.6-0.2,3.4-0.5l0.1,1.2
		c-0.2,0-0.2,0-0.5,0.1c-1,0.2-2.1,0.3-3.1,0.3c-1.7,0-2.8-0.4-3.4-1.1c-0.3-0.4-0.5-0.8-0.5-1.4c0-0.9,0.4-1.7,1.3-2.8L40.8,117z
		 M38.9,112.6c0.6,0.2,1.4,0.2,2.5,0.2c1.7,0,3-0.1,4-0.4l0.1,1.1c0,0-0.4,0-1,0.1c-0.9,0.1-2.1,0.2-3.2,0.2c-0.8,0-1.4,0-2.4-0.1
		L38.9,112.6z"/>
	<path d="M50,112.3c0.6,0.2,1.4,0.2,2.8,0.2c0,0,0.1,0,0.4,0c0-0.4,0-0.4,0.1-1.1c0-0.2,0-0.8,0-0.9c0,0,0-0.1,0-0.2l1.2,0.1
		c-0.1,0.4-0.2,0.9-0.3,2.1c2.4-0.1,4.6-0.4,5.7-0.8l0.1,1c-0.2,0-0.2,0-0.5,0.1c-1.6,0.3-3.9,0.6-5.3,0.6c-0.1,1.3-0.1,1.3-0.1,2
		c0.8-0.2,1.4-0.3,2.2-0.3c0.3,0,0.5,0,0.9,0c0.2-0.4,0.3-0.9,0.4-1.3l1,0.3c0,0.1-0.2,0.5-0.5,1.2c2.1,0.5,3.2,1.8,3.2,3.5
		c0,1.5-0.8,2.7-2.4,3.5c-0.9,0.5-1.7,0.7-3.1,0.9c-0.1-0.4-0.2-0.6-0.5-1c0.9,0,1.5-0.1,2.2-0.4c1.6-0.6,2.6-1.7,2.6-3
		c0-1.3-0.9-2.2-2.5-2.6c-0.9,2-1.7,3.3-2.9,4.5c-1.2,1.2-2.3,1.8-3.3,1.8c-1.1,0-1.9-0.9-1.9-2.3c0-1.8,1.3-3.5,3.5-4.5
		c0-1.1,0-1.2,0.1-2.3h-0.6c-0.2,0-0.8,0-2-0.1c-0.1,0-0.2,0-0.3,0c-0.1,0-0.1,0-0.2,0L50,112.3z M51.4,117.8
		c-0.6,0.7-0.9,1.5-0.9,2.2c0,0.8,0.4,1.4,1.1,1.4c0.6,0,1-0.2,1.7-0.8c-0.2-1.2-0.3-2.2-0.3-4.1C52.3,117,51.8,117.4,51.4,117.8z
		 M54.2,120.1c0.2-0.2,0.2-0.3,0.3-0.4c1-1.1,1.6-2.2,2.3-3.8c-0.5,0-0.6,0-0.7,0c-0.7,0-1.4,0.1-2.1,0.3c0,1.9,0,2.2,0.2,3.4
		c0,0.1,0,0.1,0,0.2C54.1,119.9,54.1,120,54.2,120.1L54.2,120.1z"/>
	<path d="M68.1,110.5c-0.1,0.3-0.2,0.7-0.3,1.5c-0.2,1.5-0.5,3.1-0.5,3.9l0.1,0c0-0.1,0-0.1,0.1-0.4c0.2-0.8,0.5-1.6,0.9-2.2
		c0.8-1.3,1.8-1.9,3-1.9c1,0,1.8,0.5,2.4,1.3c0.6,0.9,0.9,2,0.9,3.6c0,2.7-1.2,4.8-3.5,5.9c-0.7,0.4-1.6,0.7-2.7,0.9
		c-0.2-0.5-0.3-0.6-0.6-1c1.4-0.2,2.2-0.5,3-0.9c1.8-1,2.6-2.6,2.6-5c0-2.4-0.8-3.8-2.3-3.8c-1.1,0-2.1,0.9-3,2.6
		c-0.5,1.1-0.8,2.2-0.8,3.3c0,0.1,0,0.1,0,0.4l-1.1,0c0-0.1,0-0.1,0-0.2l0-0.3l0-1.6c0-0.1,0-0.3,0-0.3c0-1.5,0.1-2.9,0.5-5.5
		c0-0.2,0-0.3,0-0.5L68.1,110.5z"/>
	<path d="M79,114.3c0.5,0,1.1-0.1,3.3-0.4c0.3-1.1,0.5-2.5,0.5-3.2c0,0,0-0.1,0-0.2l1.2,0.1c-0.1,0.3-0.2,0.6-0.3,1.4
		c-0.1,0.4-0.2,1.1-0.3,1.7c0.3,0,0.5,0,0.9,0c1.1,0,1.7,0.2,2.2,0.6c0.5,0.5,0.7,1.2,0.7,2.4c0,2.3-0.4,4.3-1,5.2
		c-0.4,0.5-0.8,0.7-1.5,0.7c-0.6,0-1.3-0.2-2.3-0.6c0-0.2,0-0.3,0-0.5c0-0.2,0-0.3,0-0.6c0.9,0.4,1.7,0.7,2.2,0.7
		c0.4,0,0.7-0.2,0.9-0.7c0.4-1,0.6-2.5,0.6-4.2c0-1.6-0.4-2.1-1.8-2.1c-0.3,0-0.5,0-1.1,0.1c-0.6,2.8-1.7,5.4-3.2,8.2l-1-0.6
		c1.2-1.6,2.5-4.6,3.2-7.5c-1.9,0.3-2.3,0.3-3,0.5L79,114.3z M88.9,112.9c1.5,1.6,2.5,3.3,3.1,5.3l-1,0.5c-0.5-1.9-1.7-4-3.1-5.4
		L88.9,112.9z M89.6,110.3c0.7,0.8,1.1,1.4,1.5,2.3l-0.8,0.5c-0.4-0.8-1.1-1.9-1.5-2.4L89.6,110.3z M91.3,109.5
		c0.7,0.8,1.1,1.4,1.5,2.3l-0.7,0.4c-0.3-0.7-0.9-1.7-1.5-2.4L91.3,109.5z"/>
	<path d="M98.7,110.5c0.1,1,0.6,3.5,1.1,5c0.9-0.4,1.3-0.5,3.6-1.3c0.5-0.2,0.7-0.2,1-0.4l0.5,1.1c-1,0.2-3.2,0.9-4.5,1.5
		c-2.6,1-3.7,2-3.7,3.3c0,1.4,1.2,1.9,4.1,1.9c1.7,0,3.4-0.2,4.3-0.5l0.1,1.2c-0.3,0-0.3,0-1.1,0.1c-1.5,0.1-2.3,0.2-3.3,0.2
		c-1.5,0-2.6-0.1-3.3-0.4c-1.2-0.5-1.9-1.3-1.9-2.5c0-1,0.5-1.8,1.3-2.5c0.6-0.5,1-0.8,2-1.2c-0.4-1.2-0.7-2.3-1.1-4.2
		c-0.1-0.6-0.2-0.7-0.3-0.9L98.7,110.5z"/>
	<path d="M110.2,115.4c0.3,0,0.3,0,1.5-0.3c2-0.4,3.4-0.5,4.6-0.5c1.1,0,2,0.2,2.6,0.6c0.8,0.5,1.3,1.4,1.3,2.4c0,1.6-0.9,3-2.6,4
		c-1.1,0.7-2.1,1-4.4,1.4c-0.2-0.6-0.3-0.7-0.5-1.1c1.6-0.1,3-0.5,4.2-1.2c0.6-0.3,0.9-0.6,1.3-1.1c0.5-0.7,0.8-1.4,0.8-2
		c0-0.8-0.3-1.3-1-1.7c-0.4-0.2-1.1-0.3-1.8-0.3c-1.5,0-4.5,0.5-5.7,1L110.2,115.4z M112.4,110.7c1.5,0.6,3.6,0.9,6.1,0.9l-0.2,1.1
		c-2.4-0.1-4.3-0.4-6.3-1L112.4,110.7z"/>
	<path d="M127.9,117.2c-1,0.8-1.4,1.5-1.4,2.2c0,0.7,0.4,1.2,1.3,1.5c0.6,0.2,1.6,0.3,2.7,0.3c1.9,0,3.7-0.2,4.5-0.6l0.1,1.2
		c-0.2,0-0.2,0-0.5,0.1c-1.3,0.2-2.7,0.3-4,0.3c-1.4,0-2.7-0.2-3.4-0.5c-1.1-0.5-1.7-1.2-1.7-2.3c0-1,0.6-1.9,1.7-2.9L127.9,117.2z
		 M126.3,111.7c1.1,0.3,2.3,0.4,4,0.4c1.8,0,3-0.1,3.8-0.3l0.1,1c-0.9,0.4-2.5,1.3-3.8,2.3l-0.8-0.6c1.2-0.8,1.6-1,2.7-1.6
		c-0.9,0.2-1.4,0.2-2.3,0.2c-1,0-2.3-0.1-3.3-0.2c-0.3,0-0.3,0-0.5,0L126.3,111.7z M133.8,114.3c0.7,0.8,1.1,1.4,1.5,2.3l-0.8,0.5
		c-0.4-0.8-1.1-1.9-1.5-2.4L133.8,114.3z M135.4,113.4c0.7,0.8,1.1,1.4,1.6,2.3l-0.8,0.4c-0.3-0.7-1-1.7-1.5-2.4L135.4,113.4z"/>
	<path d="M140,113.6c0.4,0,0.6,0.1,1.2,0.1c1.4,0,3.1-0.1,4.5-0.3c-0.2-0.6-0.5-1.1-0.7-1.8c-0.2-0.4-0.3-0.6-0.4-0.9l1.2-0.2
		c0.1,0.4,0.1,0.4,0.4,1.3c0.4,1,0.4,1.1,0.5,1.3c1.3-0.2,2.5-0.5,2.8-0.7l0.2,1c-0.1,0-0.2,0-0.2,0c0,0-0.1,0-0.3,0.1
		c-0.1,0-0.3,0.1-0.4,0.1c-0.6,0.1-1,0.2-1.3,0.3c-0.2,0-0.3,0.1-0.3,0.1H147c0.6,1.3,1.8,3.1,2.7,4.4l-1,0.6
		c-0.4-0.3-0.6-0.5-1-0.6c-0.8-0.3-1.6-0.4-2.6-0.4c-1.3,0-2.2,0.2-2.8,0.6c-0.5,0.3-0.8,0.9-0.8,1.4c0,0.5,0.2,0.9,0.6,1.2
		c0.6,0.4,1.6,0.7,2.9,0.7c1.5,0,3.1-0.4,4.3-0.9l0.2,1.2c-1.5,0.5-2.9,0.8-4.4,0.8c-1.8,0-3.2-0.4-3.9-1.1
		c-0.4-0.5-0.7-1.1-0.7-1.7c0-1,0.6-1.9,1.7-2.4c0.8-0.4,1.7-0.6,2.9-0.6c1.3,0,2.5,0.2,3.1,0.5c-0.7-0.9-1.2-1.7-1.8-2.9
		c-0.1-0.2-0.2-0.3-0.2-0.3l-0.1-0.1c-1.6,0.2-3.4,0.4-5.3,0.4c-0.3,0-0.4,0-0.6,0L140,113.6z M149.6,110.2c0.7,0.8,1.1,1.4,1.6,2.3
		l-0.8,0.5c-0.4-0.8-1.2-1.9-1.6-2.3L149.6,110.2z M151.2,109.4c0.7,0.8,1.1,1.4,1.6,2.3l-0.8,0.4c-0.3-0.7-1-1.6-1.6-2.3
		L151.2,109.4z"/>
	<path d="M156.2,111.9c-0.1,0.5-0.1,1-0.1,1.8c0,1.6,0.2,3.7,0.4,4.7c0.3,1.5,0.9,2.6,1.5,2.6c0.3,0,0.5-0.3,0.8-0.8
		c0.3-0.8,0.6-1.5,0.8-2.6c0.3,0.4,0.5,0.5,0.9,0.9c-0.7,2.6-1.4,3.6-2.5,3.6c-0.8,0-1.6-0.8-2.1-2.3c-0.5-1.4-0.7-3.3-0.8-7
		c0-0.6,0-0.6,0-0.9L156.2,111.9z M163.4,112.7c1,1.2,1.6,2.1,2.1,3.4c0.6,1.3,0.9,2.3,1.1,4l-1.1,0.4c-0.3-2.8-1.4-5.4-3.1-7.4
		L163.4,112.7z"/>
	<path d="M180.4,122.4c-0.7-0.7-1.8-1.5-3.1-2.1c-0.3-0.1-0.6-0.3-1-0.5c0,0.3,0,0.3,0,0.5c0,0.8-0.1,1.3-0.4,1.6
		c-0.4,0.6-1.3,0.9-2.5,0.9c-1,0-1.8-0.2-2.3-0.6c-0.5-0.4-0.8-1-0.8-1.6c0-1,0.8-1.8,2.1-2.1c0.4-0.1,0.9-0.2,1.6-0.2
		c0.5,0,0.7,0,1.3,0.1c0,0,0,0,0-0.2c0,0,0-0.1,0-0.2c0-0.1,0-0.5,0-0.9c0-0.2,0-0.5,0-0.9c-0.5,0-1.3,0-1.8,0c-0.9,0-1.6,0-2.5-0.1
		c-0.2,0-0.3,0-0.4,0c0,0-0.1,0-0.1,0l0-1c0.7,0.1,1.9,0.2,3.4,0.2c0.4,0,0.9,0,1.3,0l0-2.1c-0.4,0-0.7,0-1,0c-1.1,0-2.3,0-3.7-0.1
		c-0.1,0-0.2,0-0.3,0c0,0-0.1,0-0.2,0l0-1c0.6,0.2,2.2,0.3,3.8,0.3c0.3,0,0.8,0,1.3,0c0-1.8,0-1.8-0.1-2.2h1.2
		c-0.1,0.3-0.1,1-0.1,2.1c2.1-0.1,3.6-0.3,4.4-0.6l0.1,1c-0.3,0-0.3,0-1,0.1c-1.4,0.2-1.8,0.3-3.5,0.4c0,1.2,0,1.2,0,2
		c2-0.2,3.3-0.3,4.2-0.6l0.1,1c-0.2,0-0.3,0-0.9,0.1c-1,0.2-2.2,0.3-3.3,0.4c0,0.8,0,0.8,0.1,2.3c1.3,0.4,2.6,1,4.2,2.2
		c0.2,0.2,0.3,0.2,0.5,0.3L180.4,122.4z M175.4,119.5c-0.6-0.1-0.9-0.2-1.5-0.2c-1.5,0-2.5,0.5-2.5,1.3s0.8,1.2,2.1,1.2
		c0.8,0,1.4-0.2,1.7-0.5c0.2-0.2,0.3-0.6,0.3-1.4L175.4,119.5z"/>
	<path d="M191.2,111.3c0-0.4,0-0.6-0.1-0.9h1.1c-0.1,0.5-0.1,0.7-0.1,1.9v0.2c2.8,0,4,0,4.5-0.1v1.1c-0.6-0.1-1.1-0.1-2.9-0.1
		c-0.2,0-0.4,0-1.6,0v3c0.3,0.6,0.4,1.1,0.4,1.8c0,1.6-0.7,2.9-2,3.9c-0.6,0.5-1.3,0.8-2.4,1.2c-0.3-0.5-0.3-0.6-0.7-0.9
		c1.2-0.4,1.8-0.7,2.4-1.1c1.1-0.8,1.6-1.8,1.7-3.2c-0.1,0.4-0.2,0.5-0.4,0.7c-0.4,0.5-1.1,0.8-1.9,0.8c-1.4,0-2.5-1-2.5-2.4
		c0-1.4,1.1-2.5,2.7-2.5c0.7,0,1.3,0.2,1.7,0.7c0-0.2,0-0.3,0-0.8c0-0.1,0-0.2,0-0.4c0-0.2,0-0.2,0-0.8c-3,0.1-6,0.2-7,0.4l0-1.1
		c0.3,0,0.4,0,0.6,0c0.4,0,0.4,0,2.9-0.1c1.4-0.1,2.6-0.1,3.6-0.1L191.2,111.3z M190.5,115.9c-0.3-0.2-0.6-0.2-1-0.2
		c-0.9,0-1.7,0.7-1.7,1.6c0,0.9,0.6,1.5,1.5,1.5c1,0,1.8-0.7,1.8-1.8C191.1,116.4,191,116.1,190.5,115.9z"/>
	<path d="M203.2,121.2c0,1.2-1,2.2-2.2,2.2s-2.2-1-2.2-2.2s1-2.2,2.2-2.2S203.2,120,203.2,121.2z M199.6,121.2
		c0,0.8,0.6,1.4,1.4,1.4c0.8,0,1.4-0.6,1.4-1.4s-0.6-1.4-1.4-1.4C200.2,119.8,199.6,120.5,199.6,121.2z"/>
	<path d="M221.7,113.6c-0.2,0-0.2,0-0.5,0.1c-1.2,0.3-1.9,0.4-2.7,0.4v2.6c1.3-0.4,2.2-0.5,3.2-0.5c1.1,0,2,0.2,2.7,0.6
		c1,0.6,1.5,1.5,1.5,2.7c0,1.8-1.3,3.1-3.1,3.1c-1.2,0-2-0.6-2.3-1.7c-0.1-0.5-0.2-0.9-0.2-1.7c0.5-0.1,0.6-0.2,1-0.4
		c0,0.3,0,0.4,0,0.6c0,1.6,0.4,2.2,1.5,2.2c1.2,0,2-0.9,2-2.1c0-1.5-1.2-2.4-3.2-2.4c-1,0-1.9,0.2-3.2,0.6v3.8
		c0,0.8-0.4,1.2-1.1,1.2c-0.8,0-1.8-0.4-2.5-1c-0.5-0.4-0.7-0.9-0.7-1.4c0-0.7,0.4-1.3,1.2-2c0.6-0.5,1.2-0.8,2.1-1.2v-2.8
		c-0.1,0-0.1,0-0.6,0c-0.3,0-0.5,0-1,0c-0.2,0-0.6,0-0.8,0c-0.2,0-0.3,0-0.3,0c-0.1,0-0.2,0-0.3,0v-1c0.4,0.1,0.9,0.1,1.5,0.1
		c0.4,0,1,0,1.4,0v-1.5c0-0.6,0-1-0.1-1.4h1.1c-0.1,0.4-0.1,0.7-0.1,1.4v1.4c1.3-0.2,2.2-0.4,3.1-0.6L221.7,113.6z M217.7,118.1
		c-1.5,0.7-2.3,1.5-2.3,2.2c0,0.3,0.2,0.6,0.6,0.9c0.4,0.3,0.9,0.4,1.3,0.4c0.3,0,0.3-0.1,0.3-0.7V118.1z M225.9,115.2
		c-0.8-1.1-1.9-2.1-3-2.9l0.8-0.6c1.4,1,2.1,1.7,3,2.9L225.9,115.2z"/>
	<path d="M231.2,120.2c0-0.3,0-0.6,0-0.9c-0.8,0.3-1.1,0.4-2.2,0.6c-0.1-0.4-0.3-0.6-0.5-0.9c2.4-0.4,4.2-1.1,6.2-2.2
		c-0.8-0.5-1.3-1-2-1.7c-0.9,0.8-1.5,1.3-2.9,2.1c-0.2-0.3-0.3-0.5-0.6-0.7c1.3-0.6,2-1.1,2.9-1.9c0.7-0.6,1.4-1.5,1.7-2.1l1,0.3
		c-0.1,0.1-0.1,0.1-0.2,0.2c0,0-0.1,0.1-0.2,0.2c-0.1,0.1-0.1,0.1-0.4,0.4h3.3c0.6,0,1,0,1.4-0.1l0.6,0.5c-0.1,0.1-0.1,0.1-0.3,0.3
		c-0.8,0.9-1.9,1.8-2.8,2.4c1.8,1,3.6,1.6,6,2c-0.2,0.4-0.3,0.6-0.5,1c-1-0.2-1.3-0.3-2.1-0.6c0,0.3,0,0.5,0,0.9v2.1
		c0,0.5,0,0.9,0.1,1.3h-1V123h-6.6v0.6h-1c0.1-0.4,0.1-0.9,0.1-1.3V120.2z M234.8,111.1c0-0.4,0-0.7-0.1-1.1h1.2
		c-0.1,0.3-0.1,0.7-0.1,1.1v0.4h4.2c0.7,0,1.1,0,1.7-0.1c0,0.3-0.1,0.6-0.1,1v0.9c0,0.5,0,0.7,0.1,1.1h-1v-2h-10.6v2h-1
		c0-0.4,0.1-0.6,0.1-1v-0.8c0-0.4,0-0.7-0.1-1c0.5,0.1,1,0.1,1.6,0.1h4.1V111.1z M238.4,119.1c0.3,0,0.5,0,0.7,0
		c-1.4-0.5-2.3-0.9-3.6-1.7c-1.1,0.7-2,1.1-3.6,1.7c0.2,0,0.3,0,0.6,0H238.4z M232.2,122.2h6.6v-2.3h-6.6V122.2z M233.3,114.5
		c0.6,0.7,1.2,1.2,2.2,1.8c0.8-0.6,1.3-1,2.3-1.9h-4.4L233.3,114.5z"/>
	<path d="M245.7,111.6c0-0.9,0-1.2-0.1-1.6h1.1c-0.1,0.4-0.1,0.8-0.1,1.5v1.5h0.6c0.4,0,0.7,0,0.9-0.1v0.9c-0.3,0-0.6,0-0.9,0h-0.5
		c0.3,0.8,0.8,1.7,1.4,2.4c-0.2,0.3-0.3,0.5-0.5,0.8c-0.5-0.8-0.7-1.3-1-2.1c0,1.3,0.1,1.9,0.1,2.4v4.5c0,0.8,0,1.3,0.1,1.7h-1.1
		c0.1-0.4,0.1-1,0.1-1.7v-4.2c0-0.6,0-0.6,0-1.3c0-0.1,0-0.4,0-0.7c0-0.1,0-0.3,0-0.6c-0.3,1.4-0.5,1.9-1,2.9c-0.3,0.6-0.5,1-1,1.7
		c-0.1-0.3-0.3-0.6-0.6-0.9c0.6-0.7,1-1.4,1.4-2.4c0.4-0.9,0.7-1.8,0.8-2.6h-0.8c-0.5,0-0.8,0-1,0.1V113c0.3,0,0.6,0.1,1,0.1h0.9
		V111.6z M249.7,112.9c-0.6,0-0.9,0-1.3,0.1v-0.9c0.4,0.1,0.7,0.1,1.3,0.1h0.8c-0.2-0.6-0.5-1-1-1.6l0.8-0.3c0.5,0.7,0.8,1.3,1.1,2
		h1.7c0.5-0.8,0.8-1.3,1-2l0.9,0.3c-0.2,0.5-0.7,1.3-1,1.7h1.3c0.6,0,1,0,1.4-0.1v1c-0.4-0.1-0.8-0.1-1.4-0.1h-2.7v1.3h2.3
		c0.6,0,1,0,1.4-0.1v1c-0.4-0.1-0.7-0.1-1.4-0.1h-2.3v1.4h2.9c0.6,0,1,0,1.4-0.1v1c-0.4-0.1-0.8-0.1-1.4-0.1h-2.9
		c0.4,1,0.7,1.5,1.2,2.2c0.7-0.6,1.1-1.1,1.6-1.9l0.8,0.5c-0.7,0.9-1.2,1.4-1.9,2c0.8,0.9,1.6,1.5,2.8,2.1c-0.3,0.3-0.4,0.5-0.6,0.9
		c-0.9-0.6-1.6-1.1-2.2-1.7c-0.8-0.9-1.3-1.6-2-3.1c0.1,0.9,0.1,1.2,0.1,1.5v2.8c0,0.8-0.3,1-1.4,1c-0.4,0-0.8,0-1.2-0.1
		c0-0.4-0.1-0.6-0.3-0.9c0.6,0.1,1,0.1,1.5,0.1c0.4,0,0.5-0.1,0.5-0.3v-2.1c-1.4,1-1.4,1-3.2,1.9c-0.2,0.1-0.5,0.3-0.7,0.4l-0.4-1
		c1.1-0.3,2.6-1.1,4.3-2.3v-2.2h-2.3c-0.6,0-0.9,0-1.3,0.1v-0.9c0.4,0,0.7,0.1,1.3,0.1h2.3V115h-1.7c-0.7,0-0.9,0-1.3,0.1v-1
		c0.4,0.1,0.7,0.1,1.3,0.1h1.7v-1.3H249.7z M249.1,117.5c0.6,0.6,0.9,1.1,1.4,1.8l-0.7,0.5c-0.5-0.8-0.8-1.2-1.4-1.8L249.1,117.5z"
		/>
	<path d="M259,114.3c0.5,0,1.1-0.1,3.3-0.4c0.3-1.1,0.5-2.5,0.5-3.2c0,0,0-0.1,0-0.2l1.2,0.1c-0.1,0.3-0.2,0.6-0.3,1.4
		c-0.1,0.4-0.2,1.1-0.3,1.7c0.3,0,0.5,0,0.9,0c1.1,0,1.7,0.2,2.2,0.6c0.5,0.5,0.7,1.2,0.7,2.4c0,2.3-0.4,4.3-1,5.2
		c-0.4,0.5-0.8,0.7-1.5,0.7c-0.6,0-1.3-0.2-2.3-0.6c0-0.2,0-0.3,0-0.5c0-0.2,0-0.3,0-0.6c0.9,0.4,1.7,0.7,2.2,0.7
		c0.4,0,0.7-0.2,0.9-0.7c0.4-1,0.6-2.5,0.6-4.2c0-1.6-0.5-2.1-1.8-2.1c-0.3,0-0.5,0-1.1,0.1c-0.6,2.8-1.7,5.4-3.2,8.2l-1-0.6
		c1.2-1.6,2.5-4.6,3.2-7.5c-1.9,0.3-2.3,0.3-3,0.5L259,114.3z M268.9,112.9c1.5,1.6,2.5,3.3,3.1,5.3l-1,0.5c-0.5-1.9-1.7-4-3.1-5.4
		L268.9,112.9z M269.6,110.3c0.7,0.8,1.1,1.4,1.5,2.3l-0.8,0.5c-0.4-0.8-1.1-1.9-1.5-2.4L269.6,110.3z M271.3,109.5
		c0.7,0.8,1,1.4,1.5,2.3l-0.8,0.4c-0.3-0.7-0.9-1.7-1.5-2.4L271.3,109.5z"/>
	<path d="M277.9,117.2c-1,0.8-1.4,1.5-1.4,2.2c0,0.7,0.4,1.2,1.3,1.5c0.6,0.2,1.6,0.3,2.7,0.3c1.9,0,3.7-0.2,4.5-0.6l0.1,1.2
		c-0.2,0-0.2,0-0.5,0.1c-1.3,0.2-2.7,0.3-4,0.3c-1.4,0-2.7-0.2-3.5-0.5c-1.1-0.5-1.7-1.2-1.7-2.3c0-1,0.6-1.9,1.7-2.9L277.9,117.2z
		 M276.3,111.7c1.1,0.3,2.3,0.4,4,0.4c1.8,0,3-0.1,3.8-0.3l0.1,1c-0.9,0.4-2.5,1.3-3.8,2.3l-0.8-0.6c1.2-0.8,1.6-1,2.7-1.6
		c-0.9,0.2-1.4,0.2-2.3,0.2c-1,0-2.3-0.1-3.3-0.2c-0.3,0-0.3,0-0.5,0L276.3,111.7z M283.8,114.3c0.7,0.8,1.1,1.4,1.5,2.3l-0.8,0.5
		c-0.4-0.8-1.1-1.9-1.5-2.4L283.8,114.3z M285.4,113.4c0.7,0.8,1.1,1.4,1.6,2.3l-0.8,0.4c-0.3-0.7-1-1.7-1.5-2.4L285.4,113.4z"/>
	<path d="M290.9,120.5c-0.4,1.4-0.8,2.1-1.5,3.1c-0.3-0.3-0.4-0.4-0.7-0.6c0.7-0.9,1.1-1.6,1.4-2.9L290.9,120.5z M290.4,119.7
		c-0.5,0-0.8,0-1.2,0c0-0.3,0-0.8,0-1.5v-6c0-0.7,0-1.2-0.1-1.6c0.4,0,0.7,0,1.2,0h1.5c0.5,0,0.8,0,1.2,0c0,0.3,0,0.6,0,1.5v6.1
		c0,0.8,0,1.2,0,1.5c-0.3,0-0.6,0-1.2,0H290.4z M290.1,113.4h2.1v-1.9h-2.1V113.4z M290.1,116h2.1v-1.9h-2.1V116z M290.1,118.9h2.1
		v-2.1h-2.1V118.9z M292.2,120.1c0.3,1.1,0.7,1.7,1.3,2.6c-0.3,0.1-0.4,0.2-0.7,0.5c-0.6-1-0.9-1.6-1.3-2.8L292.2,120.1z
		 M294.9,115.6c-0.7,0-1,0-1.4,0.1v-0.9c0.4,0.1,0.7,0.1,1.4,0.1h0.9v-1.1h-0.5c-0.6,0-0.9,0-1.2,0.1V113c0.4,0,0.6,0.1,1.2,0.1h0.5
		v-1H295c-0.6,0-0.9,0-1.3,0.1v-0.9c0.4,0.1,0.7,0.1,1.3,0.1h0.8c0-0.6,0-0.9-0.1-1.2h1c-0.1,0.3-0.1,0.6-0.1,1.2h2.3
		c0-0.7,0-0.9-0.1-1.2h1c-0.1,0.3-0.1,0.7-0.1,1.2h1c0.6,0,1,0,1.3-0.1v0.9c-0.4-0.1-0.7-0.1-1.3-0.1h-1v1h0.7c0.6,0,0.9,0,1.2-0.1
		v0.8c-0.3-0.1-0.7-0.1-1.2-0.1h-0.6v1.1h1c0.7,0,1,0,1.4-0.1v0.9c-0.4-0.1-0.7-0.1-1.4-0.1h-2.6v1h1.8c0.6,0,1.1,0,1.5-0.1
		c0,0.3-0.1,0.8-0.1,1.5v2.4c0.4,0,0.6,0,0.9-0.1v0.9c-0.3,0-0.4,0-0.9-0.1v1.2c0,0.9-0.3,1.2-1.4,1.2c-0.5,0-0.8,0-1.5,0
		c0-0.4-0.1-0.6-0.2-0.9c0.6,0.1,1.1,0.1,1.5,0.1c0.5,0,0.6-0.1,0.6-0.4v-1.2h-5.3v0.9c0,1,0,1.2,0.1,1.6h-1c0-0.5,0.1-0.9,0.1-1.6
		v-0.9c-0.5,0-0.6,0-1,0.1v-0.9c0.3,0,0.6,0.1,1,0.1v-2.3c0-0.6,0-0.9-0.1-1.5c0.4,0,0.8,0,1.6,0h1.4v-1H294.9z M297.3,117.4h-2.2
		v1.1h2.2V117.4z M297.3,119.2h-2.2v1.2h2.2V119.2z M296.6,113h2.3v-1h-2.3V113z M296.6,114.9h2.3v-1.1h-2.3V114.9z M300.4,118.5
		v-1.1h-2.3v1.1H300.4z M300.4,120.4v-1.2h-2.3v1.2H300.4z"/>
	<path d="M307.7,111.9c-0.3,0-0.6,0-1.1,0.1v-1.1c0.3,0.1,0.6,0.1,1.1,0.1h2c0.7,0,1.1,0,1.4-0.1c0,0.4-0.1,0.7-0.1,1
		c0,1.9,0.4,3.6,1.3,5.2c0.6,1.1,1.3,2.1,2.2,3.1c0.9,0.9,1.5,1.4,2.8,2.2c-0.4,0.3-0.5,0.4-0.8,1c-1.3-0.9-2-1.5-2.9-2.6
		c-0.9-1-1.6-2.1-2.1-3.2c-0.5-0.9-0.7-1.6-0.9-2.8c-0.5,2-1.1,3.4-2.1,4.9c-0.6,0.8-1.2,1.6-2,2.3c-0.6,0.5-0.9,0.8-1.9,1.5
		c-0.2-0.4-0.4-0.6-0.8-0.9c1.6-1,2.5-1.8,3.5-3c1.1-1.3,1.8-2.8,2.3-4.4c0.3-1,0.4-1.8,0.5-3.3H307.7z"/>
	<path d="M320.1,113.5c0.4,0.1,0.6,0.1,1.2,0.1c1.4,0,3.1-0.1,4.5-0.3c-0.2-0.5-0.5-1.1-0.7-1.8c-0.2-0.4-0.3-0.6-0.4-0.9l1.2-0.2
		c0.1,0.4,0.1,0.4,0.4,1.3c0.4,1,0.4,1,0.5,1.3c1.5-0.2,2.8-0.6,3.6-0.9l0.2,1.1c-0.3,0.1-0.4,0.1-0.9,0.2c-0.9,0.2-1.1,0.3-2,0.5
		c-0.4,0.1-0.4,0.1-0.5,0.1c0.5,1.2,1.7,3,2.7,4.4l-1,0.6c-0.4-0.3-0.6-0.5-1-0.6c-0.8-0.3-1.6-0.4-2.6-0.4c-1.3,0-2.2,0.2-2.8,0.6
		c-0.5,0.3-0.8,0.9-0.8,1.4c0,0.5,0.2,0.9,0.6,1.2c0.6,0.4,1.6,0.7,2.9,0.7c1.5,0,3.1-0.4,4.3-1l0.2,1.2c-1.5,0.6-2.9,0.8-4.4,0.8
		c-1.8,0-3.2-0.4-3.9-1.1c-0.4-0.5-0.7-1-0.7-1.6c0-1,0.6-1.9,1.7-2.4c0.8-0.4,1.7-0.6,2.9-0.6c1.3,0,2.5,0.2,3.1,0.5
		c-0.8-1.1-1.2-1.7-1.8-2.9c-0.2-0.3-0.2-0.3-0.3-0.5c-1.5,0.2-3.4,0.4-5.3,0.4c-0.3,0-0.4,0-0.6,0L320.1,113.5z"/>
	<path d="M18.9,145.6c0.4-0.3,1.5-1.3,2.6-2.5c0-0.6,0-1.5,0.1-2.9c-2,0.1-2,0.1-2.4,0.2l-0.1-1c0.2,0,0.3,0,0.5,0c0,0,0.7,0,2-0.1
		c0-1.1,0.1-1.8,0.1-2c0-0.3,0-0.4,0-0.8l1.2,0c-0.1,0.4-0.1,0.8-0.2,2.7c0.1,0,0.2,0,0.3-0.1l0.4,0.5c-0.2,0.2-0.4,0.4-0.8,0.9
		c0,0.2,0,0.3,0,0.4c0,0.3,0,0.3,0,1c0,0,0,0.1,0,0.1c0,0.1,0,0.1,0,0.2l0,0c0.2-0.3,0.7-0.8,1.9-1.8c1.4-1.1,2.5-1.6,3.4-1.6
		c1.1,0,1.8,0.7,1.8,1.8c0,0.5-0.1,1.1-0.3,2.2c-0.6,2.4-0.6,2.9-0.6,3.6c0,0.7,0.3,1.1,0.9,1.1c0.4,0,0.9-0.3,1.3-0.8
		c0.4-0.5,0.7-1.1,0.9-1.7c0.3,0.6,0.4,0.7,0.7,1c-0.4,0.8-0.6,1.1-0.9,1.5c-0.6,0.7-1.3,1.1-2.1,1.1c-0.4,0-0.8-0.1-1-0.3
		c-0.5-0.3-0.7-0.9-0.7-1.7c0-0.8,0-0.9,0.6-3.5c0.3-1.4,0.4-1.8,0.4-2.2c0-0.5-0.3-0.8-0.8-0.8c-0.6,0-1.3,0.3-2.3,1
		c-0.9,0.7-1.3,1-2.9,2.5v3.2c0,1.9,0,2,0,2.5h-1.2c0.1-0.6,0.1-0.6,0.1-2.5c0-1.8,0-1.8,0-2.4h0c-0.1,0.1-0.1,0.2-0.3,0.4
		c-0.2,0.3-0.2,0.3-0.7,0.8c-0.2,0.2-0.4,0.4-0.6,0.7c-0.2,0.3-0.3,0.3-0.4,0.5L18.9,145.6z"/>
	<path d="M45.4,148.4c-0.7-0.7-1.8-1.5-3.1-2.1c-0.3-0.1-0.6-0.3-1-0.5c0,0.3,0,0.3,0,0.5c0,0.8-0.1,1.3-0.4,1.6
		c-0.4,0.6-1.4,0.9-2.5,0.9c-1,0-1.8-0.2-2.3-0.6c-0.5-0.4-0.8-1-0.8-1.6c0-1,0.8-1.8,2.1-2.1c0.4-0.1,0.9-0.2,1.6-0.2
		c0.5,0,0.7,0,1.3,0.1c0,0,0,0,0-0.2c0,0,0-0.1,0-0.2c0-0.1,0-0.5,0-0.9c0-0.2,0-0.5,0-0.9c-0.5,0-1.3,0-1.8,0c-0.9,0-1.6,0-2.5-0.1
		c-0.2,0-0.3,0-0.4,0c0,0-0.1,0-0.1,0l0-1c0.7,0.1,1.9,0.2,3.4,0.2c0.4,0,0.9,0,1.3,0l0-2.1c-0.4,0-0.7,0-1,0c-1.1,0-2.3,0-3.7-0.1
		c-0.1,0-0.2,0-0.3,0c0,0-0.1,0-0.2,0l0-1c0.6,0.2,2.2,0.3,3.8,0.3c0.3,0,0.8,0,1.3,0c0-1.8,0-1.8-0.1-2.2h1.2
		c-0.1,0.3-0.1,1-0.1,2.1c2.1-0.1,3.6-0.3,4.4-0.6l0.1,1c-0.3,0-0.3,0-1,0.1c-1.4,0.2-1.8,0.3-3.5,0.4c0,1.2,0,1.2,0,2
		c2-0.2,3.3-0.3,4.2-0.6l0.1,1c-0.2,0-0.3,0-0.9,0.1c-1,0.2-2.2,0.3-3.3,0.4c0,0.8,0,0.8,0.1,2.3c1.3,0.4,2.6,1,4.2,2.2
		c0.2,0.2,0.3,0.2,0.5,0.3L45.4,148.4z M40.4,145.6c-0.6-0.1-0.9-0.2-1.5-0.2c-1.5,0-2.5,0.5-2.5,1.3s0.8,1.2,2.1,1.2
		c0.8,0,1.4-0.2,1.6-0.5c0.2-0.2,0.3-0.6,0.3-1.4L40.4,145.6z"/>
	<path d="M52.7,136.9c-0.1,0.5-0.1,1.3-0.2,3.2c-0.1,1.8-0.1,3.8-0.1,4.5c0,0.2,0,0.6,0,0.9c0.1,0.9,0.3,1.4,0.7,1.8
		c0.4,0.4,1.1,0.6,1.9,0.6c1.8,0,3.2-0.9,4-2.6c0.3-0.7,0.5-1.3,0.7-2.4c0.4,0.4,0.6,0.5,1.1,0.7c-0.6,1.8-1,2.6-1.7,3.4
		c-1.1,1.3-2.5,1.9-4.2,1.9c-1.3,0-2.2-0.4-2.8-1c-0.6-0.7-0.8-1.5-0.8-3.1c0-1,0-1.4,0.1-6.1c0-0.4,0-0.7,0-1c0-0.3,0-0.5-0.1-0.8
		H52.7z"/>
	<path d="M64.6,139.1c0.5,0.1,1.1,0.1,1.9,0.1c0.3,0,0.5,0,0.9,0c0.3-1.8,0.3-2.1,0.3-2.8l1.2,0.1c-0.1,0.4-0.1,0.4-0.3,1.4
		c-0.1,0.5-0.1,0.7-0.2,1.1c1.2-0.1,2-0.3,2.7-0.5l0.1,1c-0.1,0-0.1,0-0.4,0.1c-0.8,0.2-1.8,0.3-2.5,0.4c-0.2,1.2-0.6,2.9-1,4.2
		c-0.5,1.6-0.9,2.7-1.7,4.6l-1.1-0.5c1.1-1.9,2.3-5.4,2.8-8.3c-0.3,0-0.5,0-1,0c-0.5,0-0.7,0-1.2,0c0,0-0.1,0-0.1,0c0,0-0.1,0-0.3,0
		V139.1z M71.3,144.6c-0.3,0.4-0.3,0.4-0.5,0.6c-0.2,0.3-0.4,0.7-0.4,1.1c0,0.9,0.9,1.4,2.6,1.4c1.1,0,2.5-0.2,3.3-0.5l0.1,1.1
		c-0.2,0-0.2,0-0.7,0.1c-1,0.2-1.9,0.3-2.7,0.3c-2.5,0-3.7-0.8-3.7-2.2c0-0.7,0.2-1.1,1-2.2L71.3,144.6z M75.9,142
		c-0.7-0.1-1.1-0.1-1.8-0.1c-1.3,0-2.4,0.1-3.7,0.5l-0.1-1c1.7-0.4,2.7-0.5,4-0.5c0.3,0,0.5,0,1.6,0L75.9,142z"/>
	<path d="M90.1,137.7c-0.2,0-0.2,0-0.5,0.1c-1.1,0.4-2.1,0.7-3.3,0.9c0,1.4,0,2.4,0,3h3.6c0.9,0,1.1,0,1.6-0.1v1.1
		c-0.5-0.1-0.8-0.1-1.6-0.1h-3.7c-0.1,1.4-0.4,2.4-1,3.3c-0.8,1.3-1.9,2.2-3.7,3.1c-0.3-0.5-0.4-0.6-0.8-0.9
		c1.6-0.6,2.8-1.5,3.5-2.6c0.6-0.8,0.8-1.6,0.9-2.9h-4.2c-0.8,0-1,0-1.6,0.1v-1.1c0.5,0.1,0.7,0.1,1.6,0.1h4.3c0-0.7,0-1.5,0-2.8
		c-0.9,0.2-2.2,0.3-4.4,0.4c-0.1-0.4-0.1-0.5-0.4-1c0.4,0,0.6,0,0.9,0c1.9,0,4.4-0.4,6.3-0.9c0.8-0.3,1.2-0.4,1.7-0.7L90.1,137.7z"
		/>
	<path d="M102.6,140.3c-0.2,2.2-0.3,3.1-0.8,4.2c-0.5,1.2-1.4,2.3-2.6,3.1c-0.6,0.5-1.2,0.8-2.3,1.3c-0.2-0.5-0.3-0.6-0.7-1
		c1.3-0.5,2.2-1.1,3.2-1.9c1.4-1.3,2-3,2.1-5.8h-4.1c-0.9,1.4-1.5,2.2-2.6,3.2c-0.3-0.3-0.4-0.5-0.9-0.7c1.4-1.1,2.4-2.4,3.2-4.1
		c0.4-1,0.6-1.5,0.8-2.1l1.1,0.4c-0.1,0.3-0.2,0.3-0.4,0.8c-0.3,0.8-0.6,1.3-0.8,1.6c0.2,0,0.2,0,7,0c0.9,0,1.2,0,1.8-0.1v1.1
		c-0.4,0-0.4,0-1.9,0H102.6z"/>
	<path d="M111.6,140.3c0.6,1,0.9,1.7,1.5,3.3l-1,0.3c-0.4-1.3-0.8-2.3-1.4-3.4L111.6,140.3z M120.1,140.2c-0.1,0.2-0.1,0.2-0.3,1.2
		c-0.2,1.1-0.8,2.4-1.3,3.4c-1.1,1.8-2.6,3.2-5,4.3c-0.2-0.4-0.3-0.5-0.7-0.8c2.3-1,3.7-2.2,4.8-3.9c0.6-0.9,1-2.1,1.3-3.2
		c0.1-0.5,0.2-0.8,0.2-1v-0.1c0,0,0,0,0-0.1L120.1,140.2z M114.7,139.7c0.8,1.4,1.1,2,1.5,3.2l-1,0.3c-0.3-1.1-0.7-2.2-1.4-3.3
		L114.7,139.7z"/>
	<path d="M127.3,149c0.1-0.4,0.1-0.8,0.1-1.6v-9.3c0-0.8,0-1.2-0.1-1.5h1.3c-0.1,0.4-0.1,0.7-0.1,1.6v2.8c2.3,0.8,4,1.6,6.7,3.2
		l-0.6,1.1c-1.4-1-3.5-2.1-5.6-3c-0.2-0.1-0.3-0.1-0.5-0.3l0,0c0,0.3,0.1,0.5,0.1,0.9v4.5c0,0.8,0,1.2,0.1,1.6H127.3z"/>
	<path d="M144.7,144.6c-0.9,2-1.8,2.9-2.8,2.9c-1.4,0-2.5-1.6-2.5-3.7c0-1.5,0.6-3,1.6-4.1c1.2-1.3,2.8-2,4.8-2
		c1.7,0,3.1,0.5,4.1,1.5c0.9,0.9,1.5,2.2,1.5,3.7c0,2.3-1.3,4.2-3.4,5.2c-0.7,0.3-1.2,0.5-2.3,0.7c-0.1-0.5-0.2-0.6-0.5-1
		c1.1-0.2,1.8-0.4,2.5-0.7c1.6-0.8,2.7-2.4,2.7-4.2c0-1.7-0.9-3.1-2.4-3.8c-0.6-0.2-1-0.3-1.7-0.4C146,140.7,145.4,143,144.7,144.6z
		 M142.9,139.3c-1.5,0.9-2.4,2.6-2.4,4.5c0,1.4,0.6,2.5,1.4,2.5c0.6,0,1.2-0.7,1.9-2.2c0.6-1.4,1.2-3.6,1.4-5.5
		C144.2,138.7,143.6,138.9,142.9,139.3z"/>
	<path d="M153.4,142.9c0.5-1.4,0.5-1.9,0.6-4l0.8,0.2c-0.1,1.9-0.2,2.6-0.6,4.1L153.4,142.9z M155.4,149.7c0.1-0.5,0.1-1.1,0.1-1.7
		v-10.4c0-0.6,0-1-0.1-1.5h1.2c-0.1,0.5-0.1,0.9-0.1,1.5V148c0,0.6,0,1.2,0.1,1.7H155.4z M157.3,140.7c-0.2-0.8-0.4-1.3-0.7-2
		l0.7-0.3c0.3,0.6,0.5,1.1,0.8,2L157.3,140.7z M159.4,138c-0.7,0-1,0-1.4,0.1v-0.9c0.4,0.1,0.7,0.1,1.4,0.1h2.2c0-0.6,0-0.8-0.1-1.2
		h1.1c-0.1,0.4-0.1,0.6-0.1,1.2h2.8c0.8,0,1.1,0,1.5-0.1v0.9c-0.4-0.1-0.8-0.1-1.5-0.1h-2.8v1h2.3c0.6,0,1,0,1.4-0.1v0.9
		c-0.4-0.1-0.8-0.1-1.4-0.1h-2.3v1.1h3c0.7,0,1.1,0,1.5-0.1v1c-0.5-0.1-0.9-0.1-1.5-0.1h-6.4c-0.7,0-1.1,0-1.5,0.1v-1
		c0.4,0.1,0.8,0.1,1.5,0.1h2.5v-1.1h-1.8c-0.6,0-0.9,0-1.4,0.1v-0.9c0.4,0.1,0.8,0.1,1.4,0.1h1.8v-1H159.4z M159.5,148
		c0,0.8,0,1.2,0.1,1.6h-1.1c0.1-0.4,0.1-0.8,0.1-1.6v-4.2c0-0.7,0-0.9,0-1.3c0.4,0,0.8,0.1,1.4,0.1h4.6c0.7,0,1.1,0,1.4-0.1
		c0,0.4-0.1,0.8-0.1,1.6v4.3c0,0.9-0.3,1.2-1.4,1.2c-0.4,0-0.9,0-1.5-0.1c0-0.4-0.1-0.6-0.2-0.9c0.7,0.1,1.3,0.2,1.7,0.2
		c0.5,0,0.6-0.1,0.6-0.4v-1.2h-5.4V148z M165,144.5v-1.1h-5.4v1.1H165z M165,146.3v-1.1h-5.4v1.1H165z"/>
	<path d="M174.2,140.2c0.6,0,0.8,0,1.2-0.1v1c-0.4,0-0.6-0.1-1.2-0.1H170c-0.6,0-0.8,0-1.2,0.1v-1c0.4,0.1,0.6,0.1,1.2,0.1h1.8v-1.5
		h-1.4c-0.5,0-0.8,0-1.1,0.1v-0.9c0.3,0,0.6,0.1,1.1,0.1h1.4v-0.5c0-0.5,0-0.9-0.1-1.3h1.1c-0.1,0.5-0.1,0.8-0.1,1.3v0.5h1.2
		c0.5,0,0.8,0,1.1-0.1v0.9c-0.4,0-0.6-0.1-1.1-0.1h-1.2v1.5H174.2z M174.2,143.5c0.6,0,0.9,0,1.2-0.1v1c-0.3,0-0.7-0.1-1.2-0.1h-1.6
		v1.5h1.4c0.5,0,0.8,0,1.1-0.1v1c-0.4,0-0.6-0.1-1.1-0.1h-1.4v1.5c0,0.5,0,0.9,0.1,1.4h-1.1c0.1-0.5,0.1-0.9,0.1-1.4v-1.5h-1.5
		c-0.5,0-0.8,0-1.1,0.1v-1c0.3,0,0.6,0.1,1.1,0.1h1.5v-1.5H170c-0.5,0-0.8,0-1.2,0.1v-1c0.4,0.1,0.6,0.1,1.2,0.1h2.8
		c0.5-1,0.6-1.4,0.8-2.4l0.8,0.2c-0.3,0.9-0.5,1.4-0.8,2.1H174.2z M170.5,143.3c-0.1-0.7-0.3-1.3-0.6-2l0.8-0.2
		c0.3,0.8,0.4,1.1,0.6,1.9L170.5,143.3z M176.7,142.3v5.9c0,0.6,0,1,0.1,1.5h-1.1c0.1-0.6,0.1-0.9,0.1-1.5v-10.1c0-0.5,0-1-0.1-1.4
		c0.4,0.1,0.8,0.1,1.4,0.1h3.5c0.6,0,1,0,1.3-0.1c0,0.3,0,0.3-0.1,1.1c-0.1,1.1-0.3,1.8-0.5,2.1c-0.2,0.3-0.5,0.4-1.3,0.4
		c-0.5,0-0.9,0-1.5-0.1c0-0.4-0.1-0.6-0.2-0.9c0.7,0.1,1.3,0.2,1.7,0.2c0.6,0,0.6-0.2,0.8-1.9h-4.2v3.8h3.3c0.6,0,1,0,1.2-0.1
		l0.5,0.6c-0.1,0.2-0.1,0.3-0.2,0.6c-0.3,1.4-0.9,2.8-1.5,4c0.8,0.9,1.4,1.4,2.5,2.2c-0.3,0.3-0.4,0.5-0.6,0.8
		c-1-0.7-1.6-1.3-2.4-2.2c-0.6,0.9-1.1,1.5-2,2.2c-0.2-0.3-0.4-0.5-0.7-0.8c0.9-0.7,1.5-1.4,2.1-2.2c-0.8-1.1-1.3-2.3-1.8-4.3H176.7
		z M178,142.3c0.5,1.9,0.7,2.5,1.4,3.5c0.5-1,0.9-2,1.2-3.5H178z"/>
	<path d="M186.9,137c-0.6,1.5-1.2,4.6-1.2,7c0,0.5,0,1.4,0.1,2.1c0,0.1,0,0.1,0,0.4c0,0.1,0,0.1,0,0.3l0.1,0
		c0.3-1.1,0.4-1.4,0.9-2.6c0.1-0.1,0.1-0.2,0.1-0.3l0.7,0.3c-0.7,1.5-1.3,3.4-1.3,4.3c0,0.1,0,0.1,0,0.3l-1.1,0.1
		c0-0.1,0-0.2-0.1-0.6c-0.3-1.4-0.4-2.9-0.4-4.5c0-2,0.2-3.6,0.8-6.2c0.1-0.7,0.2-0.8,0.2-0.9L186.9,137z M188.4,139.8
		c0.7,0.2,1.4,0.2,2.7,0.2c0.6,0,1,0,1.6,0c0-1.4,0-1.4,0-2.5c0-0.3,0-0.5,0-0.6h1.1c-0.1,0.4-0.1,1.1-0.1,2.4c0,0.2,0,0.4,0,0.7
		c1.2-0.1,2-0.3,2.6-0.6l0,1c0,0,0,0-1,0.2c-0.4,0.1-0.8,0.1-1.6,0.2c0,1.5,0,2.2,0.2,4.2c1.1,0.5,1.5,0.7,2.5,1.5
		c0.2,0.1,0.2,0.1,0.4,0.3l-0.5,1.1c-0.5-0.5-1.1-0.9-2.1-1.6c-0.1,0-0.1,0-0.1-0.1c-0.1,0-0.1,0-0.1-0.1c0,0.2,0,0.3,0,0.4
		c0,0.4-0.1,0.8-0.2,1c-0.4,0.8-1.3,1.3-2.5,1.3c-1.7,0-2.8-0.8-2.8-2.1c0-1.2,1.2-2.1,2.9-2.1c0.6,0,1.3,0.1,1.7,0.3
		c0-0.3-0.1-1.7-0.1-3.9c-0.7,0-1.1,0-1.7,0c-0.6,0-1.2,0-1.7,0c-0.3,0-0.4,0-0.5,0c-0.1,0-0.2,0-0.3,0c-0.1,0-0.1,0-0.2,0
		c0,0,0,0-0.1,0L188.4,139.8z M191.3,145.4c-1.2,0-1.9,0.5-1.9,1.2c0,0.7,0.7,1.2,1.7,1.2c0.7,0,1.2-0.2,1.5-0.5
		c0.2-0.2,0.3-0.6,0.3-1.2c0-0.1,0-0.5,0-0.5C192.3,145.5,191.9,145.4,191.3,145.4z"/>
	<path d="M200.5,137.9c-0.7,0-1.2,0-1.8,0.1v-1.1c0.5,0.1,1,0.1,1.8,0.1h9.7c0.7,0,1.2,0,1.7-0.1v1.1c-0.5-0.1-1-0.1-1.7-0.1h-4.7
		v1.7c3,1.5,3.5,1.8,5.3,3.1l-0.6,0.9c-1-0.8-1.8-1.3-3.2-2.1c-0.3-0.2-0.3-0.2-1.6-0.8v7.1c0,0.8,0,1.3,0.1,1.8h-1.2
		c0.1-0.5,0.1-1,0.1-1.8v-9.9H200.5z"/>
	<path d="M213.8,138.7c0.3,0.1,0.6,0.1,1.2,0.1h3.4c0.6,0,0.9,0,1.2-0.1v1c-0.3,0-0.6-0.1-1.1-0.1H215c-0.5,0-0.8,0-1.2,0.1V138.7z
		 M214.3,136.6c0.4,0.1,0.6,0.1,1.1,0.1h2.4c0.5,0,0.8,0,1.1-0.1v0.9c-0.3,0-0.7-0.1-1.1-0.1h-2.4c-0.5,0-0.8,0-1.1,0.1V136.6z
		 M214.4,140.8c0.3,0,0.6,0.1,1.1,0.1h2.5c0.5,0,0.8,0,1.1-0.1v0.9c-0.4,0-0.6-0.1-1.1-0.1h-2.5c-0.5,0-0.8,0-1.1,0.1V140.8z
		 M214.4,142.9c0.3,0,0.6,0.1,1.1,0.1h2.5c0.5,0,0.8,0,1.1-0.1v0.9c-0.4,0-0.6-0.1-1.1-0.1h-2.5c-0.5,0-0.8,0-1.1,0.1V142.9z
		 M214.5,149.7c0.1-0.4,0.1-0.8,0.1-1.5v-2c0-0.5,0-0.9-0.1-1.2c0.4,0,0.7,0.1,1.2,0.1h2.3c0.6,0,0.8,0,1.1,0c0,0.3,0,0.6,0,1.2v2.2
		c0,0.4,0,0.8,0.1,1.2h-0.9v-0.7h-2.7v0.9H214.5z M215.4,148h2.7v-2.2h-2.7V148z M221.2,147.7c0,0.3,0.1,0.4,0.4,0.5
		c0.3,0.1,0.9,0.1,1.8,0.1c1.6,0,2.1-0.1,2.3-0.3c0.2-0.2,0.4-1,0.5-2.4c0.3,0.2,0.7,0.4,1,0.5c-0.2,1.5-0.3,2.2-0.7,2.6
		c-0.4,0.5-1.1,0.6-3.2,0.6c-1.3,0-2-0.1-2.5-0.2c-0.5-0.1-0.6-0.4-0.6-1.1v-5c0-0.7,0-1-0.1-1.4c0.4,0,0.8,0.1,1.5,0.1h3.8v-3.9
		h-4.1c-0.6,0-1,0-1.4,0.1v-1.1c0.4,0.1,0.9,0.1,1.4,0.1h3.6c0.6,0,1,0,1.4-0.1c0,0.4,0,0.6,0,1.5v2.9c0,0.6,0,1,0.1,1.4
		c-0.5,0-0.8-0.1-1.5-0.1h-3.7V147.7z"/>
	<path d="M234.7,144.6c-0.9,2-1.8,2.9-2.8,2.9c-1.4,0-2.5-1.6-2.5-3.7c0-1.5,0.6-3,1.6-4.1c1.2-1.3,2.8-2,4.8-2
		c1.7,0,3.2,0.5,4.1,1.5c0.9,0.9,1.5,2.2,1.5,3.7c0,2.3-1.3,4.2-3.4,5.2c-0.7,0.3-1.2,0.5-2.3,0.7c-0.2-0.5-0.2-0.6-0.5-1
		c1.1-0.2,1.8-0.4,2.5-0.7c1.7-0.8,2.7-2.4,2.7-4.2c0-1.7-0.9-3.1-2.4-3.8c-0.6-0.2-1-0.3-1.7-0.4C236,140.7,235.4,143,234.7,144.6z
		 M232.9,139.3c-1.5,0.9-2.4,2.6-2.4,4.5c0,1.4,0.6,2.5,1.4,2.5c0.6,0,1.2-0.7,1.9-2.2c0.6-1.4,1.2-3.6,1.4-5.5
		C234.2,138.7,233.6,138.9,232.9,139.3z"/>
	<path d="M243.6,142c0.3,0.1,0.6,0.1,1.1,0.1h0.7c0.5,0,0.8,0,1.1-0.1c-0.1,0.4-0.1,0.9-0.1,1.6v2.9c0.3,0.6,0.6,0.9,1.2,1.3
		c0.7,0.4,1.6,0.5,3.7,0.5c2.3,0,4.2-0.1,6-0.3c-0.2,0.4-0.3,0.7-0.3,1.1c-1.6,0.1-3.4,0.1-4.8,0.1c-3,0-3.9-0.1-4.8-0.6
		c-0.5-0.3-0.9-0.6-1.4-1.3c-0.5,0.6-0.6,0.7-1,1.1c-0.2,0.2-0.3,0.3-0.6,0.5c-0.2,0.1-0.2,0.2-0.4,0.4l-0.5-1
		c0.6-0.3,1.4-0.9,2.1-1.8v-3.6h-0.9c-0.5,0-0.7,0-1,0.1V142z M244.4,136.3c1,0.9,1.6,1.6,2.4,2.7l-0.8,0.7
		c-0.7-1.1-1.3-1.8-2.3-2.7L244.4,136.3z M251.7,139.4c-0.6-0.4-1.3-0.9-2-1.3l0.7-0.5c0.8,0.5,1.2,0.7,2,1.3
		c1.1-0.6,1.5-0.9,2.3-1.6h-5.6c-0.7,0-1.1,0-1.5,0.1v-0.9c0.4,0.1,0.8,0.1,1.6,0.1h5.2c0.9,0,1.2,0,1.5-0.1l0.4,0.5
		c-0.1,0.1-0.2,0.1-0.4,0.3c-0.9,0.8-1.9,1.4-3,2h1.9c0.8,0,1.3,0,1.6-0.1c0,0.4-0.1,1-0.1,1.8v4.9c0,0.9-0.2,1.2-1.3,1.2
		c-0.3,0-0.6,0-1,0c0-0.4-0.1-0.6-0.2-0.9c0.5,0.1,0.8,0.1,1.2,0.1c0.3,0,0.4-0.1,0.4-0.4v-1.5h-3.1v0.9c0,0.8,0,1.2,0.1,1.6h-1
		c0.1-0.4,0.1-0.9,0.1-1.6v-0.9h-2.8v1.2c0,0.8,0,1.2,0.1,1.6h-1.1c0.1-0.4,0.1-0.8,0.1-1.6V141c0-0.9,0-1.3-0.1-1.7
		c0.4,0.1,0.9,0.1,1.6,0.1H251.7z M248.8,140.1v1.5h2.8v-1.5H248.8z M248.8,143.8h2.8v-1.5h-2.8V143.8z M252.5,141.6h3.1v-1.5h-3.1
		V141.6z M255.6,142.3h-3.1v1.5h3.1V142.3z"/>
	<path d="M263.1,136.5c-0.1,0.3-0.2,0.7-0.3,1.5c-0.2,1.5-0.4,3.1-0.5,3.9l0.1,0c0-0.1,0-0.1,0.1-0.4c0.2-0.8,0.5-1.6,0.9-2.2
		c0.8-1.3,1.8-1.9,3-1.9c1,0,1.8,0.5,2.4,1.3c0.6,0.9,0.9,2,0.9,3.6c0,2.7-1.2,4.8-3.5,5.9c-0.7,0.4-1.6,0.7-2.7,0.9
		c-0.2-0.5-0.3-0.6-0.6-1c1.4-0.2,2.2-0.5,3-0.9c1.8-1,2.6-2.6,2.6-5c0-2.4-0.8-3.8-2.3-3.8c-1.1,0-2.1,0.9-3,2.6
		c-0.5,1.1-0.8,2.2-0.8,3.3c0,0.1,0,0.1,0,0.4l-1.1,0c0-0.1,0-0.1,0-0.2l0-0.3l0-1.6c0-0.1,0-0.3,0-0.3c0-1.5,0.1-2.9,0.5-5.5
		c0-0.2,0-0.3,0-0.5L263.1,136.5z"/>
	<path d="M274.2,138.6c0.3,0,0.4,0,0.5,0c0.2,0,0.4,0,0.9,0c0.8-0.1,0.9-0.1,2.8-0.2l2.4-0.1c1.8-0.1,2-0.1,2.5-0.1l0.9,0
		c1.3-0.1,1.6-0.1,1.8-0.2l0.1,1.1c-0.6,0-1.1,0.1-1.7,0.2c-1,0.3-2.1,0.8-2.9,1.5c-1.2,1-1.8,2.2-1.8,3.5c0,1.3,0.8,2.3,2.1,2.8
		c0.7,0.3,1.7,0.5,2.2,0.5c0,0,0.1,0,0.1,0l-0.2,1.2c-0.2,0-0.2,0-0.5-0.1c-1.5-0.3-2.4-0.6-3.2-1.2c-1.1-0.7-1.7-1.8-1.7-3.1
		c0-1.7,1-3.4,2.8-4.6c0.5-0.3,0.9-0.5,1.4-0.8c-0.9,0.2-1.7,0.2-3.3,0.3c-3,0.2-4.6,0.4-5.2,0.5L274.2,138.6z M284.3,140.9
		c0.7,0.8,1.1,1.4,1.5,2.3l-0.8,0.4c-0.4-0.8-1.1-1.9-1.5-2.4L284.3,140.9z M286,140c0.7,0.8,1.1,1.4,1.5,2.3l-0.8,0.4
		c-0.3-0.7-0.9-1.7-1.5-2.4L286,140z"/>
	<path d="M296.2,137.4c0-0.4,0-0.6-0.1-0.9h1.1c-0.1,0.5-0.1,0.7-0.1,1.9v0.2c2.8,0,4,0,4.5-0.1v1.1c-0.6-0.1-1.1-0.1-2.9-0.1
		c-0.2,0-0.4,0-1.6,0v3c0.3,0.6,0.4,1.1,0.4,1.8c0,1.6-0.7,2.9-2,3.9c-0.6,0.5-1.3,0.8-2.4,1.2c-0.3-0.5-0.3-0.6-0.7-0.9
		c1.2-0.4,1.8-0.7,2.4-1.1c1.1-0.8,1.6-1.8,1.7-3.2c-0.1,0.4-0.2,0.5-0.4,0.7c-0.5,0.5-1.1,0.8-1.9,0.8c-1.4,0-2.5-1-2.5-2.4
		c0-1.4,1.1-2.5,2.7-2.5c0.7,0,1.3,0.2,1.7,0.7c0-0.2,0-0.3,0-0.8c0-0.1,0-0.2,0-0.4c0-0.2,0-0.2,0-0.8c-3,0.1-6,0.2-7,0.4l0-1.1
		c0.3,0,0.4,0,0.6,0c0.4,0,0.4,0,2.9-0.1c1.4-0.1,2.6-0.1,3.6-0.1L296.2,137.4z M295.5,141.9c-0.3-0.2-0.6-0.2-1-0.2
		c-0.9,0-1.7,0.7-1.7,1.6c0,0.9,0.6,1.5,1.5,1.5c1,0,1.8-0.7,1.8-1.8C296.1,142.4,296,142.1,295.5,141.9z"/>
	<path d="M308.2,147.3c0,1.2-1,2.2-2.2,2.2s-2.2-1-2.2-2.2s1-2.2,2.2-2.2S308.2,146,308.2,147.3z M304.6,147.3
		c0,0.8,0.6,1.4,1.4,1.4c0.8,0,1.4-0.6,1.4-1.4s-0.6-1.4-1.4-1.4C305.2,145.9,304.6,146.5,304.6,147.3z"/>
	<path d="M22.8,194.8h-3v-13.7h3v1h-1.8v11.7h1.8V194.8z"/>
	<path d="M35.1,190.1c0.9,0,1.2,0,1.8-0.1v1.2c-0.5-0.1-0.9-0.1-1.7-0.1h-9c-0.8,0-1.2,0-1.7,0.1V190c0.5,0.1,0.9,0.1,1.8,0.1h5.6
		c0.4-1.7,0.8-4.4,1.1-6.6h-5.1c-0.7,0-1.2,0-1.6,0.1v-1.2c0.5,0.1,0.8,0.1,1.7,0.1h4.8c0.5,0,0.7,0,1-0.1l0.6,0.5
		c-0.1,0.3-0.2,0.5-0.3,1.1c-0.3,2.3-0.6,4-1,6.1H35.1z"/>
	<path d="M39.4,186.2c0.4,0.1,0.8,0.1,1.9,0.1H50c1.1,0,1.4,0,1.8-0.1v1.2c-0.5,0-0.8-0.1-1.8-0.1h-8.7c-1.1,0-1.4,0-1.9,0.1V186.2z
		"/>
	<path d="M62.7,183.9v-1.5c0-1,0-1.2,0-1.5h1.2c0,0.4,0,0.4-0.1,1.4c0,0.2,0,0.5,0,0.8v0.8h1.3c0.9,0,1.2,0,1.8-0.1v1.1
		c-0.5-0.1-0.8-0.1-1.7-0.1h-1.3c0,2.9-0.2,4-0.7,5.1c-0.8,1.5-2.2,2.5-4.2,3.2c-0.2-0.4-0.3-0.6-0.7-0.9c2-0.5,3.5-1.7,4.1-3.2
		c0.3-0.9,0.4-1.8,0.4-4.2h-4.6v2.5c0,0.7,0,0.9,0.1,1.2H57c0-0.3,0.1-0.5,0.1-1.3v-2.5h-1.3c-1,0-1.3,0-1.7,0.1v-1.1
		c0.5,0.1,0.8,0.1,1.8,0.1h1.2v-1.7c0-0.8,0-0.9-0.1-1.3h1.2c0,0.4-0.1,0.6-0.1,1.2v1.8H62.7z M65.2,179.9c0.5,0.9,0.7,1.4,1.1,2.5
		l-0.8,0.3c-0.4-1.1-0.7-1.8-1.1-2.5L65.2,179.9z M66.9,179.4c0.5,0.8,0.8,1.6,1.1,2.4l-0.8,0.3c-0.3-0.9-0.7-1.9-1.1-2.5
		L66.9,179.4z"/>
	<path d="M69.4,186.2c0.4,0.1,0.8,0.1,1.9,0.1H80c1.1,0,1.4,0,1.8-0.1v1.2c-0.5,0-0.8-0.1-1.8-0.1h-8.7c-1.1,0-1.4,0-1.9,0.1V186.2z
		"/>
	<path d="M85.7,181.1c-0.1,0.5-0.1,1.1-0.1,1.7v8c0,0.7,0,1.2,0.1,1.7h-1.4c0.1-0.6,0.1-0.9,0.1-1.7v-8c0-0.8,0-1.1-0.1-1.7H85.7z"
		/>
	<path d="M88.1,182.8c0-0.6,0-1.1-0.1-1.7c0.5,0,0.9,0,1.6,0h2.5c3.3,0,5.2,2,5.2,5.6c0,1.9-0.6,3.4-1.6,4.4
		c-0.9,0.9-2.1,1.3-3.6,1.3h-2.5c-0.7,0-1.1,0-1.6,0c0.1-0.6,0.1-1,0.1-1.8V182.8z M92.1,191.4c1.2,0,2.1-0.3,2.8-1.1
		c0.8-0.8,1.3-2.1,1.3-3.7c0-1.6-0.4-2.8-1.2-3.6c-0.7-0.7-1.6-1-2.8-1h-2.9v9.3H92.1z"/>
	<path d="M100.3,193.8v-11.7h-1.8v-1h3v13.7h-3v-1H100.3z"/>
	<path d="M34.6,215.3H21l6.7-11.8L34.6,215.3z"/>
	<path d="M49.6,215.3H36l6.7-11.8L49.6,215.3z"/>
	<path d="M64.6,215.3H51l6.7-11.8L64.6,215.3z"/>
	<path d="M79.6,215.3H66l6.7-11.8L79.6,215.3z"/>
	<path d="M94.6,215.3H81l6.7-11.8L94.6,215.3z"/>
	<path d="M109.6,215.3H96l6.7-11.8L109.6,215.3z"/>
	<path d="M22.8,263.9h-3v-13.7h3v1h-1.8v11.7h1.8V263.9z"/>
	<path d="M35.7,250.5c-1.7,1.5-2.4,2-4.1,2.9c0.4,0.3,0.6,0.4,1.2,0.9l-0.4,0.4h2.7c0.9,0,1.3,0,1.6-0.1l0.6,0.6
		c-0.1,0.1-0.2,0.3-0.4,0.5c-1,1.3-1.4,1.7-2.6,2.6c-0.3-0.3-0.5-0.4-0.8-0.6c1-0.7,1.5-1.2,2.4-2.2h-4.6v5.8c0,1-0.4,1.2-1.8,1.2
		c-0.5,0-1.3,0-1.8-0.1c-0.1-0.5-0.1-0.7-0.2-1c0.9,0.1,1.5,0.2,2.1,0.2c0.5,0,0.7-0.1,0.7-0.4v-5.7h-4.6c-0.7,0-1.1,0-1.5,0.1v-1.1
		c0.4,0.1,0.9,0.1,1.7,0.1h6c-1.2-0.9-2.4-1.7-4.1-2.5l0.6-0.7c1.3,0.7,1.8,1,2.5,1.4c1.4-0.7,2.2-1.2,3.2-2.1h-6.9
		c-0.8,0-1.1,0-1.5,0.1v-1c0.5,0.1,0.8,0.1,1.6,0.1H34c0.6,0,0.8,0,1.1,0L35.7,250.5z"/>
	<path d="M38.8,255.7c0.2,0,0.3,0,0.5,0c0.1,0,0.5,0,0.8,0c0.6-0.7,0.7-0.9,1.1-1.4c-0.8-0.9-1.2-1.3-2.3-2.3l0.6-0.7
		c0.3,0.3,0.4,0.4,0.6,0.6c0.8-1.2,1.3-2.2,1.5-2.8l0.9,0.4c-0.1,0.1-0.2,0.3-0.3,0.6c-0.4,0.8-0.9,1.5-1.5,2.4
		c0.5,0.4,0.7,0.7,1,1.1c1-1.5,1.5-2.3,1.7-2.8l0.9,0.5c-0.1,0.2-0.2,0.3-0.4,0.6c-1.2,1.8-2,2.9-2.8,3.8c1.1-0.1,1.4-0.1,2.4-0.2
		c-0.2-0.5-0.3-0.6-0.6-1.2l0.7-0.3c0.5,0.9,0.9,1.7,1.3,2.8l-0.8,0.3c-0.1-0.5-0.2-0.6-0.3-1c-0.2,0-0.3,0-0.4,0
		c-0.1,0-0.5,0.1-1,0.1v4.9c0,0.6,0,1.1,0.1,1.5h-1.1c0.1-0.4,0.1-0.9,0.1-1.5v-4.8c-1.1,0.1-1.1,0.1-1.7,0.1c-0.6,0-0.6,0-0.9,0.1
		L38.8,255.7z M40.7,257.5c-0.3,2.2-0.4,2.9-1,4.2l-0.8-0.4c0.6-1.2,0.8-2.2,1-4L40.7,257.5z M44.1,257.3c0.4,1.3,0.6,2.2,0.9,3.6
		l-0.9,0.3c-0.2-1.5-0.4-2.5-0.8-3.6L44.1,257.3z M46.6,252.5c-0.5,0.9-0.9,1.6-1.5,2.3c-0.2-0.3-0.5-0.4-0.8-0.6
		c0.7-0.7,1.2-1.6,1.7-2.6c0.5-1.1,0.7-1.8,0.8-2.5l1,0.3c-0.1,0.3-0.1,0.3-0.4,1c-0.1,0.3-0.2,0.6-0.4,1.1h3.8c0.6,0,0.9,0,1.2-0.1
		c0,0.4,0,0.4-0.1,2.3c0,2.4-0.3,5.3-0.6,6.8c-0.3,1.4-0.7,1.8-2.2,1.8c-0.4,0-1,0-1.6-0.1c0-0.4-0.1-0.6-0.3-1
		c0.8,0.1,1.4,0.2,2,0.2c0.7,0,0.9-0.2,1.1-1.1c0.4-1.7,0.6-4.6,0.6-7.8H46.6z M48.2,258.6c-0.7-1.7-1.1-2.4-2.1-3.7l0.8-0.5
		c1,1.3,1.4,2.1,2.1,3.7L48.2,258.6z"/>
	<path d="M60,250.8c-1.5,0.1-3,0.2-4.5,0.2c-0.1-0.4-0.2-0.6-0.4-0.9c0.6,0,0.9,0,1.2,0c3.4,0,7-0.4,8.8-1l0.7,0.9l-0.3,0
		c-0.1,0-0.2,0-0.3,0.1c-1.1,0.2-3,0.5-4.3,0.6v2.3h1.8c0.6-0.8,0.8-1.4,1.2-2.3l0.9,0.3c-0.4,0.7-0.6,1.2-1.2,1.9h1.8
		c0.7,0,1.1,0,1.5-0.1v1c-0.4-0.1-0.9-0.1-1.5-0.1h-3.7c1.4,1.3,3.3,2.2,5.8,2.9c-0.3,0.3-0.4,0.5-0.5,0.9c-1.2-0.5-1.3-0.5-1.9-0.8
		c0,0.3,0,0.5,0,0.8v3.7c0,0.6,0,1,0.1,1.4h-1V262h-7.3v0.8h-1c0.1-0.4,0.1-0.9,0.1-1.4v-3.7c0-0.3,0-0.6,0-0.8
		c-0.6,0.3-0.9,0.4-1.7,0.8c-0.1-0.3-0.2-0.5-0.5-0.8c2.2-0.7,4-1.7,5.4-2.9h-3.5c-0.6,0-1.1,0-1.5,0.1v-1c0.4,0.1,0.8,0.1,1.5,0.1
		h1.7c-0.3-0.5-0.5-0.9-0.9-1.5l0.8-0.3c0.5,0.7,0.7,1.1,1.1,1.8H60V250.8z M63.9,256.5c0.2,0,0.3,0,0.5,0c-1.6-0.9-2.4-1.4-3.6-2.6
		c0,0.1,0,0.1,0,0.2c0,0.2,0,0.3,0,0.3v0.5c0,0.4,0,0.8,0,1h-1c0-0.3,0.1-0.6,0.1-1v-0.5c0-0.1,0-0.3,0.1-0.6
		c-1,1.1-1.8,1.7-3.3,2.6c0.2,0,0.3,0,0.5,0H63.9z M56.9,258.8H60v-1.5h-3.1V258.8z M56.9,261.2H60v-1.6h-3.1V261.2z M60.9,258.8
		h3.3v-1.5h-3.3V258.8z M60.9,261.2h3.3v-1.6h-3.3V261.2z"/>
	<path d="M70.5,255.8c-0.6,0-1.1,0-1.5,0.1v-1.1c0.4,0.1,0.9,0.1,1.5,0.1h10.3c0.7,0,1.2,0,1.6-0.1v1.1c-0.4-0.1-0.9-0.1-1.6-0.1
		h-6.9c-0.3,0.8-0.4,1-0.7,1.6h5.5c0.9,0,1.3,0,1.7-0.1c0,0.1,0,0.2,0,0.3c-0.1,0.5-0.1,0.5-0.1,0.8c-0.3,2.1-0.6,3.3-1,3.7
		c-0.3,0.4-0.8,0.5-1.7,0.5c-0.7,0-1.6-0.1-2.5-0.2c0-0.3-0.1-0.6-0.2-1c1,0.2,2.1,0.3,2.7,0.3c0.7,0,0.9-0.1,1.1-0.4
		c0.3-0.5,0.5-1.4,0.7-3.1h-6.5c-0.3,0.5-0.4,0.7-0.8,1.3l-1.1-0.2c0.9-1.2,1.4-2.1,2-3.5H70.5z M70.9,250.7c0-0.5,0-0.8-0.1-1.1
		c0.6,0.1,1.1,0.1,1.7,0.1h6c0.9,0,1.3,0,1.7-0.1c0,0.4-0.1,0.7-0.1,1.1v2c0,0.5,0,0.7,0.1,1.1c-0.5,0-0.8-0.1-1.6-0.1h-6.2
		c-0.7,0-1.1,0-1.6,0.1c0-0.4,0.1-0.7,0.1-1.1V250.7z M71.9,250.5v2.4h7.4v-2.4H71.9z"/>
	<path d="M85.2,262.9v-11.7h-1.8v-1h3v13.7h-3v-1H85.2z"/>
	<path d="M20.3,274.1c0.4,0.1,0.7,0.1,1.2,0.1h0.9c0.5,0,0.8,0,1.2-0.1c-0.1,0.9-0.1,1.7-0.1,2.5v7.3c0,0.7,0,1.1,0.1,1.7h-1.4
		c0.1-0.5,0.1-1,0.1-1.7v-8.7h-0.8c-0.5,0-0.9,0-1.3,0.1V274.1z"/>
	<path d="M30.3,285.6c-0.9,0-1.2,0-1.6,0.1c0.2-1.2,0.2-1.4,0.4-2c0.4-0.9,1-1.8,2-2.6c0.5-0.4,0.6-0.5,2.3-1.6c1.5-1,2-1.7,2-2.6
		c0-1.1-1-1.9-2.5-1.9c-1,0-1.7,0.3-2.2,1c-0.3,0.4-0.4,0.8-0.5,1.5l-1.3-0.2c0.2-1.1,0.5-1.6,0.9-2.2c0.7-0.8,1.7-1.2,3-1.2
		c2.3,0,3.7,1.1,3.7,2.9c0,0.8-0.3,1.5-0.9,2.1c-0.5,0.5-0.8,0.8-2.5,1.9c-1.2,0.8-1.7,1.2-2.2,1.8c-0.5,0.6-0.7,1-0.9,1.7h4.8
		c0.8,0,1.3,0,1.8-0.1v1.3c-0.6-0.1-1.1-0.1-1.8-0.1H30.3z"/>
	<path d="M39.5,282.8c0.2,0.8,0.4,1.1,0.9,1.4c0.5,0.4,1.2,0.5,1.9,0.5c1.7,0,2.8-0.9,2.8-2.3c0-1.5-1.1-2.3-3.1-2.3
		c-0.4,0-0.8,0-1.2,0.1V279c0.3,0.1,0.7,0.1,1.1,0.1c1,0,1.7-0.2,2.2-0.7c0.4-0.4,0.6-0.9,0.6-1.5c0-1.3-0.9-2-2.4-2
		c-0.9,0-1.6,0.3-2,0.8c-0.2,0.3-0.3,0.5-0.5,1.1l-1.2-0.3c0.3-0.8,0.4-1.1,0.8-1.5c0.7-0.7,1.7-1.1,3-1.1c2.2,0,3.6,1.1,3.6,2.9
		c0,0.9-0.4,1.7-1,2.2c-0.4,0.3-0.7,0.4-1.4,0.5c0.9,0.1,1.3,0.3,1.8,0.6c0.7,0.5,1,1.3,1,2.3c0,2-1.6,3.3-4.1,3.3
		c-1.5,0-2.6-0.4-3.4-1.2c-0.3-0.4-0.5-0.7-0.8-1.5L39.5,282.8z"/>
	<path d="M47.9,281.6c0.3-0.4,0.7-0.8,1-1.2l3.8-4.7c0.5-0.6,0.8-1,1.1-1.5h1.1c-0.1,0.9-0.1,1.3-0.1,2.5v4.9h0.6c0.6,0,1,0,1.6-0.1
		v1.2c-0.6-0.1-0.9-0.1-1.6-0.1h-0.6v1.3c0,0.7,0,1.1,0.1,1.6h-1.4c0.1-0.5,0.1-0.9,0.1-1.6v-1.3h-4c-0.8,0-1.3,0-1.8,0.1V281.6z
		 M53.7,277.8c0-0.8,0-1.3,0.1-2c-0.3,0.4-0.7,0.9-1.1,1.5l-3.5,4.4h4.5V277.8z"/>
	<path d="M18.7,316c1.3-1.3,2.3-1.8,3.6-1.8c0.7,0,1.3,0.1,1.9,0.4c0.4,0.2,0.6,0.3,1.4,0.9c1.3,0.9,2,1.2,2.9,1.2
		c0.4,0,0.8-0.1,1.2-0.3c0.6-0.3,1.1-0.6,1.7-1.5l0.8,0.7c-0.7,0.8-1.1,1.2-1.7,1.5c-0.6,0.3-1.3,0.5-2,0.5c-0.5,0-1-0.1-1.4-0.2
		c-0.6-0.2-1.1-0.5-2.1-1.2c-1.2-0.9-1.8-1.1-2.7-1.1c-0.6,0-1,0.1-1.5,0.4c-0.4,0.2-0.7,0.5-1.3,1.1L18.7,316z"/>
	<path d="M33.7,316c1.3-1.3,2.3-1.8,3.6-1.8c0.7,0,1.3,0.1,1.9,0.4c0.4,0.2,0.6,0.3,1.4,0.9c1.3,0.9,2,1.2,2.9,1.2
		c0.4,0,0.8-0.1,1.2-0.3c0.6-0.3,1.1-0.6,1.7-1.5l0.8,0.7c-0.7,0.8-1.1,1.2-1.7,1.5c-0.6,0.3-1.3,0.5-2,0.5c-0.5,0-1-0.1-1.4-0.2
		c-0.6-0.2-1.1-0.5-2.1-1.2c-1.2-0.9-1.8-1.1-2.7-1.1c-0.6,0-1,0.1-1.5,0.4c-0.4,0.2-0.7,0.5-1.3,1.1L33.7,316z"/>
	<path d="M51.9,324.1c-0.9-1.3-1.2-2.1-1.6-3.1c-0.4-1.2-0.6-2.5-0.6-3.9c0-1.4,0.2-2.7,0.6-3.9c0.4-1.1,0.7-1.8,1.6-3.1l0.9,0.6
		c-0.8,1.3-1.2,2-1.5,3c-0.3,1.1-0.5,2.2-0.5,3.4c0,1.2,0.2,2.3,0.5,3.4c0.3,1.1,0.7,1.7,1.5,3L51.9,324.1z"/>
	<path d="M57.2,324.1c-0.9-1.3-1.2-2.1-1.6-3.1c-0.4-1.2-0.6-2.5-0.6-3.9c0-1.4,0.2-2.7,0.6-3.9c0.4-1.1,0.7-1.8,1.6-3.1l0.9,0.6
		c-0.8,1.3-1.2,2-1.5,3c-0.3,1.1-0.5,2.2-0.5,3.4c0,1.2,0.2,2.3,0.5,3.4c0.3,1.1,0.7,1.7,1.5,3L57.2,324.1z"/>
	<path d="M66,311.3c0-0.6,0-1-0.1-1.6h1.2c-0.1,0.4-0.1,0.9-0.1,1.4v0.2l0.1,7.6c0.8-0.3,1.3-0.6,2-0.9c1.2-0.6,1.9-0.9,2.3-1.3
		l0.2,0.9c-1.8,1.1-3.4,1.9-5.9,2.8c-0.4,0.2-0.6,0.2-0.9,0.4l-0.3-1.1c0.6-0.2,1-0.3,1.6-0.5L66,311.3z M76.4,309.7
		c0,0.3-0.1,0.4-0.1,1.5c-0.1,1.2-0.4,3-0.7,4c-0.3,1-0.7,1.8-1.2,2.7c0.8,1.6,2,2.8,3.7,3.8c-0.3,0.3-0.5,0.6-0.7,1
		c-1-0.7-1.6-1.2-2.3-2.1c-0.5-0.6-0.8-1-1.3-1.8c-1.3,1.8-3,3-5.5,4c-0.2-0.4-0.4-0.7-0.6-0.9c1.3-0.5,2.1-0.9,3-1.5
		c2.1-1.4,3.4-3.3,4.1-5.9c0.3-1.3,0.5-2.6,0.5-4c0-0.4,0-0.5,0-0.8L76.4,309.7z M69.8,310.7c1.2,1.2,1.8,2,2.9,3.6l-0.9,0.6
		c-1-1.6-1.5-2.3-2.8-3.7L69.8,310.7z"/>
	<path d="M81.2,311.1c-0.7,0-1.2,0-1.8,0.1V310c0.5,0.1,1,0.1,1.8,0.1h9.7c0.7,0,1.2,0,1.7-0.1v1.1c-0.5-0.1-1.1-0.1-1.7-0.1h-4.7
		v1.7c3,1.5,3.4,1.8,5.3,3.1l-0.6,0.9c-1-0.8-1.8-1.3-3.2-2.1c-0.3-0.2-0.3-0.2-1.6-0.8v7.1c0,0.8,0,1.3,0.1,1.8h-1.2
		c0.1-0.5,0.1-1,0.1-1.8v-9.9H81.2z"/>
	<path d="M100.8,316.8c0.5,1,0.9,1.5,1.9,2.3c0.9-0.6,1.9-1.5,2.3-2.1l0.9,0.5c-0.1,0.1-0.1,0.1-0.3,0.2c0,0-0.1,0.1-0.2,0.2
		c-0.9,0.9-1.4,1.2-2.1,1.7c1.4,0.9,2.9,1.5,4.6,1.9c-0.2,0.3-0.4,0.6-0.5,1c-2.3-0.7-3.9-1.5-5.3-2.7c-1-0.9-1.7-1.7-2.3-3H98v4.2
		c1.4-0.4,2.2-0.6,3.3-1l0,0.9c-1.4,0.5-2.7,0.9-5.7,1.6c-0.2,0.1-0.4,0.1-0.6,0.2l-0.3-1c0.6,0,0.7-0.1,2.4-0.4v-4.4h-1.2
		c-0.6,0-1,0-1.5,0.1v-1c0.4,0.1,0.9,0.1,1.5,0.1H97v-4.6c0-0.8,0-1-0.1-1.5c0.4,0.1,0.8,0.1,1.6,0.1h6.4c0.8,0,1.2,0,1.6-0.1v1
		c-0.5-0.1-0.9-0.1-1.6-0.1H98v1.2h6.5c0.7,0,1.1,0,1.5-0.1v1c-0.4-0.1-0.9-0.1-1.5-0.1H98v1.2h6.5c0.7,0,1.1,0,1.5-0.1v1
		c-0.4-0.1-0.8-0.1-1.5-0.1H98v1.2h8.3c0.6,0,1.1,0,1.5-0.1v1c-0.4-0.1-0.8-0.1-1.4-0.1H100.8z"/>
	<path d="M119.9,312.7c-0.4,1.2-0.5,1.7-0.9,2.5c-0.6,1.2-1.2,2.2-2.2,3.2c0.8,0.8,1.7,1.4,2.7,1.9c1.2,0.6,2,1,3.5,1.4
		c-0.3,0.3-0.5,0.6-0.7,1c-2.6-0.9-4.5-2-6.2-3.6c-1.8,1.7-3.8,2.8-6.3,3.6c-0.2-0.4-0.3-0.6-0.6-0.9c2.5-0.7,4.5-1.8,6.2-3.3
		c-0.7-0.8-1.3-1.5-1.8-2.5c-0.6-1-0.9-1.7-1.4-3.2h-1.1c-0.8,0-1.2,0-1.7,0.1v-1.1c0.5,0.1,1,0.1,1.7,0.1h4.3v-1.2
		c0-0.5,0-0.9-0.1-1.3h1.2c-0.1,0.4-0.1,0.8-0.1,1.3v1.2h4.7c0.7,0,1.3,0,1.7-0.1v1.1c-0.4-0.1-0.9-0.1-1.7-0.1H119.9z M113.2,312.7
		c0.4,1.3,0.7,1.9,1.2,2.9c0.5,0.8,0.9,1.4,1.6,2.1c1.3-1.4,2.1-2.9,2.7-5H113.2z"/>
	<path d="M130.4,317.7c-0.9,2-1.8,2.9-2.8,2.9c-1.4,0-2.5-1.6-2.5-3.7c0-1.5,0.6-3,1.6-4.1c1.2-1.3,2.8-2,4.8-2
		c1.7,0,3.1,0.5,4.1,1.5c0.9,0.9,1.5,2.2,1.5,3.7c0,2.3-1.3,4.2-3.4,5.2c-0.7,0.3-1.2,0.5-2.3,0.7c-0.1-0.5-0.2-0.6-0.5-1
		c1.1-0.2,1.8-0.4,2.5-0.7c1.6-0.8,2.7-2.4,2.7-4.2c0-1.7-0.9-3.1-2.4-3.8c-0.6-0.2-1-0.3-1.7-0.4
		C131.7,313.8,131.1,316.1,130.4,317.7z M128.6,312.5c-1.5,0.9-2.4,2.6-2.4,4.5c0,1.4,0.6,2.5,1.4,2.5c0.6,0,1.2-0.7,1.9-2.2
		c0.6-1.4,1.2-3.6,1.4-5.5C129.9,311.8,129.3,312.1,128.6,312.5z"/>
	<path d="M140.2,312.3c0.5,0.1,1.1,0.1,1.9,0.1c0.3,0,0.5,0,0.9,0c0.3-1.8,0.3-2.1,0.3-2.8l1.2,0.1c-0.1,0.4-0.1,0.4-0.3,1.4
		c-0.1,0.5-0.1,0.7-0.2,1.1c1.2-0.1,2-0.3,2.7-0.5l0.1,1c-0.1,0-0.1,0-0.4,0.1c-0.8,0.2-1.8,0.3-2.5,0.4c-0.2,1.2-0.6,2.9-1,4.2
		c-0.5,1.6-0.9,2.7-1.7,4.6l-1.1-0.5c1.1-1.9,2.3-5.4,2.8-8.3c-0.3,0-0.5,0-1,0c-0.5,0-0.7,0-1.2,0c0,0-0.1,0-0.1,0c0,0-0.1,0-0.3,0
		V312.3z M146.9,317.7c-0.3,0.4-0.3,0.4-0.5,0.6c-0.2,0.3-0.4,0.7-0.4,1.1c0,0.9,0.9,1.4,2.6,1.4c1.1,0,2.5-0.2,3.3-0.5l0.1,1.1
		c-0.2,0-0.2,0-0.7,0.1c-1,0.2-1.9,0.3-2.7,0.3c-2.5,0-3.7-0.8-3.7-2.2c0-0.7,0.2-1.1,1-2.2L146.9,317.7z M151.6,315.1
		c-0.7-0.1-1.1-0.1-1.8-0.1c-1.3,0-2.4,0.1-3.7,0.5l-0.1-1c1.7-0.4,2.7-0.5,4-0.5c0.3,0,0.5,0,1.6,0L151.6,315.1z"/>
	<path d="M158,310.4c0,0.5,0.2,1.7,0.4,2.6c1-0.5,2.1-0.8,3.2-0.8c0.1,0,0.3,0,0.5,0c0.3-1,0.4-2,0.5-2.4l1.1,0.2
		c-0.1,0.2-0.1,0.2-0.4,1.6c-0.1,0.3-0.1,0.4-0.2,0.7c2.5,0.5,4,2.1,4,4.4c0,1.4-0.6,2.8-1.6,3.6c-0.8,0.6-1.8,1.2-3,1.5
		c-0.2,0.1-0.3,0.1-0.9,0.2c-0.1-0.4-0.2-0.5-0.6-1c0.9-0.1,1.4-0.2,2.2-0.6c1-0.4,1.8-1,2.2-1.6c0.4-0.6,0.7-1.3,0.7-2.1
		c0-1.8-1.1-3-3.2-3.5c-0.7,2.3-1.7,4.5-2.9,5.9c-1,1.2-1.8,1.7-2.7,1.7c-1.3,0-2.2-1.2-2.2-2.9c0-1,0.3-2,0.9-2.9
		c0.4-0.6,0.8-1,1.5-1.5c-0.1-0.5-0.3-1.4-0.4-2.1c-0.1-0.5-0.1-0.6-0.2-0.8L158,310.4z M156.7,315.8c-0.4,0.6-0.6,1.5-0.6,2.1
		c0,1.2,0.5,2,1.2,2c0.5,0,1.2-0.4,1.8-1.3c-0.6-1.3-1.1-2.7-1.4-4C157.3,315,157,315.3,156.7,315.8z M159.9,317.7
		c0.1-0.1,0.1-0.2,0.2-0.3c0.7-1.1,1.4-2.6,1.8-4.2c-0.2,0-0.3,0-0.4,0c-1.1,0-2,0.3-2.9,0.8c0.3,1.2,0.6,2.2,1.1,3.5
		C159.8,317.6,159.8,317.6,159.9,317.7L159.9,317.7z"/>
	<path d="M179.8,312.6c-0.1,0.1-0.1,0.1-0.4,0.3c-0.1,0-0.1,0-0.5,0.4c-1,0.7-2.1,1.3-3.9,2c0.8-0.1,1-0.1,1.5-0.1h3.2
		c0.5,0,0.9,0,1.4-0.1c0,0.4-0.1,0.7-0.1,1.2v5.4c0,0.5,0,0.9,0.1,1.3h-1v-0.8h-7.2v0.8h-1c0.1-0.4,0.1-0.8,0.1-1.3v-5.3
		c-1.2,0.3-1.2,0.3-2.5,0.6c-0.1-0.3-0.3-0.6-0.5-0.9c1.8-0.2,3-0.5,4.5-1c2.1-0.7,3.7-1.5,4.9-2.4c0.3-0.2,0.5-0.4,0.7-0.7
		L179.8,312.6z M173.5,310.3c-1.1,1.9-1.6,2.4-3.4,3.7c-0.2-0.3-0.4-0.5-0.7-0.7c0.9-0.6,1.3-0.9,1.8-1.4c0.6-0.6,0.9-1,1.5-2
		L173.5,310.3z M173.2,315.9c-0.1,0-0.2,0.1-0.3,0.1v1.2h7.2v-1.3H173.2z M172.9,319.3h7.2v-1.3h-7.2V319.3z M172.9,321.4h7.2V320
		h-7.2V321.4z M176.7,309.1c-0.1,0.3-0.1,0.6-0.1,1.1v2.4c0,0.7-0.5,1-1.5,1c-0.4,0-0.9,0-1.5-0.1c0-0.3-0.1-0.6-0.3-0.9
		c0.7,0.1,1.1,0.2,1.6,0.2c0.6,0,0.7,0,0.7-0.3v-2.3c0-0.5,0-0.8-0.1-1.1H176.7z M179.3,309.8c1.2,1.4,2,2.1,3.6,2.9
		c-0.3,0.3-0.4,0.5-0.7,0.8c-1.6-1-2.3-1.6-3.7-3.2L179.3,309.8z"/>
	<path d="M197,311c-0.1,0.1-0.1,0.1-0.3,0.6c-0.7,1.2-1.3,2.1-2.1,3c1,0.8,2.2,1.5,3.8,2.1c-0.2,0.3-0.4,0.5-0.5,0.9
		c-1.8-0.9-2.8-1.5-3.9-2.4c-0.8,0.7-1.9,1.5-3,2.1c0.3,0,0.6,0,1.2,0h3.5c0.6,0,0.9,0,1.2,0c0,0.3,0,0.6,0,1.3v2.7
		c0,0.8,0,1.2,0.1,1.6h-1V322h-4v0.8h-1c0-0.4,0.1-0.8,0.1-1.6v-2.7c0-0.7,0-0.9,0-1.3c-0.3,0.2-0.4,0.2-0.8,0.4
		c-0.2-0.3-0.3-0.5-0.5-0.8v2.4c0,0.6,0,1.1,0.1,1.5h-0.9V320h-3.2v1.3h-0.9c0.1-0.4,0.1-1,0.1-1.6v-8.3c0-0.6,0-1-0.1-1.4
		c0.2,0,0.6,0,1.4,0h2.2c0.7,0,1.1,0,1.4,0c0,0.3,0,0.8,0,1.4v1.9c1-0.9,1.6-1.6,2.2-2.6c0.4-0.6,0.6-1.1,0.7-1.7l0.9,0.3
		c-0.1,0.2-0.1,0.3-0.4,0.8c-0.1,0.1-0.1,0.2-0.2,0.4h2.3c0.5,0,0.9,0,1.2-0.1L197,311z M185.6,314.5h1.2v-3.6h-1.2V314.5z
		 M185.6,319.2h1.2v-3.9h-1.2V319.2z M187.6,314.5h1.2v-3.6h-1.2V314.5z M187.6,319.2h1.2v-3.9h-1.2V319.2z M189.6,316.9
		c1.5-0.7,2.7-1.5,3.7-2.4c-0.6-0.6-1-1.2-1.6-2.2c-0.5,0.6-0.8,1-1.5,1.7c-0.2-0.3-0.4-0.4-0.6-0.6V316.9z M191.9,321.2h4v-3.1h-4
		V321.2z M192.5,311.2c-0.1,0.2-0.1,0.2-0.2,0.4c0.5,1,0.9,1.6,1.6,2.3c0.8-0.9,1.3-1.5,1.9-2.7H192.5z"/>
	<path d="M204.9,310c0.9,1.3,1.2,2.1,1.6,3.1c0.4,1.2,0.6,2.5,0.6,3.9c0,1.4-0.2,2.7-0.6,3.9c-0.4,1.1-0.7,1.8-1.6,3.1l-0.9-0.6
		c0.8-1.3,1.2-2,1.5-3c0.3-1.1,0.5-2.2,0.5-3.4c0-1.2-0.2-2.3-0.5-3.4c-0.3-1.1-0.7-1.7-1.5-3L204.9,310z"/>
	<path d="M210.3,310c0.9,1.3,1.2,2.1,1.6,3.1c0.4,1.2,0.6,2.5,0.6,3.9c0,1.4-0.2,2.7-0.6,3.9c-0.4,1.1-0.7,1.8-1.6,3.1l-0.9-0.6
		c0.8-1.3,1.2-2,1.5-3c0.3-1.1,0.5-2.2,0.5-3.4c0-1.2-0.2-2.3-0.5-3.4c-0.3-1.1-0.7-1.7-1.5-3L210.3,310z"/>
	<path d="M215,316c1.3-1.3,2.3-1.8,3.6-1.8c0.7,0,1.3,0.1,1.9,0.4c0.4,0.2,0.6,0.3,1.4,0.9c1.3,0.9,2,1.2,2.9,1.2
		c0.4,0,0.8-0.1,1.2-0.3c0.6-0.3,1.1-0.6,1.7-1.5l0.8,0.7c-0.7,0.8-1.1,1.2-1.7,1.5c-0.6,0.3-1.3,0.5-2,0.5c-0.5,0-1-0.1-1.4-0.2
		c-0.6-0.2-1.1-0.5-2.1-1.2c-1.2-0.9-1.8-1.1-2.7-1.1c-0.6,0-1,0.1-1.5,0.4c-0.4,0.2-0.7,0.5-1.3,1.1L215,316z"/>
	<path d="M230,316c1.3-1.3,2.3-1.8,3.6-1.8c0.7,0,1.3,0.1,1.9,0.4c0.4,0.2,0.6,0.3,1.4,0.9c1.3,0.9,2,1.2,2.9,1.2
		c0.4,0,0.8-0.1,1.2-0.3c0.6-0.3,1.1-0.6,1.7-1.5l0.8,0.7c-0.7,0.8-1.1,1.2-1.7,1.5c-0.6,0.3-1.3,0.5-2,0.5c-0.5,0-1-0.1-1.4-0.2
		c-0.6-0.2-1.1-0.5-2.1-1.2c-1.2-0.9-1.8-1.1-2.7-1.1c-0.6,0-1,0.1-1.5,0.4c-0.4,0.2-0.7,0.5-1.3,1.1L230,316z"/>
</g>
</svg>
