<?xml version="1.0" encoding="utf-8"?>
<!-- Generator: Adobe Illustrator 24.0.3, SVG Export Plug-In . SVG Version: 6.00 Build 0)  -->
<svg version="1.1" id="レイヤー_1" xmlns="http://www.w3.org/2000/svg" xmlns:xlink="http://www.w3.org/1999/xlink" x="0px"
	 y="0px" width="345px" height="360px" viewBox="0 0 345 360" style="enable-background:new 0 0 345 360;" xml:space="preserve">
<style type="text/css">
	.st0{fill:#CA161D;}
	.st1{fill:#A1A1A1;}
</style>
<g>
	<path d="M46.4,42.6H32.9l6.7-11.8L46.4,42.6z"/>
	<path d="M60.8,42.6H47.3L54,30.8L60.8,42.6z"/>
	<path d="M75.2,42.6H61.7l6.7-11.8L75.2,42.6z"/>
	<path d="M89.6,42.6H76.1l6.7-11.8L89.6,42.6z"/>
	<path d="M104,42.6H90.5l6.7-11.8L104,42.6z"/>
	<path d="M118.4,42.6h-13.5l6.7-11.8L118.4,42.6z"/>
	<path d="M129.7,37.8c-0.6,0-1,0-1.4,0.1v-1c-0.3,0.4-0.3,0.5-0.6,1.3c-0.3-0.6-0.5-1-0.8-1.7c0,0.9,0,1.6,0,2.1v3.8
		c0,0.8,0,1.4,0.1,1.8h-1.7c0.1-0.5,0.1-1.1,0.1-1.8v-3.1c0-1.1,0.1-1.8,0.1-2.1c-0.4,1.5-0.7,2.3-1.5,3.6c-0.2-0.8-0.4-1.3-0.8-1.8
		c0.6-0.7,1-1.5,1.4-2.5c0.3-0.9,0.4-1.2,0.6-1.9h-0.6c-0.4,0-0.7,0-1,0.1V33c0.3,0,0.5,0.1,1,0.1h0.8v-1.2c0-0.8,0-1.2-0.1-1.6h1.7
		c-0.1,0.4-0.1,0.8-0.1,1.6v1.2h0.4c0.4,0,0.6,0,0.9-0.1v1.5c-0.3,0-0.5,0-0.9,0H127c0.2,0.6,0.7,1.4,1.2,2v-0.1
		c0.4,0.1,0.9,0.1,1.5,0.1h1.8v-0.8h-1.4c-0.8,0-1,0-1.4,0.1v-1.4c0.4,0,0.7,0.1,1.4,0.1h1.4v-0.8H130c-0.7,0-1,0-1.4,0.1v-1.5
		c0.4,0.1,0.8,0.1,1.4,0.1h0.2c-0.2-0.5-0.4-0.9-0.9-1.5l1.4-0.5c0.4,0.7,0.7,1.2,1,1.9h1.3c0.5-0.8,0.7-1.2,0.9-1.9l1.6,0.4
		c-0.4,0.7-0.6,1.2-0.9,1.5h0.7c0.6,0,1.1,0,1.5-0.1v1.5c-0.5-0.1-0.8-0.1-1.5-0.1H133v0.8h1.8c0.8,0,1.1,0,1.5-0.1v1.4
		c-0.4-0.1-0.7-0.1-1.5-0.1H133v0.8h2.4c0.6,0,1.1,0,1.6-0.1v1.5c-0.5-0.1-1-0.1-1.6-0.1h-2.3c0.2,0.7,0.4,1.1,0.9,1.8
		c0.5-0.4,0.9-0.9,1.4-1.6l1.2,0.9c-0.6,0.8-1,1.2-1.7,1.8c0.8,0.7,1.4,1.1,2.4,1.6c-0.4,0.5-0.7,0.9-1,1.5
		c-0.8-0.5-1.3-0.9-1.8-1.4c-0.7-0.7-1.2-1.5-1.6-2.4c0,0.7,0,0.8,0,1.1v2c0,0.9-0.5,1.2-1.9,1.2c-0.2,0-0.6,0-1.1,0
		c-0.1-0.7-0.2-1-0.4-1.5c0.5,0.1,0.9,0.1,1.4,0.1c0.3,0,0.4-0.1,0.4-0.3V41c-1.1,0.8-1.5,1.1-2.9,1.9c-0.1,0.1-0.4,0.3-0.6,0.4
		l-0.6-1.6c0.4-0.1,0.7-0.2,1.2-0.5c1-0.5,1.2-0.6,2.9-1.8v-1.6C131.3,37.8,129.7,37.8,129.7,37.8z M129.4,37.9c0.7,0.7,1,1,1.5,1.7
		l-1.1,0.8c-0.5-0.7-0.7-1-1.4-1.7L129.4,37.9z"/>
	<path d="M22.8,81.4c-0.1,0.5-0.1,1-0.1,1.8c0,1.6,0.2,3.7,0.4,4.7c0.3,1.5,0.9,2.6,1.5,2.6c0.3,0,0.5-0.3,0.8-0.8
		c0.3-0.8,0.6-1.5,0.8-2.6c0.3,0.4,0.5,0.5,0.9,0.9c-0.7,2.6-1.4,3.6-2.5,3.6c-0.8,0-1.6-0.8-2.1-2.3c-0.5-1.4-0.7-3.3-0.8-7
		c0-0.6,0-0.6,0-0.9L22.8,81.4z M30,82.2c1,1.2,1.6,2.1,2.1,3.4c0.6,1.3,0.9,2.3,1.1,4l-1,0.4c-0.3-2.8-1.4-5.4-3.1-7.4L30,82.2z"/>
	<path d="M35.2,83.4c0.4,0,0.4,0,3.1-0.6c1.7-0.4,3.1-0.6,4.3-0.6c2.7,0,4.5,1.5,4.5,3.8c0,1.9-1.1,3.4-3.1,4.4
		c-1.4,0.7-2.6,0.9-5,1.1c-0.1-0.5-0.2-0.7-0.5-1.1c1.7-0.1,3-0.3,4.2-0.7c2.1-0.8,3.2-2.1,3.2-3.8c0-1.7-1.2-2.7-3.3-2.7
		c-1.6,0-3.5,0.3-6.1,1.1c-0.6,0.2-0.8,0.2-1.1,0.4L35.2,83.4z"/>
	<path d="M50.3,85.9c0.6,0.3,1.5,0.5,2.7,0.6c0.1-0.7,0.2-1.9,0.3-2.7c-0.7-0.1-1.4-0.2-2.2-0.4c-0.2,0-0.3-0.1-0.5-0.1l0.1-1
		c0.6,0.3,1.6,0.5,2.7,0.6c0.2-1.4,0.4-2.4,0.4-2.8V80l1.2,0.1c-0.1,0.3-0.1,0.5-0.2,1c0,0.1,0,0.1-0.1,1c0,0.3-0.1,0.5-0.1,0.9
		c0.4,0,0.6,0,0.9,0c1.1,0,2.1-0.1,2.7-0.3v1c-0.3,0-0.3,0-1,0.1c-0.5,0-0.9,0.1-1.4,0.1c-0.2,0-0.5,0-1.3,0
		c-0.2,1.7-0.3,1.9-0.3,2.7c0.6,0,0.8,0,1,0c1.1,0,2.2-0.1,2.8-0.2v1c-0.1,0-0.2,0-0.4,0c-0.8,0.1-1.4,0.1-2.1,0.1
		c-0.4,0-0.6,0-1.3,0c0,0.1,0,0.1,0,0.3c0,0.4-0.1,0.9-0.1,1.1c0,0.8,0.2,1.4,0.7,1.8s1.2,0.6,2.1,0.6c2,0,3.3-1,3.3-2.6
		c0-0.9-0.5-1.8-1.4-2.6c0.5-0.1,0.7-0.1,1.1-0.3c1.1,1.2,1.4,1.9,1.4,3c0,2.1-1.8,3.5-4.4,3.5c-1.6,0-2.8-0.5-3.4-1.5
		c-0.3-0.5-0.5-1.2-0.5-2.1c0-0.3,0-0.6,0.1-1c0-0.2,0-0.2,0-0.4c-0.9-0.1-1.6-0.2-2.3-0.4C50.4,87,50.3,87,50.2,87L50.3,85.9z"/>
	<path d="M65.4,84.1c1.4,0.6,2.5,1.1,3.8,2l-0.6,1c-1.1-0.8-2.5-1.5-3.8-2.1L65.4,84.1z M65,90.9c1,0,2.5-0.4,4-0.9
		c1.9-0.7,3.3-1.8,4.5-3.3c0.8-1.1,1.3-2,1.8-3.4c0.4,0.4,0.5,0.5,0.9,0.8c-1.3,3.1-3.1,5.2-5.8,6.5c-1.1,0.5-2.6,1-3.8,1.3
		c-0.2,0-0.5,0.1-0.8,0.2s-0.4,0.1-0.6,0.2L65,90.9z M66.6,80.5c1.5,0.6,2.4,1.1,3.7,1.9l-0.6,1c-1-0.8-2.6-1.6-3.7-2L66.6,80.5z"/>
	<path d="M83.8,92.8c0.1-0.4,0.1-0.8,0.1-1.3v-3.8c0,0,0-0.1,0-0.2s0-0.1,0-0.3c0-0.1,0-0.1,0-0.2c-1,0.7-2.9,1.5-5.1,2.2
		c-0.2-0.5-0.3-0.6-0.6-1c1.8-0.5,2.9-0.8,4.3-1.5c1.9-0.9,3.6-2.1,5-3.7c-0.4,0-0.6,0-0.9,0h-5.7c-0.7,0-1,0-1.5,0.1V82
		c0.4,0.1,0.8,0.1,1.5,0.1h2.8v-1.3c0-0.5,0-0.7-0.1-1H85c-0.1,0.3-0.1,0.5-0.1,1v1.4H88c0.3,0,0.5,0,0.7-0.1l0.6,0.7
		C89.1,83,89,83,88.9,83.2c-1,1.2-1.8,1.9-3.5,3.1c2.3,0.9,3.6,1.5,5.5,2.6l-0.6,1c-1.2-0.8-2.5-1.5-4.9-2.6c-0.1,0-0.2-0.1-0.4-0.2
		c0,0.2,0.1,0.4,0.1,0.8v3.7c0,0.7,0,0.9,0.1,1.3L83.8,92.8L83.8,92.8z"/>
	<path d="M95.8,85c1.1,0.9,1.7,1.4,3,2.8c0.6-0.5,1.4-1.3,2-1.8c0.8-0.9,1.8-2.2,2.5-3.3c0-0.1,0.1-0.1,0.1-0.2c-0.2,0-0.2,0-8.6,0
		c-0.8,0-1.2,0-1.7,0.1v-1.2c0.5,0.1,0.9,0.1,1.8,0.1h8.7c0.5,0,0.6,0,0.8-0.1l0.6,0.8c-0.2,0.2-0.3,0.3-0.6,0.8
		c-1.5,2.3-3.1,4.1-4.9,5.6c0.6,0.6,1.2,1.4,2.2,2.7l-0.9,0.8c-1.4-2.2-3.6-4.6-5.8-6.4L95.8,85z"/>
	<path d="M115.7,83.2v-1.5c0-1.1,0-1.2,0-1.5h1.2c0,0.4,0,0.4-0.1,1.4c0,0.3,0,0.3,0,1.6h1.3c0.9,0,1.2,0,1.8-0.1v1.1
		c-0.5-0.1-0.9-0.1-1.7-0.1h-1.3c0,3-0.2,4-0.7,5.1c-0.5,1-1.4,1.8-2.4,2.5c-0.5,0.3-0.9,0.5-1.7,0.8c-0.2-0.4-0.3-0.6-0.7-0.9
		c1.3-0.4,2.1-0.8,2.9-1.5c1-0.9,1.5-1.9,1.6-3.7c0-0.5,0-0.9,0.1-2.2h-4.6v2.5c0,0.6,0,0.8,0.1,1.2h-1.2c0-0.3,0.1-0.6,0.1-1.3
		v-2.5h-1.3c-0.8,0-1.2,0-1.7,0.1v-1.1c0.5,0.1,0.9,0.1,1.8,0.1h1.2v-1.7c0-0.6,0-0.9-0.1-1.3h1.2c-0.1,0.4-0.1,0.5-0.1,1.2v1.8
		H115.7z"/>
	<path d="M122.4,90.7c1.2,0,3-0.5,4.4-1.2c2.9-1.3,4.9-3.5,6.1-6.7c0.3,0.5,0.5,0.6,0.9,0.9c-1.2,2.6-2.6,4.4-4.6,5.7
		c-1.5,1.1-3.1,1.7-5.6,2.2c-0.4,0.1-0.5,0.1-0.9,0.2L122.4,90.7z M123.4,81.4c1.6,1,2.5,1.8,3.6,2.8l-0.8,0.9
		c-1.1-1.2-2.3-2.1-3.6-2.9L123.4,81.4z"/>
	<path d="M137.4,84.1c1.4,0.6,2.5,1.1,3.8,2l-0.6,1c-1.1-0.8-2.5-1.5-3.8-2.1L137.4,84.1z M137,90.9c1,0,2.5-0.4,4-0.9
		c1.9-0.7,3.3-1.8,4.5-3.3c0.8-1.1,1.3-2,1.8-3.4c0.4,0.4,0.5,0.5,0.9,0.8c-1.3,3.1-3.1,5.2-5.8,6.5c-1.1,0.5-2.6,1-3.8,1.3
		c-0.2,0-0.5,0.1-0.8,0.2s-0.4,0.1-0.6,0.2L137,90.9z M138.6,80.5c1.5,0.6,2.4,1.1,3.7,1.9l-0.6,1c-1-0.8-2.6-1.6-3.7-2L138.6,80.5z
		"/>
	<path d="M153.9,83.8c-0.1-0.8-0.1-0.8-0.3-1.1l1.1-0.2c0,0.3,0,0.3,0.2,1.1l0.2,1.3l5-0.8c0.3-0.1,0.5-0.1,0.6-0.2l0.6,0.6
		c-0.1,0.2-0.2,0.3-0.3,0.7c-0.6,1.5-1.5,2.6-2.9,3.5c-0.3-0.3-0.4-0.4-0.8-0.6c1.3-0.8,2.1-1.6,2.7-2.9c0,0,0-0.1,0.1-0.1
		c-0.2,0-0.2,0-0.4,0.1l-4.5,0.7l1.1,5.6c0.2,0.8,0.2,0.8,0.3,1.2l-1.2,0.2c0-0.4,0-0.7-0.1-1.2l-1-5.7l-1.5,0.3
		c-0.6,0.1-0.9,0.2-1.3,0.3l-0.2-1.1c0.5,0,0.8,0,1.4-0.1l1.4-0.2L153.9,83.8z"/>
	<path d="M176.3,80.8c-0.3,0.2-0.3,0.2-0.7,0.6c-0.9,1-2.2,2.1-3.5,3v6.4c0,0.9,0,1.2,0.1,1.6h-1.3c0.1-0.4,0.1-0.7,0.1-1.6v-5.7
		c-2,1.2-3,1.7-5.8,2.6c-0.2-0.5-0.3-0.6-0.6-1c2.8-0.7,5.4-2,7.8-3.9c1.4-1.1,2.4-2.1,2.9-2.8L176.3,80.8z"/>
	<path d="M180,90.7c1.2,0,3-0.5,4.4-1.2c2.9-1.3,4.9-3.5,6.1-6.7c0.3,0.5,0.5,0.6,0.9,0.9c-1.2,2.6-2.6,4.4-4.6,5.7
		c-1.5,1.1-3.1,1.7-5.6,2.2c-0.4,0.1-0.5,0.1-0.9,0.2L180,90.7z M181,81.4c1.6,1,2.5,1.8,3.6,2.8l-0.8,0.9c-1.1-1.2-2.3-2.1-3.6-2.9
		L181,81.4z"/>
	<path d="M197.7,81.9c0.5-1,0.7-1.6,0.7-2.1l1.2,0.2c-0.1,0.2-0.1,0.2-0.4,0.8c-0.2,0.5-0.4,0.9-0.5,1c0.2,0,0.2,0,0.3,0
		c2.4-0.1,3.9-0.3,4.7-0.6l0.1,1c-0.2,0-0.3,0-0.6,0.1c-1.6,0.2-3.1,0.3-4.9,0.4c-0.5,0.9-0.8,1.5-1.3,2.1c-0.2,0.2-0.5,0.5-0.5,0.6
		c-0.1,0.1-0.2,0.1-0.2,0.1l0,0l0,0l0,0c0.5-0.4,0.5-0.4,0.7-0.5c0.7-0.5,1.5-0.7,2.3-0.7c1.1,0,1.8,0.6,2,1.7c1.1-0.4,2-0.8,2.6-1
		c0.7-0.3,0.8-0.3,1-0.4l0.5,1c-0.8,0.1-2.1,0.6-4,1.3c0,0.4,0,0.5,0,0.9c0,0.2,0,0.5,0,0.8s0,0.5,0,0.7s0,0.3,0,0.5h-1
		c0-0.3,0.1-1.2,0.1-2.2c0-0.2,0-0.3,0-0.4c-2,1-2.8,1.7-2.8,2.6c0,1,0.9,1.4,3,1.4c1.5,0,3.2-0.2,4-0.6l0.1,1.2
		c-0.2,0-0.3,0-0.6,0.1c-1.2,0.2-2.5,0.3-3.6,0.3c-2.7,0-4-0.8-4-2.3c0-0.8,0.5-1.6,1.5-2.4c0.5-0.4,1.2-0.8,2.2-1.2
		c-0.1-0.8-0.5-1.2-1.2-1.2c-0.9,0-2.1,0.6-3.3,1.6c-0.6,0.5-0.9,0.8-1.2,1.2l-0.8-0.8c1-0.8,2.3-2.4,3.4-4.3c0-0.1,0-0.1,0.1-0.2
		c-0.1,0-0.2,0-0.3,0c-0.2,0-1.7,0-2.2,0c-0.1,0-0.2,0-0.2,0c-0.1,0-0.2,0-0.3,0v-1c0.5,0.1,1.7,0.2,3.2,0.2h0.2V81.9z"/>
	<path d="M211.6,86.7c-1,0.8-1.4,1.5-1.4,2.2s0.4,1.2,1.3,1.5c0.6,0.2,1.6,0.3,2.7,0.3c1.9,0,3.7-0.2,4.5-0.6l0.1,1.2
		c-0.2,0-0.2,0-0.5,0.1c-1.3,0.2-2.7,0.3-4,0.3c-1.4,0-2.7-0.2-3.5-0.5c-1.1-0.5-1.7-1.2-1.7-2.3c0-1,0.6-1.9,1.7-2.9L211.6,86.7z
		 M210.1,81.2c1.1,0.3,2.3,0.4,4,0.4c1.8,0,3-0.1,3.8-0.3l0.1,1c-0.9,0.4-2.5,1.3-3.8,2.3l-0.8-0.6c1.2-0.8,1.6-1,2.7-1.6
		c-0.9,0.2-1.4,0.2-2.3,0.2c-1,0-2.3-0.1-3.3-0.2c-0.3,0-0.3,0-0.5,0L210.1,81.2z M217.6,83.8c0.7,0.8,1.1,1.4,1.5,2.3l-0.8,0.5
		c-0.4-0.8-1.1-1.9-1.5-2.4L217.6,83.8z M219.2,82.9c0.7,0.8,1.1,1.4,1.6,2.3l-0.8,0.4c-0.3-0.7-1-1.7-1.5-2.4L219.2,82.9z"/>
	<path d="M225.1,81.6c-0.9,0.2-1.4,0.3-2.5,0.5c-0.1-0.3-0.2-0.6-0.4-0.9c1.8-0.2,3-0.5,4.8-1.1c0.5-0.2,0.7-0.3,1-0.4l0.7,0.8
		c-0.2,0.1-0.2,0.1-0.6,0.2c-0.7,0.3-1.2,0.4-2,0.6v2.3h1.5c0.5,0,0.9,0,1.3-0.1v1c-0.4-0.1-0.7-0.1-1.3-0.1H226
		c0.3,0.6,0.4,0.8,0.7,1.3c0.5,0.7,0.9,1.2,1.9,2c-0.3,0.3-0.4,0.5-0.6,0.8c-1.1-1.2-1.5-1.8-2.1-3c0,0.8,0.1,1.9,0.1,2.5v3.1
		c0,0.9,0,1.4,0.1,1.8H225c0.1-0.5,0.1-1,0.1-1.8v-2.9c0-0.8,0-1.3,0.1-2.5c-0.7,1.9-1.4,3.1-2.8,4.5c-0.2-0.4-0.4-0.6-0.6-0.9
		c0.9-0.8,1.5-1.5,2-2.5c0.5-0.8,0.9-1.8,1.2-2.5h-1.4c-0.6,0-1,0-1.4,0.1v-1c0.3,0.1,0.7,0.1,1.4,0.1h1.6v-1.9H225.1z M230.9,80.6
		c-0.1,0.5-0.1,0.8-0.1,1.7v5.8c0,1,0,1.3,0.1,1.7h-1.1c0.1-0.4,0.1-0.7,0.1-1.7v-5.8c0-0.8,0-1.2-0.1-1.7H230.9z M234.7,79.8
		c-0.1,0.5-0.1,1.1-0.1,1.9v9.9c0,1.1-0.4,1.3-1.8,1.3c-0.4,0-1,0-1.5,0c-0.1-0.4-0.2-0.6-0.3-1c0.8,0.1,1.4,0.1,1.9,0.1
		c0.6,0,0.7-0.1,0.7-0.4v-9.8c0-0.9,0-1.4-0.1-1.9L234.7,79.8L234.7,79.8z"/>
	<path d="M243.5,91c0,0.8,0,1.3,0.1,1.6h-1.1c0.1-0.4,0.1-0.8,0.1-1.6v-2.8h-4.1c-0.2,2.3-0.6,3.5-1.6,4.9c-0.3-0.3-0.5-0.4-0.9-0.6
		c0.6-0.8,1-1.5,1.2-2.5c0.3-1.4,0.5-3.6,0.5-7.3c0-1.5,0-1.8-0.1-2.4c0.5,0,0.9,0.1,1.7,0.1h8.1c0.8,0,1.2,0,1.6-0.1
		c0,0.4-0.1,0.8-0.1,1.5v10.1c0,0.9-0.3,1.2-1.8,1.2c-0.5,0-1.2,0-1.9-0.1c0-0.3-0.1-0.6-0.2-1c0.9,0.1,1.6,0.2,2.1,0.2
		c0.7,0,0.8-0.1,0.8-0.5v-3.4h-4.4L243.5,91L243.5,91z M238.6,84.6c0,0.4,0,0.8,0,1c0,0.9,0,1-0.1,1.7h4v-2.7H238.6z M242.6,81.1
		h-3.9v1.8v0.8h4v-2.6H242.6z M247.9,83.7v-2.6h-4.4v2.6H247.9z M243.5,87.3h4.4v-2.7h-4.4V87.3z"/>
	<path d="M253.2,81.4c-0.1,0.5-0.1,1-0.1,1.8c0,1.6,0.2,3.7,0.4,4.7c0.3,1.5,0.9,2.6,1.5,2.6c0.3,0,0.5-0.3,0.8-0.8
		c0.3-0.8,0.6-1.5,0.8-2.6c0.3,0.4,0.5,0.5,0.9,0.9c-0.7,2.6-1.4,3.6-2.5,3.6c-0.8,0-1.6-0.8-2.1-2.3c-0.5-1.4-0.7-3.3-0.8-7
		c0-0.6,0-0.6,0-0.9L253.2,81.4z M260.4,82.2c1,1.2,1.6,2.1,2.1,3.4c0.6,1.3,0.9,2.3,1.1,4l-1.1,0.4c-0.3-2.8-1.4-5.4-3.1-7.4
		L260.4,82.2z"/>
	<path d="M265.9,82.6c0.5,0.1,1.1,0.1,1.9,0.1c0.3,0,0.5,0,0.9,0c0.3-1.8,0.3-2.1,0.3-2.8l1.2,0.1c-0.1,0.4-0.1,0.4-0.3,1.4
		c-0.1,0.5-0.1,0.7-0.2,1.1c1.2-0.1,2-0.3,2.7-0.5l0.1,1c-0.1,0-0.1,0-0.4,0.1c-0.8,0.2-1.8,0.3-2.5,0.4c-0.2,1.2-0.6,2.9-1,4.2
		c-0.5,1.6-0.9,2.7-1.7,4.6l-1.1-0.5c1.1-1.9,2.3-5.4,2.8-8.3c-0.3,0-0.5,0-1,0s-0.7,0-1.2,0h-0.1c0,0-0.1,0-0.3,0L265.9,82.6
		L265.9,82.6z M272.6,88c-0.3,0.4-0.3,0.4-0.5,0.6c-0.2,0.3-0.4,0.7-0.4,1.1c0,0.9,0.9,1.4,2.6,1.4c1.1,0,2.5-0.2,3.3-0.5l0.1,1.1
		c-0.2,0-0.2,0-0.7,0.1c-1,0.2-1.9,0.3-2.7,0.3c-2.5,0-3.7-0.8-3.7-2.2c0-0.7,0.2-1.1,1-2.2L272.6,88z M277.3,85.4
		c-0.7-0.1-1.1-0.1-1.8-0.1c-1.3,0-2.4,0.1-3.8,0.5l-0.1-1c1.7-0.4,2.7-0.5,4-0.5c0.3,0,0.5,0,1.6,0L277.3,85.4z"/>
	<path d="M280.2,82.6c0.5,0.1,1.1,0.1,1.9,0.1c0.3,0,0.5,0,0.9,0c0.3-1.6,0.3-2.1,0.3-2.7v-0.1l1.2,0.1c-0.1,0.2-0.1,0.3-0.1,0.5
		c0,0.1-0.1,0.4-0.2,0.9s-0.1,0.7-0.2,1.1c1-0.1,2.1-0.3,2.7-0.5l0.1,1h-0.2l-0.3,0.1c-1,0.2-1.8,0.3-2.5,0.4
		c-0.6,3.2-1.5,6.1-2.8,8.8l-1.1-0.5c1.1-1.8,2.2-5.2,2.8-8.3c-0.3,0-0.5,0-1,0s-0.7,0-1.2,0h-0.1c0,0-0.1,0-0.3,0v-0.9H280.2z
		 M286.9,88c-0.3,0.4-0.3,0.4-0.4,0.6c-0.2,0.3-0.4,0.7-0.4,1.1c0,0.9,0.9,1.4,2.6,1.4c1.1,0,2.5-0.2,3.3-0.5l0.1,1.1h-0.2l-0.5,0.1
		c-1,0.2-1.9,0.2-2.7,0.2c-2.5,0-3.7-0.8-3.7-2.2c0-0.7,0.2-1.1,1-2.2L286.9,88z M291.5,85.4c-0.7-0.1-1.1-0.1-1.8-0.1
		c-1.3,0-2.4,0.1-3.8,0.5l-0.1-1c1.7-0.4,2.7-0.5,4-0.5c0.3,0,0.5,0,1.6,0L291.5,85.4z M289.3,80.2c0.7,0.8,1.1,1.4,1.5,2.3L290,83
		c-0.4-0.8-1.1-1.9-1.5-2.4L289.3,80.2z M291,79.4c0.7,0.8,1,1.4,1.5,2.3l-0.8,0.4c-0.3-0.7-0.9-1.7-1.5-2.4L291,79.4z"/>
	<path d="M295.4,82.3c0.4,0,0.6,0,1.1,0c1.3,0,2.2-0.1,3.6-0.2c-0.5-1.2-0.8-1.8-0.9-2.1l1.1-0.2c0.1,0.5,0.4,1.3,0.8,2.1
		c1.8-0.3,3.2-0.6,4-1l0.1,1c-1.3,0.4-2.9,0.7-3.8,0.8c0.2,0.5,0.6,1.3,0.9,1.7c2-0.4,2.8-0.6,3.4-0.9l0.1,1
		c-0.3,0.1-0.3,0.1-0.8,0.2c-1,0.3-1.8,0.4-2.4,0.5c0.9,1.4,1,1.6,2.2,3l-0.9,0.6c-0.6-0.3-0.9-0.4-1.6-0.6c-0.5-0.1-1.3-0.1-2-0.1
		c-2.2,0-3.6,0.7-3.6,1.7s1.1,1.5,3.2,1.5c1.6,0,3.5-0.5,4.4-1l0.2,1.2c-0.2,0-0.2,0-0.9,0.3c-1.2,0.4-2.5,0.6-3.8,0.6
		c-1.4,0-2.3-0.2-3.1-0.6c-0.7-0.4-1.1-1.1-1.1-1.9c0-1.6,1.7-2.6,4.6-2.6c1.2,0,2,0.1,3,0.4c-0.5-0.5-1.1-1.4-1.6-2.3
		c-1.5,0.3-2.5,0.3-5.3,0.4c-0.7,0-0.8,0-1,0.1v-1c0.3,0,0.6,0,1.2,0c1.6,0,3.5-0.2,4.7-0.4c-0.4-0.7-0.5-0.9-0.9-1.7
		c-1.2,0.2-2.4,0.2-4,0.3c-0.6,0-0.7,0-0.9,0L295.4,82.3z"/>
	<path d="M320,91.9c-0.7-0.7-1.8-1.5-3.1-2.1c-0.3-0.1-0.6-0.3-1-0.5c0,0.3,0,0.3,0,0.5c0,0.8-0.1,1.3-0.4,1.6
		c-0.4,0.6-1.3,0.9-2.5,0.9c-1,0-1.8-0.2-2.3-0.6s-0.8-1-0.8-1.6c0-1,0.8-1.8,2.1-2.1c0.5-0.1,0.9-0.2,1.6-0.2c0.5,0,0.7,0,1.4,0.1
		c0,0,0,0,0-0.2c0,0,0-0.1,0-0.2s0-0.5,0-0.9c0-0.2,0-0.5,0-0.9c-0.5,0-1.3,0-1.8,0c-0.9,0-1.6,0-2.5-0.1c-0.2,0-0.3,0-0.4,0h-0.1
		v-1c0.7,0.1,1.9,0.2,3.4,0.2c0.4,0,0.9,0,1.3,0v-2.1c-0.4,0-0.7,0-1,0c-1.1,0-2.3,0-3.7-0.1c-0.1,0-0.2,0-0.3,0c0,0-0.1,0-0.2,0v-1
		c0.6,0.2,2.2,0.3,3.8,0.3c0.3,0,0.8,0,1.3,0c0-1.8,0-1.8-0.1-2.2h1.2c-0.1,0.3-0.1,1-0.1,2.1c2.1-0.1,3.6-0.3,4.4-0.6l0.1,1
		c-0.3,0-0.3,0-1,0.1c-1.4,0.2-1.8,0.3-3.5,0.4c0,1.2,0,1.2,0,2c2-0.2,3.3-0.3,4.2-0.6l0.1,1c-0.2,0-0.3,0-0.9,0.1
		c-1,0.2-2.2,0.3-3.3,0.4c0,0.8,0,0.8,0.1,2.3c1.3,0.4,2.6,1,4.2,2.2c0.2,0.2,0.3,0.2,0.5,0.3L320,91.9z M314.9,89
		c-0.6-0.1-0.9-0.2-1.5-0.2c-1.5,0-2.5,0.5-2.5,1.3s0.8,1.2,2.1,1.2c0.8,0,1.4-0.2,1.7-0.5c0.2-0.2,0.3-0.6,0.3-1.4L314.9,89z"/>
	<path d="M24.3,110.3c-0.1,0.5-0.1,1.3-0.2,3.2c-0.1,1.8-0.1,3.8-0.1,4.5c0,0.2,0,0.6,0,0.9c0.1,0.9,0.3,1.4,0.7,1.8
		c0.4,0.4,1.1,0.6,1.9,0.6c1.8,0,3.2-0.9,4-2.6c0.3-0.7,0.5-1.3,0.7-2.4c0.4,0.4,0.6,0.5,1.1,0.7c-0.6,1.8-1,2.6-1.7,3.4
		c-1.1,1.3-2.5,1.9-4.2,1.9c-1.3,0-2.2-0.4-2.8-1c-0.6-0.7-0.8-1.5-0.8-3.1c0-1,0-1.4,0.1-6.1c0-0.4,0-0.7,0-1s0-0.5-0.1-0.8H24.3z"
		/>
	<path d="M35.3,112.1c0.3,0,0.4,0,0.5,0c0.2,0,0.4,0,0.9,0c1.8-0.1,6.6-0.4,8.5-0.5c0.8,0,1.5-0.1,1.8-0.2l0.1,1.1
		c-0.6,0-1.1,0.1-1.7,0.2c-1,0.3-2.1,0.8-2.9,1.5c-1.2,1-1.8,2.2-1.8,3.5s0.8,2.3,2.1,2.8c0.7,0.3,1.7,0.5,2.2,0.5h0.1l-0.2,1.2
		c-0.2,0-0.2,0-0.5-0.1c-1.5-0.3-2.4-0.6-3.2-1.2c-1.1-0.7-1.7-1.8-1.7-3.1c0-1.7,1-3.4,2.8-4.6c0.5-0.3,0.9-0.5,1.4-0.8
		c-0.9,0.1-1.6,0.2-3.3,0.3c-3.1,0.2-4.4,0.3-5.2,0.5L35.3,112.1z"/>
	<path d="M49.7,119.1c1.2,1,2,1.8,3,3.2l-0.8,0.8c-1-1.4-1.8-2.3-3-3.3L49.7,119.1z"/>
	<path d="M63.3,112c0.3,0.1,0.6,0.1,1.2,0.1h2.4c0.6,0,0.8,0,1.2-0.1v1c-0.3,0-0.5-0.1-1.1-0.1h-2.5c-0.5,0-0.8,0-1.2,0.1V112z
		 M63.8,122.9c0-0.4,0.1-1,0.1-1.5v-1.9c0-0.5,0-0.8-0.1-1.2c0.3,0,0.5,0.1,1,0.1h1.8c0.5,0,0.7,0,0.9,0c0,0.3,0,0.4,0,1.2v1.6
		c0,0.4,0,0.6,0,1c-0.2,0-0.5,0-0.8,0h-2v0.9h-0.9V122.9z M63.8,114.1c0.3,0,0.5,0.1,1,0.1h1.8c0.5,0,0.7,0,1-0.1v0.9
		c-0.3,0-0.6-0.1-1-0.1h-1.8c-0.5,0-0.7,0-1,0.1C63.8,115,63.8,114.1,63.8,114.1z M63.8,116.2c0.3,0,0.5,0.1,1,0.1h1.8
		c0.5,0,0.7,0,1-0.1v0.9c-0.3,0-0.6-0.1-1-0.1h-1.8c-0.4,0-0.7,0-1,0.1C63.8,117.1,63.8,116.2,63.8,116.2z M63.9,110
		c0.3,0.1,0.6,0.1,1.1,0.1h1.8c0.5,0,0.7,0,1.1-0.1v0.9c-0.3,0-0.6-0.1-1.1-0.1H65c-0.4,0-0.7,0-1.1,0.1V110z M64.7,121.2h2v-2.1h-2
		V121.2z M73.9,112.8c0,0.2,0,0.5,0,0.6c0,1.9,0.2,3.2,0.5,4.6c0.6-1.1,0.9-1.9,1.2-3c0.1-0.2,0.1-0.3,0.1-0.8l0.9,0.4
		c-0.1,0.2-0.1,0.3-0.3,0.8c-0.5,1.6-1,2.6-1.7,3.7c0.4,1.3,1,2.3,1.3,2.5c0.1-0.1,0.1-0.1,0.3-0.6c0.1-0.2,0.1-0.9,0.1-1.5
		c0.3,0.3,0.5,0.4,0.8,0.5c-0.2,2-0.5,2.7-1.1,2.7c-0.4,0-0.8-0.3-1.2-1c-0.3-0.5-0.6-1.1-0.8-1.6c-0.9,1.3-1.8,2.1-3.3,3.1
		c-0.2-0.3-0.4-0.5-0.7-0.7c1.7-1,2.7-1.9,3.7-3.4c-0.5-1.6-0.7-3.5-0.8-6.3h-3.4v0.9c0,0.4,0,0.7,0,1.3H71c0.6,0,1,0,1.3-0.1
		c0,0.3,0,0.3-0.1,1.6c-0.1,1.9-0.2,3.1-0.4,3.5c-0.2,0.4-0.5,0.5-1.1,0.5c-0.2,0-0.5,0-0.8-0.1c0-0.3,0-0.5-0.2-0.9
		c0.4,0.1,0.7,0.1,1,0.1c0.4,0,0.5-0.1,0.5-0.7c0.1-0.6,0.2-2.1,0.2-3.2h-1.8c-0.1,2.1-0.1,3-0.2,3.8c-0.2,1.4-0.5,2.3-1.1,3.5
		c-0.2-0.3-0.4-0.5-0.8-0.6c0.5-0.9,0.8-1.6,0.9-2.8c0.1-1,0.3-3.4,0.3-6.1c0-0.9,0-1.3-0.1-1.8c0.3,0,0.9,0.1,1.5,0.1H73
		c0-0.4,0-0.7,0-1.4c0-0.4,0-0.7-0.1-1h1c-0.1,0.3-0.1,0.6-0.1,1c0,0.1,0,0.3,0,0.6c0,0.2,0,0.4,0,0.7h1.6c0.6,0,1.1,0,1.5-0.1v1
		c-0.4,0-0.9-0.1-1.5-0.1h-1.5V112.8z M75.9,111.6c-0.6-0.7-0.8-0.9-1.6-1.5l0.6-0.5c0.8,0.6,1,0.7,1.7,1.4L75.9,111.6z"/>
	<path d="M81.2,110.5c-0.2,0.6-0.4,1.4-0.6,2.4c-0.3,1.6-0.5,2.9-0.5,4.7c0,1.2,0,2.1,0.1,2.9c0.2-1,0.5-1.8,1-2.9l0.7,0.3
		c-0.7,1.5-1.2,3.3-1.2,4.1c0,0,0,0.1,0,0.2l-1.1,0.1c0-0.2,0-0.3-0.1-0.6c-0.3-1.6-0.4-2.7-0.4-4.2c0-2.1,0.2-3.7,0.7-5.9
		c0.2-0.7,0.2-0.9,0.2-1.2L81.2,110.5z M85,116.6c-0.7,0.8-1.1,1.5-1.1,2.2c0,1.1,0.9,1.6,2.9,1.6c1.4,0,2.6-0.2,3.4-0.5l0.1,1.2
		c-0.2,0-0.2,0-0.5,0.1c-1,0.2-2.1,0.3-3.1,0.3c-1.7,0-2.8-0.4-3.4-1.1c-0.3-0.4-0.5-0.8-0.5-1.4c0-0.9,0.4-1.7,1.3-2.8L85,116.6z
		 M83.1,112.1c0.6,0.2,1.4,0.2,2.5,0.2c1.7,0,3-0.1,4-0.4l0.1,1.1c0,0-0.4,0-1,0.1c-0.9,0.1-2.1,0.2-3.2,0.2c-0.8,0-1.4,0-2.4-0.1
		V112.1z"/>
	<path d="M93.6,111.8c0.6,0.2,1.4,0.2,2.8,0.2c0,0,0.1,0,0.4,0c0-0.4,0-0.4,0.1-1.1c0-0.2,0-0.8,0-0.9c0,0,0-0.1,0-0.2l1.2,0.1
		c-0.1,0.4-0.2,0.9-0.3,2.1c2.4-0.1,4.6-0.4,5.7-0.8l0.1,1c-0.2,0-0.2,0-0.5,0.1c-1.6,0.3-3.9,0.6-5.3,0.6c-0.1,1.3-0.1,1.3-0.1,2
		c0.8-0.2,1.4-0.3,2.2-0.3c0.3,0,0.5,0,0.9,0c0.2-0.4,0.3-0.9,0.4-1.3l1,0.3c0,0.1-0.2,0.5-0.5,1.2c2.1,0.5,3.2,1.8,3.2,3.5
		c0,1.5-0.8,2.7-2.4,3.5c-0.9,0.4-1.7,0.7-3.1,0.9c-0.1-0.4-0.2-0.6-0.5-1c0.9,0,1.5-0.1,2.2-0.4c1.6-0.6,2.6-1.7,2.6-3
		s-0.9-2.2-2.5-2.6c-0.9,2-1.7,3.3-2.9,4.5c-1.2,1.2-2.3,1.8-3.3,1.8c-1.1,0-1.9-0.9-1.9-2.3c0-1.8,1.3-3.5,3.5-4.5
		c0-1.1,0-1.2,0.1-2.3h-0.6c-0.2,0-0.8,0-2-0.1c-0.1,0-0.2,0-0.3,0c-0.1,0-0.1,0-0.2,0L93.6,111.8z M95,117.4
		c-0.6,0.7-0.9,1.5-0.9,2.2c0,0.8,0.4,1.4,1.1,1.4c0.6,0,1-0.2,1.7-0.8c-0.2-1.2-0.3-2.2-0.3-4.1C95.9,116.6,95.4,116.9,95,117.4z
		 M97.7,119.6c0.2-0.2,0.2-0.3,0.3-0.4c1-1.1,1.6-2.2,2.3-3.8c-0.5,0-0.6,0-0.7,0c-0.7,0-1.4,0.1-2.1,0.3c0,1.9,0,2.2,0.2,3.4
		c0,0.1,0,0.1,0,0.2C97.7,119.4,97.7,119.5,97.7,119.6L97.7,119.6z"/>
	<path d="M111,110c-0.1,0.3-0.2,0.7-0.3,1.5c-0.2,1.5-0.5,3.1-0.5,3.9h0.1c0-0.1,0-0.1,0.1-0.4c0.2-0.8,0.5-1.6,0.9-2.2
		c0.8-1.3,1.8-1.9,3-1.9c1,0,1.8,0.5,2.4,1.3c0.6,0.9,0.9,2,0.9,3.6c0,2.7-1.2,4.8-3.5,5.9c-0.7,0.4-1.6,0.7-2.7,0.9
		c-0.2-0.5-0.3-0.6-0.6-1c1.4-0.2,2.2-0.5,3-0.9c1.8-1,2.6-2.6,2.6-5s-0.8-3.8-2.3-3.8c-1.1,0-2.1,0.9-3,2.6
		c-0.5,1.1-0.8,2.2-0.8,3.3c0,0.1,0,0.1,0,0.4h-1.1c0-0.1,0-0.1,0-0.2v-0.3v-1.6c0-0.1,0-0.3,0-0.3c0-1.5,0.1-2.9,0.5-5.5
		c0-0.2,0-0.3,0-0.5L111,110z"/>
	<path d="M121.4,113.8c0.5,0,1.1-0.1,3.3-0.4c0.3-1.1,0.5-2.5,0.5-3.2c0,0,0-0.1,0-0.2l1.2,0.1c-0.1,0.3-0.2,0.6-0.3,1.4
		c-0.1,0.4-0.2,1.1-0.3,1.7c0.3,0,0.5,0,0.9,0c1.1,0,1.7,0.2,2.2,0.6c0.5,0.5,0.7,1.2,0.7,2.4c0,2.3-0.4,4.3-1,5.2
		c-0.4,0.5-0.8,0.7-1.5,0.7c-0.6,0-1.3-0.2-2.3-0.6c0-0.2,0-0.3,0-0.5s0-0.3,0-0.6c0.9,0.4,1.7,0.7,2.2,0.7c0.4,0,0.7-0.2,0.9-0.7
		c0.4-1,0.6-2.5,0.6-4.2c0-1.6-0.4-2.1-1.8-2.1c-0.3,0-0.5,0-1.1,0.1c-0.6,2.8-1.7,5.4-3.2,8.2l-1-0.6c1.2-1.6,2.5-4.6,3.2-7.5
		c-1.9,0.3-2.3,0.3-3,0.5L121.4,113.8z M131.3,112.4c1.5,1.6,2.5,3.3,3.1,5.3l-1,0.5c-0.5-1.9-1.7-4-3.1-5.4L131.3,112.4z
		 M131.9,109.9c0.7,0.8,1.1,1.4,1.5,2.3l-0.8,0.4c-0.4-0.8-1.1-1.9-1.5-2.4L131.9,109.9z M133.6,109.1c0.7,0.8,1.1,1.4,1.5,2.3
		l-0.8,0.4c-0.3-0.7-0.9-1.7-1.5-2.4L133.6,109.1z"/>
	<path d="M140.5,110c0.1,1,0.6,3.5,1.1,5c0.9-0.4,1.3-0.5,3.6-1.3c0.5-0.2,0.7-0.2,1-0.4l0.5,1.1c-1,0.2-3.2,0.9-4.5,1.5
		c-2.6,1-3.7,2-3.7,3.3c0,1.4,1.2,1.9,4.1,1.9c1.7,0,3.4-0.2,4.3-0.5l0.1,1.2c-0.3,0-0.3,0-1.1,0.1c-1.5,0.1-2.3,0.2-3.3,0.2
		c-1.5,0-2.6-0.1-3.3-0.4c-1.2-0.5-1.9-1.3-1.9-2.5c0-1,0.5-1.8,1.3-2.5c0.6-0.5,1-0.8,2-1.2c-0.4-1.2-0.7-2.3-1.1-4.2
		c-0.1-0.6-0.2-0.7-0.3-0.9L140.5,110z"/>
	<path d="M151.4,114.9c0.3,0,0.3,0,1.5-0.3c2-0.4,3.4-0.5,4.6-0.5c1.1,0,2,0.2,2.6,0.6c0.8,0.5,1.3,1.4,1.3,2.4c0,1.6-0.9,3-2.6,4
		c-1.1,0.7-2.1,1-4.4,1.4c-0.2-0.6-0.3-0.7-0.5-1.1c1.6-0.1,3-0.5,4.2-1.2c0.6-0.3,0.9-0.6,1.3-1.1c0.5-0.7,0.8-1.4,0.8-2
		c0-0.8-0.3-1.3-1-1.7c-0.4-0.2-1.1-0.3-1.8-0.3c-1.5,0-4.5,0.5-5.7,1L151.4,114.9z M153.6,110.2c1.5,0.6,3.6,0.9,6.1,0.9l-0.2,1.1
		c-2.4-0.1-4.3-0.4-6.3-1L153.6,110.2z"/>
	<path d="M168.4,116.7c-1,0.8-1.4,1.5-1.4,2.2s0.4,1.2,1.3,1.5c0.6,0.2,1.6,0.3,2.7,0.3c1.9,0,3.7-0.2,4.5-0.6l0.1,1.2
		c-0.2,0-0.2,0-0.5,0.1c-1.3,0.2-2.7,0.3-4,0.3c-1.4,0-2.7-0.2-3.4-0.5c-1.1-0.5-1.7-1.2-1.7-2.3c0-1,0.6-1.9,1.7-2.9L168.4,116.7z
		 M166.9,111.3c1.1,0.3,2.3,0.4,4,0.4c1.8,0,3-0.1,3.8-0.3l0.1,1c-0.9,0.4-2.5,1.3-3.8,2.3l-0.8-0.6c1.2-0.8,1.6-1,2.7-1.6
		c-0.9,0.2-1.4,0.2-2.3,0.2c-1,0-2.3-0.1-3.3-0.2c-0.3,0-0.3,0-0.5,0L166.9,111.3z M174.4,113.9c0.7,0.8,1.1,1.4,1.5,2.3l-0.8,0.5
		c-0.4-0.8-1.1-1.9-1.5-2.4L174.4,113.9z M176,113c0.7,0.8,1.1,1.4,1.6,2.3l-0.8,0.4c-0.3-0.7-1-1.7-1.5-2.4L176,113z"/>
	<path d="M179.9,113.1c0.4,0,0.6,0.1,1.2,0.1c1.4,0,3.1-0.1,4.5-0.3c-0.2-0.6-0.5-1.1-0.7-1.8c-0.2-0.4-0.3-0.6-0.4-0.9l1.2-0.2
		c0.1,0.4,0.1,0.4,0.4,1.3c0.4,1,0.4,1.1,0.5,1.3c1.3-0.2,2.5-0.5,2.8-0.7l0.1,1c-0.1,0-0.1,0-0.2,0c0,0-0.2,0-0.3,0.1
		c-0.1,0-0.3,0.1-0.4,0.1c-0.6,0.1-1,0.2-1.3,0.3c-0.2,0-0.3,0.1-0.3,0.1l0,0c0.6,1.3,1.8,3.1,2.7,4.4l-1,0.6
		c-0.4-0.3-0.6-0.5-1-0.6c-0.8-0.3-1.6-0.4-2.6-0.4c-1.3,0-2.2,0.2-2.9,0.6c-0.5,0.3-0.8,0.9-0.8,1.4s0.2,0.9,0.6,1.2
		c0.6,0.4,1.6,0.7,2.9,0.7c1.5,0,3.1-0.4,4.3-0.9l0.2,1.2c-1.5,0.5-2.9,0.8-4.4,0.8c-1.8,0-3.2-0.4-3.9-1.1c-0.4-0.5-0.7-1-0.7-1.6
		c0-1,0.6-1.9,1.7-2.4c0.8-0.4,1.7-0.6,2.9-0.6c1.3,0,2.5,0.2,3.1,0.5c-0.7-0.9-1.2-1.7-1.8-2.9c-0.1-0.2-0.2-0.3-0.2-0.3L186,114
		c-1.6,0.2-3.4,0.4-5.3,0.4c-0.3,0-0.4,0-0.6,0L179.9,113.1z M189.6,109.8c0.7,0.8,1.1,1.4,1.6,2.3l-0.8,0.5
		c-0.4-0.8-1.2-1.9-1.6-2.3L189.6,109.8z M191.2,108.9c0.7,0.8,1.1,1.4,1.6,2.3l-0.8,0.4c-0.3-0.7-1-1.6-1.6-2.3L191.2,108.9z"/>
	<path d="M195.6,111.4c-0.1,0.5-0.1,1-0.1,1.8c0,1.6,0.2,3.7,0.4,4.7c0.3,1.5,0.9,2.6,1.5,2.6c0.3,0,0.5-0.3,0.8-0.8
		c0.3-0.8,0.6-1.5,0.8-2.6c0.3,0.4,0.5,0.5,0.9,0.9c-0.7,2.6-1.4,3.6-2.5,3.6c-0.8,0-1.6-0.8-2.1-2.3c-0.5-1.4-0.7-3.3-0.8-7
		c0-0.6,0-0.6,0-0.9L195.6,111.4z M202.8,112.2c1,1.2,1.6,2.1,2.1,3.4c0.6,1.3,0.9,2.3,1.1,4l-1.1,0.4c-0.3-2.8-1.4-5.4-3.1-7.4
		L202.8,112.2z"/>
	<path d="M219.2,121.9c-0.7-0.7-1.8-1.5-3.1-2.1c-0.3-0.1-0.6-0.3-1-0.5c0,0.3,0,0.3,0,0.5c0,0.8-0.1,1.3-0.4,1.6
		c-0.4,0.6-1.3,0.9-2.5,0.9c-1,0-1.8-0.2-2.3-0.6s-0.8-1-0.8-1.6c0-1,0.8-1.8,2.1-2.1c0.5-0.1,0.9-0.2,1.6-0.2c0.5,0,0.7,0,1.4,0.1
		c0,0,0,0,0-0.2c0,0,0-0.1,0-0.2s0-0.5,0-0.9c0-0.2,0-0.5,0-0.9c-0.5,0-1.3,0-1.8,0c-0.9,0-1.6,0-2.5-0.1c-0.2,0-0.3,0-0.4,0h-0.1
		v-1c0.7,0.1,1.9,0.2,3.4,0.2c0.4,0,0.9,0,1.3,0v-2.1c-0.4,0-0.7,0-1,0c-1.1,0-2.3,0-3.7-0.1c-0.1,0-0.2,0-0.3,0c0,0-0.1,0-0.2,0v-1
		c0.6,0.2,2.2,0.3,3.8,0.3c0.3,0,0.8,0,1.3,0c0-1.8,0-1.8-0.1-2.2h1.2c-0.1,0.3-0.1,1-0.1,2.1c2.1-0.1,3.6-0.3,4.4-0.6l0.1,1
		c-0.3,0-0.3,0-1,0.1c-1.4,0.2-1.8,0.3-3.5,0.4c0,1.2,0,1.2,0,2c2-0.2,3.3-0.3,4.2-0.6l0.1,1c-0.2,0-0.3,0-0.9,0.1
		c-1,0.2-2.2,0.3-3.3,0.4c0,0.8,0,0.8,0.1,2.3c1.3,0.4,2.6,1,4.2,2.2c0.2,0.2,0.3,0.2,0.5,0.3L219.2,121.9z M214.1,119.1
		c-0.6-0.1-0.9-0.2-1.5-0.2c-1.5,0-2.5,0.5-2.5,1.3s0.8,1.2,2.1,1.2c0.8,0,1.4-0.2,1.7-0.5c0.2-0.2,0.3-0.6,0.3-1.4L214.1,119.1z"/>
	<path d="M229.3,110.9c0-0.4,0-0.6-0.1-0.9h1.1c-0.1,0.5-0.1,0.7-0.1,1.9v0.2c2.8,0,4,0,4.5-0.1v1.1c-0.6-0.1-1.1-0.1-2.9-0.1
		c-0.2,0-0.4,0-1.6,0v3c0.3,0.6,0.4,1.1,0.4,1.8c0,1.6-0.7,2.9-2,3.9c-0.6,0.5-1.3,0.8-2.4,1.2c-0.3-0.5-0.3-0.6-0.7-0.9
		c1.2-0.4,1.8-0.7,2.4-1.1c1.1-0.8,1.6-1.8,1.7-3.2c-0.1,0.4-0.2,0.5-0.4,0.7c-0.5,0.5-1.1,0.8-1.9,0.8c-1.4,0-2.5-1-2.5-2.4
		s1.1-2.5,2.7-2.5c0.7,0,1.3,0.2,1.7,0.7c0-0.2,0-0.3,0-0.8c0-0.1,0-0.2,0-0.4c0-0.2,0-0.2,0-0.8c-3,0.1-6,0.2-7,0.4v-1.1
		c0.3,0,0.4,0,0.6,0c0.4,0,0.4,0,2.9-0.1c1.4-0.1,2.6-0.1,3.6-0.1V110.9z M228.7,115.4c-0.3-0.2-0.6-0.2-1-0.2
		c-0.9,0-1.7,0.7-1.7,1.6s0.6,1.5,1.5,1.5c1,0,1.8-0.7,1.8-1.8C229.3,115.9,229.1,115.6,228.7,115.4z"/>
	<path d="M240.8,120.8c0,1.2-1,2.2-2.2,2.2s-2.2-1-2.2-2.2s1-2.2,2.2-2.2C239.8,118.5,240.8,119.5,240.8,120.8z M237.2,120.8
		c0,0.8,0.6,1.4,1.4,1.4c0.8,0,1.4-0.6,1.4-1.4s-0.6-1.4-1.4-1.4S237.2,120,237.2,120.8z"/>
	<path d="M25.3,141.4c-0.1,0.2-0.1,0.3-0.2,1c-0.6,4.3-1.8,7.2-4,9.4c-0.4-0.4-0.5-0.5-1-0.8c0.9-0.9,1.5-1.7,2.2-3
		c0.7-1.5,1.3-3.2,1.5-5.2c0.1-0.6,0.1-1.1,0.1-1.4c0,0,0-0.1,0-0.2L25.3,141.4z M29.5,141.2c0,0.6,0.3,2.4,0.7,3.6
		c0.7,2.6,1.9,4.9,3.4,6.2c-0.4,0.3-0.6,0.4-0.9,0.8c-2-2.1-3.5-5.6-4.1-9.4c-0.1-0.5-0.1-0.8-0.2-1L29.5,141.2z M34.1,141.7
		c0,0.9-0.8,1.7-1.7,1.7c-0.9,0-1.7-0.8-1.7-1.7s0.8-1.7,1.7-1.7S34.1,140.8,34.1,141.7z M31.3,141.7c0,0.6,0.5,1.1,1.1,1.1
		s1.1-0.5,1.1-1.1s-0.5-1.1-1.1-1.1C31.8,140.6,31.3,141.1,31.3,141.7z"/>
	<path d="M46.5,152.2c-1.2-1.5-2.9-3.1-4.8-4.6c-1.1,1.2-1.8,1.9-2.9,2.7c-1,0.8-1.8,1.2-2.9,1.8c-0.2-0.4-0.4-0.6-0.7-1
		c1.2-0.5,1.9-0.9,3-1.7c2.4-1.8,4.3-4.1,5.4-6.8c0-0.1,0-0.1,0.1-0.2v-0.1c-0.1,0-0.2,0-0.4,0l-5,0.1c-0.7,0-1.1,0-1.5,0.1v-1.2
		c0.4,0.1,0.7,0.1,1.2,0.1c0,0,0.2,0,0.4,0l5.4-0.1c0.5,0,0.7,0,1-0.1l0.6,0.6c-0.1,0.2-0.3,0.4-0.4,0.7c-0.8,1.9-1.5,3-2.5,4.2
		c2,1.5,3.3,2.7,5,4.5L46.5,152.2z"/>
	<path d="M50.7,146.1c0-0.3,0.1-0.6,0.1-1.2v-2.6c0-0.6,0-0.7,0-1.1c0.3,0,0.8,0.1,1.2,0.1h7.8c0.6,0,0.8,0,1.1-0.1l0.6,0.6
		c-0.1,0.2-0.2,0.4-0.2,0.8c-0.5,3.4-1.2,5.3-2.8,7c-1.1,1.2-2.6,2.1-4.3,2.7c-0.2-0.5-0.3-0.6-0.7-1c2.4-0.8,4-2,5.1-3.7
		c0.8-1.3,1.3-2.8,1.6-5.4h-8v2.6c0,1,0,1,0,1.2L50.7,146.1L50.7,146.1z"/>
	<path d="M64,145.7c0.4,0.1,0.8,0.1,1.9,0.1h8.7c1.1,0,1.4,0,1.8-0.1v1.2c-0.5,0-0.8-0.1-1.8-0.1h-8.7c-1.1,0-1.4,0-1.9,0.1V145.7z"
		/>
	<path d="M81.5,152.5c0.1-0.3,0.1-0.7,0.1-1.6v-9.3c0-0.9,0-1.2-0.1-1.5h1.3c-0.1,0.3-0.1,0.6-0.1,1.6v2.8c2.1,0.8,4.2,1.7,6.7,3.2
		l-0.6,1.1c-1.1-0.8-3.5-2.1-5.6-3c-0.2-0.1-0.3-0.1-0.5-0.3l0,0c0,0.3,0.1,0.5,0.1,0.9v4.5c0,0.9,0,1.2,0.1,1.6H81.5z M87.3,140.7
		c0.7,0.8,1.1,1.4,1.5,2.3l-0.8,0.5c-0.4-0.8-1.1-1.9-1.5-2.4L87.3,140.7z M89,139.9c0.7,0.8,1,1.4,1.5,2.3l-0.8,0.4
		c-0.3-0.7-0.9-1.7-1.5-2.4L89,139.9z"/>
	<path d="M102.9,148.2c-0.1,0.1-0.1,0.1-0.5,0.5c-0.8,0.9-1.5,1.5-2.5,2.1c1.7,0.8,3.4,1.2,5.9,1.4c-0.3,0.3-0.4,0.6-0.5,1
		c-2.7-0.4-4.5-1-6.2-1.9c-0.9,0.5-2,0.9-3.3,1.2c-0.9,0.2-1.3,0.3-3.2,0.6c-0.1-0.4-0.3-0.6-0.5-0.9c2.5-0.2,4.3-0.6,6.1-1.4
		c-0.9-0.6-1.4-1.1-2.1-1.8c-0.9,0.7-1.5,1-2.6,1.5c-0.2-0.3-0.3-0.5-0.6-0.7c1.4-0.5,2.4-1.2,3.4-2.1c0.6-0.6,0.9-1,1.2-1.5
		l0.9,0.4c-0.1,0.1-0.1,0.1-0.2,0.3c-0.3,0.3-0.5,0.6-0.8,0.9h3.5c0.6,0,1.1,0,1.4-0.1L102.9,148.2z M96,142.9
		c-0.5,0.9-0.7,1.3-1.3,2c-0.5,0.5-0.8,0.8-1.5,1.4c-0.3-0.3-0.4-0.4-0.8-0.6c0.7-0.5,1.1-0.8,1.5-1.2c0.5-0.6,0.8-1,1.2-1.9
		L96,142.9z M94.1,142c-0.8,0-1.2,0-1.6,0.1v-1c0.4,0.1,0.9,0.1,1.6,0.1h4.3v-0.4c0-0.4,0-0.7-0.1-1h1.2c-0.1,0.3-0.1,0.6-0.1,1v0.4
		h4.3c0.8,0,1.3,0,1.7-0.1v1c-0.5,0-1-0.1-1.7-0.1h-2.6v3.4c0,0.7-0.3,1-1.1,1c-0.4,0-0.9,0-1.3,0c0-0.3-0.1-0.6-0.3-0.9
		c0.5,0.1,0.9,0.1,1.3,0.1c0.3,0,0.4-0.1,0.4-0.3V142h-1.8c-0.1,2.6-0.7,3.7-2.7,4.9c-0.2-0.3-0.4-0.4-0.8-0.7
		c1.1-0.5,1.7-1,2.1-1.8c0.3-0.7,0.4-1.2,0.4-2.4H94.1z M96.8,148.5c0.6,0.7,1.3,1.3,2.3,1.8c0.9-0.6,1.5-1,2.3-1.8H96.8z
		 M102.5,142.7c1.2,1.1,1.8,1.8,2.8,3l-0.8,0.6c-0.9-1.4-1.5-2.1-2.7-3.1L102.5,142.7z"/>
	<path d="M108.3,141.1c-0.6,0-1,0-1.6,0.1v-1c0.4,0.1,0.9,0.1,1.6,0.1h10.1c0.6,0,1.1,0,1.6-0.1v1c-0.5-0.1-1-0.1-1.6-0.1h-4.5v1.5
		h3c0.9,0,1.3,0,1.8-0.1c0,0.5-0.1,0.9-0.1,1.6v2.6c0,0.7,0,1.1,0.1,1.6c-0.5-0.1-0.9-0.1-1.7-0.1h-3.4c-0.2,1-0.5,1.6-1,2.3
		c1.8,1.1,4,1.6,6.8,1.6c0.2,0,0.4,0,0.9,0c-0.2,0.3-0.3,0.6-0.4,1.1c-3.4,0-5.8-0.6-7.9-2c-1.2,1.2-2.7,1.8-4.8,2.2
		c-0.1-0.4-0.2-0.5-0.4-0.9c1.1-0.2,1.7-0.3,2.5-0.6c0.9-0.3,1.5-0.7,2.1-1.2c-0.5-0.4-0.8-0.6-1.3-1.2c-0.1-0.1-0.2-0.2-0.3-0.3
		l0.9-0.5c0.3,0.4,0.8,1,1.4,1.4c0.4-0.5,0.6-1,0.8-1.8h-2.7c-0.8,0-1.3,0-1.7,0.1c0-0.5,0.1-1,0.1-1.6v-2.5c0-0.7,0-1.2-0.1-1.6
		c0.5,0.1,0.8,0.1,1.7,0.1h3.1v-1.5h-5V141.1z M109.1,143.3v1.6h3.8c0-0.7,0-1,0-1.6H109.1z M109.1,145.7v1.7h3.6
		c0.1-0.6,0.1-0.9,0.1-1.7H109.1z M113.9,145.7c0,0.7-0.1,1-0.1,1.7h4v-1.7H113.9z M113.9,144.9h3.8v-1.6h-3.8V144.9z"/>
	<path d="M127.1,148.1c-0.9,2-1.8,2.9-2.8,2.9c-1.4,0-2.5-1.6-2.5-3.7c0-1.5,0.6-3,1.6-4.1c1.2-1.3,2.8-2,4.8-2
		c1.7,0,3.1,0.5,4.1,1.5c0.9,0.9,1.5,2.2,1.5,3.7c0,2.3-1.3,4.2-3.4,5.2c-0.7,0.3-1.2,0.5-2.3,0.7c-0.1-0.5-0.2-0.6-0.5-1
		c1.1-0.2,1.8-0.4,2.5-0.7c1.6-0.8,2.7-2.4,2.7-4.2c0-1.7-0.9-3.1-2.4-3.8c-0.6-0.2-1-0.3-1.7-0.4
		C128.4,144.2,127.8,146.5,127.1,148.1z M125.3,142.9c-1.5,0.9-2.4,2.6-2.4,4.5c0,1.4,0.6,2.5,1.4,2.5c0.6,0,1.2-0.7,1.9-2.2
		c0.6-1.4,1.2-3.6,1.4-5.5C126.6,142.2,126,142.4,125.3,142.9z"/>
	<path d="M136.3,142.7c0.5,0.1,1.1,0.1,1.9,0.1c0.3,0,0.5,0,0.9,0c0.3-1.8,0.3-2.1,0.3-2.8l1.2,0.1c-0.1,0.4-0.1,0.4-0.3,1.4
		c-0.1,0.5-0.1,0.7-0.2,1.1c1.2-0.1,2-0.3,2.7-0.5l0.1,1c-0.1,0-0.1,0-0.4,0.1c-0.8,0.2-1.8,0.3-2.5,0.4c-0.2,1.2-0.6,2.9-1,4.2
		c-0.5,1.6-0.9,2.7-1.7,4.6l-1.1-0.5c1.1-1.9,2.3-5.4,2.8-8.3c-0.3,0-0.5,0-1,0s-0.7,0-1.2,0h-0.1c0,0-0.1,0-0.3,0L136.3,142.7
		L136.3,142.7z M143,148.1c-0.3,0.4-0.3,0.4-0.4,0.6c-0.2,0.3-0.4,0.7-0.4,1.1c0,0.9,0.9,1.4,2.6,1.4c1.1,0,2.5-0.2,3.3-0.5l0.1,1.1
		c-0.2,0-0.2,0-0.7,0.1c-1,0.2-1.9,0.3-2.7,0.3c-2.5,0-3.7-0.8-3.7-2.2c0-0.7,0.2-1.1,1-2.2L143,148.1z M147.7,145.5
		c-0.7-0.1-1.1-0.1-1.8-0.1c-1.3,0-2.4,0.1-3.7,0.5l-0.1-1c1.7-0.4,2.7-0.5,4-0.5c0.3,0,0.5,0,1.6,0V145.5z"/>
	<path d="M153.5,140.8c0,0.5,0.2,1.7,0.4,2.6c1-0.5,2.1-0.8,3.2-0.8c0.1,0,0.3,0,0.5,0c0.3-1,0.4-2,0.5-2.4l1.1,0.2
		c-0.1,0.2-0.1,0.2-0.4,1.6c-0.1,0.3-0.1,0.4-0.2,0.7c2.5,0.5,4,2.1,4,4.4c0,1.4-0.6,2.8-1.6,3.6c-0.8,0.6-1.8,1.2-3,1.5
		c-0.2,0.1-0.3,0.1-0.9,0.2c-0.1-0.4-0.2-0.5-0.6-1c0.9-0.1,1.4-0.2,2.2-0.6c1-0.4,1.8-1,2.2-1.6s0.7-1.4,0.7-2.1
		c0-1.8-1.1-3-3.2-3.5c-0.7,2.3-1.7,4.5-2.9,5.9c-1,1.2-1.8,1.7-2.7,1.7c-1.3,0-2.2-1.2-2.2-2.9c0-1,0.3-2,0.9-2.9
		c0.4-0.6,0.8-1,1.5-1.5c-0.1-0.5-0.3-1.4-0.4-2.1c-0.1-0.5-0.1-0.6-0.2-0.8L153.5,140.8z M152.2,146.2c-0.4,0.6-0.6,1.5-0.6,2.1
		c0,1.2,0.5,2,1.2,2c0.5,0,1.2-0.5,1.8-1.3c-0.6-1.3-1.1-2.7-1.4-4C152.8,145.3,152.5,145.7,152.2,146.2z M155.4,148.1
		c0.1-0.1,0.1-0.2,0.2-0.3c0.7-1.1,1.4-2.6,1.8-4.2c-0.2,0-0.3,0-0.4,0c-1.1,0-2,0.3-2.9,0.8c0.3,1.2,0.6,2.2,1.1,3.5
		C155.3,148,155.3,148,155.4,148.1L155.4,148.1z"/>
	<path d="M170.3,148.1c-0.9,2-1.8,2.9-2.8,2.9c-1.4,0-2.5-1.6-2.5-3.7c0-1.5,0.6-3,1.6-4.1c1.2-1.3,2.8-2,4.8-2
		c1.7,0,3.2,0.5,4.1,1.5c0.9,0.9,1.5,2.2,1.5,3.7c0,2.3-1.3,4.2-3.4,5.2c-0.7,0.3-1.2,0.5-2.3,0.7c-0.2-0.5-0.2-0.6-0.5-1
		c1.1-0.2,1.8-0.4,2.5-0.7c1.7-0.8,2.7-2.4,2.7-4.2c0-1.7-0.9-3.1-2.4-3.8c-0.6-0.2-1-0.3-1.7-0.4
		C171.6,144.2,171,146.5,170.3,148.1z M168.5,142.9c-1.5,0.9-2.4,2.6-2.4,4.5c0,1.4,0.6,2.5,1.4,2.5c0.6,0,1.2-0.7,1.9-2.2
		c0.6-1.4,1.2-3.6,1.4-5.5C169.8,142.2,169.2,142.4,168.5,142.9z"/>
	<path d="M180.3,146.1c0-0.3,0.1-0.6,0.1-1.2v-2.6c0-0.6,0-0.7,0-1.1c0.3,0,0.8,0.1,1.2,0.1h7.8c0.6,0,0.8,0,1.1-0.1l0.6,0.6
		c-0.1,0.2-0.2,0.4-0.2,0.8c-0.5,3.4-1.2,5.3-2.8,7c-1.1,1.2-2.5,2.1-4.3,2.7c-0.2-0.5-0.3-0.6-0.7-1c2.4-0.8,4-2,5.1-3.7
		c0.8-1.3,1.3-2.8,1.6-5.4h-8v2.6c0,1,0,1,0,1.2L180.3,146.1L180.3,146.1z"/>
	<path d="M194.4,150.8c1.2,0,3-0.5,4.4-1.2c2.9-1.3,4.9-3.5,6.1-6.7c0.3,0.5,0.5,0.6,0.9,0.9c-1.2,2.6-2.6,4.4-4.6,5.7
		c-1.5,1.1-3.1,1.7-5.6,2.2c-0.4,0.1-0.5,0.1-0.9,0.2L194.4,150.8z M195.4,141.5c1.6,1,2.5,1.8,3.6,2.8l-0.8,0.9
		c-1.1-1.2-2.3-2.1-3.6-2.9L195.4,141.5z"/>
	<path d="M214.2,140c-0.2,0.3-0.2,0.3-0.5,1c-0.1,0.3-0.3,0.5-0.5,0.8c0.2,0,0.2,0,4.6-0.1c0.4,0,0.6-0.1,0.9-0.1l0.7,0.7
		c-0.2,0.2-0.2,0.3-0.4,1c-1,2.8-2.4,4.9-3.9,6.4c-1.3,1.2-2.7,2.2-4.7,3.1c-0.2-0.5-0.4-0.6-0.7-0.9c1.3-0.5,2.1-0.9,3.1-1.6
		c1.2-0.8,1.9-1.4,2.6-2.4c-1.1-1-2.2-1.8-3.4-2.4l0.7-0.8c1.3,0.7,2.1,1.3,3.3,2.3c0.9-1.3,1.6-2.8,2.1-4.4l-5.2,0.1
		c-1,1.6-2.1,2.8-3.6,4c-0.3-0.4-0.5-0.5-0.9-0.7c1.6-1.2,2.8-2.6,3.8-4.3c0.5-0.9,0.8-1.5,0.9-2.1L214.2,140z"/>
	<path d="M233.9,140.9c-0.3,0.2-0.3,0.2-0.7,0.6c-0.9,1-2.2,2.1-3.5,3v6.4c0,0.9,0,1.2,0.1,1.6h-1.3c0.1-0.4,0.1-0.7,0.1-1.6v-5.7
		c-2,1.2-3,1.7-5.8,2.6c-0.2-0.5-0.3-0.6-0.6-1c2.8-0.7,5.4-2,7.8-3.9c1.4-1.1,2.4-2.1,2.9-2.8L233.9,140.9z"/>
	<path d="M243.1,140.5c-0.2,0.3-0.3,0.6-0.4,1.1c-1.1,3.6-2.1,6.5-3.1,8.8c2-0.1,5.5-0.6,7.3-0.9c-0.8-1.6-1.6-2.9-2.3-3.9l0.9-0.5
		c1.2,1.6,2.7,4.4,3.7,6.8l-1,0.6c-0.3-0.9-0.5-1.3-0.9-2c-2.5,0.5-5.5,0.9-9.2,1.2c-0.6,0-1,0.1-1.3,0.2l-0.1-1.2
		c0.3,0,0.3,0,0.4,0c0.1,0,0.9,0,1.3-0.1c0.9-2.1,1.5-3.7,2.3-5.9c0.7-2.3,1.1-3.5,1.2-4.3L243.1,140.5z"/>
	<path d="M255.7,141.4c-0.1,0.2-0.1,0.3-0.2,1c-0.6,4.3-1.8,7.2-4,9.4c-0.4-0.4-0.5-0.5-1-0.8c0.9-0.9,1.5-1.7,2.2-3
		c0.7-1.5,1.3-3.2,1.5-5.2c0.1-0.6,0.2-1.1,0.2-1.4c0,0,0-0.1,0-0.2L255.7,141.4z M259.9,141.2c0,0.6,0.3,2.4,0.7,3.6
		c0.7,2.6,2,4.9,3.4,6.2c-0.4,0.3-0.6,0.4-0.9,0.8c-2-2.1-3.5-5.6-4.1-9.4c-0.1-0.5-0.1-0.8-0.2-1L259.9,141.2z M264.5,141.7
		c0,0.9-0.8,1.7-1.7,1.7c-0.9,0-1.7-0.8-1.7-1.7s0.8-1.7,1.7-1.7S264.5,140.8,264.5,141.7z M261.7,141.7c0,0.6,0.5,1.1,1.1,1.1
		s1.1-0.5,1.1-1.1s-0.5-1.1-1.1-1.1C262.2,140.6,261.7,141.1,261.7,141.7z"/>
	<path d="M276.9,152.2c-1.2-1.5-2.9-3.1-4.8-4.6c-1,1.2-1.8,1.9-2.9,2.7c-1,0.8-1.8,1.2-2.9,1.8c-0.2-0.4-0.4-0.6-0.7-1
		c1.2-0.5,1.9-0.9,3-1.7c2.4-1.8,4.3-4.1,5.4-6.8c0-0.1,0-0.1,0.1-0.2v-0.1c-0.1,0-0.2,0-0.4,0l-5,0.1c-0.7,0-1.1,0-1.5,0.1v-1.2
		c0.4,0.1,0.7,0.1,1.2,0.1c0,0,0.2,0,0.4,0l5.4-0.1c0.5,0,0.7,0,1-0.1l0.6,0.6c-0.1,0.2-0.3,0.4-0.4,0.7c-0.8,1.9-1.5,3-2.5,4.2
		c2,1.5,3.3,2.7,5,4.5L276.9,152.2z"/>
	<path d="M281.1,146.1c0-0.3,0.1-0.6,0.1-1.2v-2.6c0-0.6,0-0.7,0-1.1c0.3,0,0.8,0.1,1.2,0.1h7.8c0.6,0,0.8,0,1.1-0.1l0.6,0.6
		c-0.1,0.2-0.2,0.4-0.2,0.8c-0.5,3.4-1.2,5.3-2.8,7c-1.1,1.2-2.5,2.1-4.3,2.7c-0.2-0.5-0.3-0.6-0.7-1c2.4-0.8,4-2,5.1-3.7
		c0.8-1.3,1.3-2.8,1.6-5.4h-8v2.6c0,1,0,1,0,1.2L281.1,146.1L281.1,146.1z"/>
	<path d="M294.4,145.7c0.4,0.1,0.8,0.1,1.9,0.1h8.7c1.1,0,1.3,0,1.8-0.1v1.2c-0.5,0-0.8-0.1-1.8-0.1h-8.7c-1.1,0-1.4,0-1.9,0.1
		V145.7z"/>
	<path d="M311.9,152.5c0.1-0.3,0.1-0.7,0.1-1.6v-9.3c0-0.9,0-1.2-0.1-1.5h1.3c-0.1,0.3-0.1,0.6-0.1,1.6v2.8c2.1,0.8,4.2,1.7,6.7,3.2
		l-0.6,1.1c-1.1-0.8-3.5-2.1-5.6-3c-0.2-0.1-0.3-0.1-0.5-0.3l0,0c0,0.3,0.1,0.5,0.1,0.9v4.5c0,0.9,0,1.2,0.1,1.6H311.9z
		 M317.7,140.7c0.7,0.8,1.1,1.4,1.5,2.3l-0.8,0.5c-0.4-0.8-1.1-1.9-1.5-2.4L317.7,140.7z M319.4,139.9c0.7,0.8,1,1.4,1.5,2.3
		l-0.8,0.4c-0.3-0.7-0.9-1.7-1.5-2.4L319.4,139.9z"/>
	<path d="M24.9,172c0.5-1,0.7-1.6,0.7-2.1l1.2,0.2c-0.1,0.2-0.1,0.2-0.4,0.8c-0.2,0.5-0.4,0.9-0.5,1c0.2,0,0.2,0,0.3,0
		c2.4-0.1,3.9-0.3,4.7-0.6l0.1,1c-0.2,0-0.3,0-0.6,0.1c-1.6,0.2-3.1,0.3-4.9,0.4c-0.5,0.9-0.8,1.5-1.4,2.1c-0.1,0.2-0.4,0.5-0.5,0.6
		s-0.2,0.1-0.2,0.1l0,0l0,0l0,0c0.5-0.4,0.5-0.4,0.7-0.5c0.7-0.5,1.5-0.7,2.3-0.7c1.1,0,1.8,0.6,2,1.7c1.1-0.4,1.9-0.8,2.6-1
		c0.7-0.3,0.8-0.3,1-0.4l0.5,1c-0.8,0.1-2.1,0.6-4,1.3c0,0.4,0,0.5,0,0.9c0,0.2,0,0.5,0,0.8s0,0.5,0,0.7s0,0.3,0,0.5h-1
		c0-0.3,0.1-1.2,0.1-2.2c0-0.2,0-0.3,0-0.5c-2,1-2.8,1.7-2.8,2.6c0,1,0.9,1.4,3,1.4c1.5,0,3.1-0.2,4-0.6l0.1,1.2
		c-0.2,0-0.3,0-0.6,0.1c-1.2,0.2-2.5,0.3-3.6,0.3c-2.7,0-4-0.8-4-2.3c0-0.8,0.5-1.6,1.5-2.4c0.5-0.4,1.2-0.8,2.2-1.2
		c-0.1-0.8-0.5-1.2-1.2-1.2c-0.9,0-2.1,0.6-3.3,1.6c-0.6,0.5-0.9,0.8-1.2,1.2l-0.8-0.8c1-0.8,2.3-2.4,3.4-4.3c0-0.1,0-0.1,0.1-0.2
		c-0.1,0-0.2,0-0.3,0c-0.2,0-1.6,0-2.2,0c-0.1,0-0.2,0-0.2,0c-0.1,0-0.2,0-0.3,0v-1c0.5,0.1,1.7,0.2,3.2,0.2h0.3V172z"/>
	<path d="M39.1,177.9c0.1-0.7,0.1-1,0.1-2.2c-0.5,0-0.9,0-1.2,0.1v-0.7c-1,0.8-1.6,1.1-2.9,1.7c-0.2-0.3-0.3-0.5-0.6-0.8
		c1.5-0.6,2.4-1.1,3.4-2c-0.9-0.9-1.4-1.3-2.3-2l0.7-0.6c0.9,0.7,1.5,1.2,2.2,1.9c0.9-0.9,1.2-1.2,1.9-2.3h-2.8c-0.3,0-0.6,0-1,0.1
		v-1c0.3,0,0.6,0.1,1.1,0.1h2.9c0.7,0,1,0,1.3-0.1c0.1,0.6,0.4,1.2,1.2,2c0.6-0.6,1.3-1.4,1.6-1.9l0.8,0.5c-0.1,0.1-0.2,0.2-0.3,0.3
		c-0.6,0.7-0.9,1.1-1.5,1.6c0.4,0.4,0.8,0.8,1.3,1.2c0.8-0.7,1.4-1.5,1.8-2.1l0.8,0.5c-0.1,0.2-0.1,0.2-0.7,0.8
		c-0.4,0.4-0.7,0.8-1.2,1.2c1,0.7,1.6,1,2.8,1.5c-0.3,0.3-0.4,0.5-0.6,0.9c-1.3-0.6-1.9-1-2.9-1.7v0.7c-0.4,0-0.8-0.1-1.3-0.1h-0.3
		v2.2H46c0.7,0,1.1,0,1.5-0.1v1c-0.4-0.1-0.9-0.1-1.5-0.1h-2.7v2.8c0,0.2,0.1,0.3,0.3,0.4c0.2,0.1,0.6,0.1,1.2,0.1
		c1.2,0,1.6-0.1,1.8-0.3s0.3-0.8,0.4-1.7c0.4,0.3,0.6,0.4,1,0.4c-0.2,1.1-0.4,1.7-0.7,2c-0.3,0.4-1,0.5-2.6,0.5
		c-1.9,0-2.3-0.2-2.3-1.1v-3.1h-2.5c-0.2,1-0.5,1.7-1.1,2.4c-0.4,0.5-1,1-1.7,1.4c-0.4,0.3-0.8,0.4-1.5,0.7
		c-0.2-0.4-0.4-0.5-0.7-0.9c1.1-0.3,1.6-0.6,2.3-1.1c1-0.7,1.5-1.4,1.7-2.5h-2.2c-0.6,0-1,0-1.5,0.1v-1c0.4,0.1,0.8,0.1,1.5,0.1h2.4
		V177.9z M43.5,174.9c0.5,0,0.8,0,1.1,0c-1.6-1.3-2.4-2.3-3.2-3.7c-1,1.6-1.8,2.6-3.2,3.7c0.3,0,0.6,0,1.1,0H43.5z M40.1,175.7
		c0,1.5,0,1.5-0.1,2.2h2.4v-2.2H40.1z"/>
	<path d="M51.3,178c0-0.6,0-1.1,0-1.8c-0.5,0.7-1,1.1-1.7,1.7c-0.2-0.4-0.3-0.6-0.6-0.9c1.2-0.8,2.1-1.7,3-3
		c0.3-0.5,0.6-0.9,0.7-1.3l0.9,0.5c-0.2,0.2-0.2,0.3-0.4,0.6c-0.3,0.5-0.6,0.9-1,1.3v6.1c0,0.8,0,1.4,0.1,1.8h-1.2
		c0.1-0.4,0.1-1,0.1-1.8V178H51.3z M53.4,170.2c-0.1,0.1-0.1,0.2-0.3,0.3c-0.9,1.2-2,2.3-3.3,3.3c-0.2-0.3-0.4-0.5-0.7-0.7
		c0.8-0.5,1.4-1,2-1.6c0.8-0.8,1.1-1.3,1.4-1.8L53.4,170.2z M55.6,175.2c-0.7,0-1.3,0-1.7,0.1v-1c0.4,0.1,0.9,0.1,1.7,0.1h5.3
		c0.8,0,1.3,0,1.6-0.1v1c-0.4-0.1-0.9-0.1-1.6-0.1H60v6.6c0,1-0.4,1.2-1.7,1.2c-0.5,0-1.2,0-1.8-0.1c0-0.4-0.1-0.7-0.2-1
		c0.9,0.1,1.5,0.2,2.1,0.2c0.5,0,0.6-0.1,0.6-0.4v-6.5H55.6z M54.5,170.5c0.4,0.1,0.9,0.1,1.6,0.1h4.2c0.7,0,1.1,0,1.5-0.1v1
		c-0.5-0.1-0.9-0.1-1.5-0.1h-4.2c-0.6,0-1.1,0-1.6,0.1V170.5z"/>
	<path d="M67.5,170.4c-0.1,0.5-0.1,1.3-0.2,3.2c-0.1,1.8-0.1,3.8-0.1,4.5c0,0.2,0,0.6,0,0.9c0.1,0.9,0.3,1.4,0.7,1.8
		c0.4,0.4,1.1,0.6,1.9,0.6c1.8,0,3.2-0.9,4-2.6c0.3-0.7,0.5-1.3,0.7-2.4c0.4,0.4,0.6,0.5,1.1,0.7c-0.6,1.8-1,2.6-1.7,3.4
		c-1.1,1.3-2.5,1.9-4.2,1.9c-1.3,0-2.2-0.4-2.8-1c-0.6-0.7-0.8-1.5-0.8-3.1c0-1,0-1.4,0.1-6.1c0-0.4,0-0.7,0-1s0-0.5-0.1-0.8
		L67.5,170.4L67.5,170.4z"/>
	<path d="M89.6,182c-0.7-0.7-1.8-1.5-3.1-2.1c-0.3-0.1-0.6-0.3-1-0.5c0,0.3,0,0.3,0,0.5c0,0.8-0.1,1.3-0.4,1.6
		c-0.4,0.6-1.4,0.9-2.5,0.9c-1,0-1.8-0.2-2.3-0.6c-0.5-0.4-0.8-1-0.8-1.6c0-1,0.8-1.8,2.1-2.1c0.4-0.1,0.9-0.2,1.6-0.2
		c0.5,0,0.7,0,1.3,0.1c0,0,0,0,0-0.2c0,0,0-0.1,0-0.2c0-0.1,0-0.5,0-0.9c0-0.2,0-0.5,0-0.9c-0.5,0-1.3,0-1.8,0c-0.9,0-1.6,0-2.5-0.1
		c-0.2,0-0.3,0-0.4,0h-0.1v-1c0.7,0.1,1.9,0.2,3.4,0.2c0.4,0,0.9,0,1.3,0v-2.1c-0.4,0-0.7,0-1,0c-1.1,0-2.3,0-3.7-0.1
		c-0.1,0-0.2,0-0.3,0c0,0-0.1,0-0.2,0v-1c0.6,0.2,2.2,0.3,3.8,0.3c0.3,0,0.8,0,1.3,0c0-1.8,0-1.8-0.1-2.2h1.2
		c-0.1,0.3-0.1,1-0.1,2.1c2.1-0.1,3.6-0.3,4.4-0.6l0.1,1c-0.3,0-0.3,0-1,0.1c-1.4,0.2-1.8,0.3-3.5,0.4c0,1.2,0,1.2,0,2
		c2-0.2,3.3-0.3,4.2-0.6l0.1,1c-0.2,0-0.3,0-0.9,0.1c-1,0.2-2.2,0.3-3.3,0.4c0,0.8,0,0.8,0.1,2.3c1.3,0.4,2.6,1,4.2,2.2
		c0.2,0.2,0.3,0.2,0.5,0.3L89.6,182z M84.5,179.1C84,179,83.7,179,83,179c-1.5,0-2.5,0.5-2.5,1.3s0.8,1.2,2.1,1.2
		c0.8,0,1.4-0.2,1.6-0.5c0.2-0.2,0.3-0.6,0.3-1.3V179.1z"/>
	<path d="M96.3,170.4c-0.1,0.5-0.1,1.3-0.2,3.2c-0.1,1.8-0.1,3.8-0.1,4.5c0,0.2,0,0.6,0,0.9c0.1,0.9,0.3,1.4,0.7,1.8
		c0.4,0.4,1.1,0.6,1.9,0.6c1.8,0,3.2-0.9,4-2.6c0.3-0.7,0.5-1.3,0.7-2.4c0.4,0.4,0.6,0.5,1.1,0.7c-0.6,1.8-1,2.6-1.7,3.4
		c-1.1,1.3-2.5,1.9-4.2,1.9c-1.3,0-2.2-0.4-2.8-1c-0.6-0.7-0.8-1.5-0.8-3.1c0-1,0-1.4,0.1-6.1c0-0.4,0-0.7,0-1s0-0.5-0.1-0.8
		L96.3,170.4L96.3,170.4z"/>
	<path d="M107.5,172.7c0.5,0.1,1.1,0.1,1.9,0.1c0.3,0,0.5,0,0.9,0c0.3-1.8,0.3-2.1,0.3-2.8l1.2,0.1c-0.1,0.4-0.1,0.4-0.3,1.4
		c-0.1,0.5-0.1,0.7-0.2,1.1c1.2-0.1,2-0.3,2.7-0.5l0.1,1c-0.1,0-0.1,0-0.4,0.1c-0.8,0.2-1.8,0.3-2.5,0.4c-0.2,1.2-0.6,2.9-1,4.2
		c-0.5,1.6-0.9,2.7-1.7,4.6l-1.1-0.5c1.1-1.9,2.3-5.4,2.8-8.3c-0.3,0-0.5,0-1,0s-0.7,0-1.2,0h-0.1c0,0-0.1,0-0.3,0v-0.9H107.5z
		 M114.2,178.1c-0.3,0.4-0.3,0.4-0.5,0.6c-0.2,0.3-0.4,0.7-0.4,1.1c0,0.9,0.9,1.4,2.6,1.4c1.1,0,2.5-0.2,3.3-0.5l0.1,1.1
		c-0.2,0-0.2,0-0.7,0.1c-1,0.2-1.9,0.3-2.7,0.3c-2.5,0-3.7-0.8-3.7-2.2c0-0.7,0.2-1.1,1-2.2L114.2,178.1z M118.9,175.5
		c-0.7-0.1-1.1-0.1-1.8-0.1c-1.3,0-2.4,0.1-3.7,0.5l-0.1-1c1.7-0.4,2.7-0.5,4-0.5c0.3,0,0.5,0,1.6,0V175.5z"/>
	<path d="M125.6,180.8c0,1.2-1,2.2-2.2,2.2s-2.2-1-2.2-2.2s1-2.2,2.2-2.2S125.6,179.6,125.6,180.8z M122,180.8
		c0,0.8,0.6,1.4,1.4,1.4s1.4-0.6,1.4-1.4c0-0.8-0.6-1.4-1.4-1.4C122.6,179.4,122,180.1,122,180.8z"/>
	<path d="M22.2,203.2c-0.6,0-1.1,0-1.6,0.1v-1.1c0.6,0.1,1,0.1,1.6,0.1h4.2V201c0-0.5,0-0.9-0.1-1.4h1.2c-0.1,0.5-0.1,0.9-0.1,1.3
		v1.3h4.4c0.8,0,1.2,0,1.7-0.1v1.1c-0.6-0.1-1.1-0.1-1.7-0.1h-4c1.7,3,3.7,5.1,6.2,6.5c-0.3,0.3-0.5,0.6-0.7,1
		c-1.2-0.8-2.1-1.6-3.1-2.6c-1.2-1.3-2.1-2.6-2.8-4.2c0,0.9,0.1,1.5,0.1,1.9v3.4H29c0.7,0,1.1,0,1.5-0.1v1c-0.5-0.1-0.8-0.1-1.5-0.1
		h-1.6v1.4c0,0.7,0,1.2,0.1,1.7h-1.2c0.1-0.5,0.1-1,0.1-1.7v-1.4H25c-0.7,0-1.1,0-1.5,0.1v-1c0.4,0.1,0.7,0.1,1.5,0.1h1.5v-3.4
		c0-0.6,0-1.1,0.1-1.9c-0.7,1.6-1.5,2.9-2.8,4.3c-0.9,1-1.8,1.8-2.9,2.5c-0.2-0.4-0.3-0.6-0.7-0.9c1.3-0.8,2.4-1.7,3.5-3
		s1.8-2.2,2.4-3.6L22.2,203.2L22.2,203.2z"/>
	<path d="M45.5,201c-0.2,0.3-0.3,0.4-0.5,0.9c-1,2.3-1.4,3.2-2.2,4.4c1.3,1.1,2.2,2,3.4,3.2l-0.8,0.9c-0.8-1-1.8-2-3.3-3.3
		c-1.6,2.2-3.4,3.7-6,5.2c-0.3-0.5-0.4-0.6-0.8-0.9c2.4-1.2,4.3-2.8,6-5c-1.4-1.1-2.8-2-4-2.7l0.8-0.8c1.5,0.9,2.2,1.4,3.9,2.6
		c0.7-1.1,1.2-2.2,1.8-3.5c0.4-0.9,0.5-1.2,0.5-1.6L45.5,201z"/>
	<path d="M49.6,205.8c0.4,0.1,0.8,0.1,1.9,0.1h8.7c1.1,0,1.4,0,1.8-0.1v1.2c-0.5,0-0.8-0.1-1.8-0.1h-8.7c-1.1,0-1.4,0-1.9,0.1V205.8
		z"/>
	<path d="M68,200.8c-0.1,0.4-0.1,0.4-0.1,1.3c-0.1,4.1-0.2,5.2-0.8,6.7c-0.5,1.4-1.2,2.4-2.6,3.7c-0.3-0.4-0.5-0.5-0.9-0.8
		c1.2-1,2-2.1,2.5-3.5c0.5-1.3,0.7-3.3,0.7-6.4c0-0.5,0-0.7-0.1-1.1L68,200.8z M71.7,200.6c-0.1,0.4-0.1,0.6-0.1,1.3l-0.1,9.1
		c1.2-0.5,2-0.9,2.8-1.7c0.8-0.9,1.4-1.8,1.8-3c0.3,0.4,0.4,0.5,0.8,0.9c-0.7,1.7-1.7,3-3,3.9c-0.7,0.4-1.3,0.8-2.1,1.1
		c-0.3,0.1-0.3,0.1-0.5,0.2c-0.2,0.1-0.2,0.1-0.3,0.2l-0.6-0.7c0.1-0.3,0.1-0.4,0.1-1l0.1-8.8c0-1,0-1-0.1-1.3L71.7,200.6z"/>
	<path d="M81.2,200.6c-0.2,0.6-0.4,1.4-0.6,2.4c-0.3,1.6-0.5,2.9-0.5,4.7c0,1.2,0,2.1,0.1,2.9c0.2-1,0.5-1.8,1-2.9l0.7,0.3
		c-0.7,1.5-1.2,3.3-1.2,4.1c0,0,0,0.1,0,0.2l-1.1,0.1c0-0.2,0-0.3-0.1-0.6c-0.3-1.6-0.4-2.7-0.4-4.2c0-2.1,0.2-3.7,0.7-5.9
		c0.2-0.7,0.2-0.9,0.2-1.2L81.2,200.6z M85,206.7c-0.7,0.8-1.1,1.5-1.1,2.2c0,1.1,0.9,1.6,2.9,1.6c1.4,0,2.6-0.2,3.4-0.5l0.1,1.2
		c-0.2,0-0.2,0-0.5,0.1c-1,0.2-2.1,0.3-3.1,0.3c-1.7,0-2.8-0.4-3.4-1.1c-0.3-0.4-0.5-0.8-0.5-1.4c0-0.9,0.4-1.7,1.3-2.8L85,206.7z
		 M83.1,202.2c0.6,0.2,1.4,0.2,2.5,0.2c1.7,0,3-0.1,4-0.4l0.1,1.1c0,0-0.4,0-1,0.1c-0.9,0.1-2.1,0.2-3.2,0.2c-0.8,0-1.4,0-2.4-0.1
		V202.2z"/>
	<path d="M92.4,202.3c0.3,0.1,0.6,0.1,1.2,0.1H97c0.6,0,0.9,0,1.2-0.1v1c-0.3,0-0.6-0.1-1.1-0.1h-3.5c-0.5,0-0.8,0-1.2,0.1V202.3z
		 M92.9,200.2c0.4,0.1,0.6,0.1,1.1,0.1h2.4c0.5,0,0.8,0,1.1-0.1v0.9c-0.3,0-0.7-0.1-1.1-0.1H94c-0.5,0-0.8,0-1.1,0.1V200.2z
		 M93,204.4c0.3,0,0.6,0.1,1.1,0.1h2.5c0.5,0,0.8,0,1.1-0.1v0.9c-0.4,0-0.6-0.1-1.1-0.1H94c-0.5,0-0.8,0-1.1,0.1L93,204.4L93,204.4z
		 M93,206.5c0.3,0,0.6,0.1,1.1,0.1h2.5c0.5,0,0.8,0,1.1-0.1v0.9c-0.4,0-0.6-0.1-1.1-0.1H94c-0.5,0-0.8,0-1.1,0.1L93,206.5L93,206.5z
		 M93,213.3c0.1-0.4,0.1-0.8,0.1-1.5v-2c0-0.5,0-0.9-0.1-1.2c0.4,0,0.7,0.1,1.2,0.1h2.3c0.6,0,0.8,0,1.1,0c0,0.3,0,0.6,0,1.2v2.2
		c0,0.4,0,0.8,0.1,1.2h-0.9v-0.8H94v0.9L93,213.3L93,213.3z M94,211.6h2.7v-2.2H94V211.6z M99.8,211.3c0,0.3,0.1,0.4,0.4,0.5
		s0.9,0.1,1.8,0.1c1.6,0,2.1-0.1,2.3-0.3c0.2-0.2,0.4-1,0.4-2.4c0.3,0.2,0.7,0.4,1,0.5c-0.2,1.5-0.3,2.2-0.7,2.6
		c-0.4,0.5-1.1,0.6-3.2,0.6c-1.3,0-2-0.1-2.5-0.2c-0.5-0.1-0.6-0.4-0.6-1.1v-5c0-0.7,0-1-0.1-1.4c0.4,0,0.8,0.1,1.5,0.1h3.8v-3.9
		h-4.1c-0.6,0-1,0-1.4,0.1v-1c0.4,0.1,0.9,0.1,1.4,0.1h3.6c0.6,0,1,0,1.4-0.1c0,0.4,0,0.6,0,1.5v2.8c0,0.6,0,1,0.1,1.4
		c-0.5,0-0.8-0.1-1.5-0.1h-3.7L99.8,211.3L99.8,211.3z"/>
	<path d="M119.5,205.2c-0.1,0.2-0.1,0.2-0.3,0.9c-0.6,1.7-1,2.6-1.7,3.8c0.3,0.8,0.6,1.3,0.9,1.7c0.2,0.3,0.5,0.5,0.6,0.5
		s0.2-0.2,0.2-0.4c0.2-0.5,0.2-0.8,0.4-1.8c0.3,0.3,0.5,0.4,0.8,0.6c-0.3,1.9-0.7,2.6-1.3,2.6c-0.7,0-1.4-0.9-2.1-2.4
		c-0.8,1-1.4,1.7-2.6,2.6c-0.3-0.3-0.5-0.4-0.8-0.6c1.3-0.9,2.1-1.6,3-2.9c-0.6-1.7-0.8-3.3-0.9-6.3h-7.4c-0.6,0-1,0-1.5,0.1v-1
		c0.4,0.1,0.8,0.1,1.5,0.1h2.4v-1H109c-0.6,0-1,0-1.3,0.1v-0.9c0.4,0.1,0.7,0.1,1.3,0.1h1.7v-0.3c0-0.5,0-0.7-0.1-1h1
		c-0.1,0.3-0.1,0.6-0.1,1v0.3h1.7c0.6,0,0.9,0,1.3-0.1v0.9c-0.4-0.1-0.7-0.1-1.3-0.1h-1.7v1h4.2c0-0.8,0-1.3,0-1.8s0-0.8-0.1-1.2
		h1.1c-0.1,0.4-0.1,0.7-0.1,1.6c0,0.5,0,0.7,0,1.3h2.1c0.7,0,1.1,0,1.5-0.1v1c-0.4-0.1-0.8-0.1-1.5-0.1h-2.1
		c0.1,2.3,0.3,3.9,0.7,5.3c0.7-1.3,1.3-2.9,1.4-4L119.5,205.2z M113.7,204.7c0.6,0,0.9,0,1.3-0.1v0.9c-0.4-0.1-0.7-0.1-1.3-0.1h-2.2
		v0.9h1.8c0.5,0,0.9,0,1.2-0.1c0,0.4-0.1,0.6-0.1,1v1.8c0,0.5,0,0.7,0.1,1c-0.4,0-0.7-0.1-1.2-0.1h-1.8v0.8h2c0.6,0,0.9,0,1.3-0.1
		v0.9c-0.3,0-0.8-0.1-1.2-0.1h-2.1v0.5c0,0.5,0,0.8,0.1,1.2h-1c0.1-0.4,0.1-0.8,0.1-1.2v-0.5h-2.5c-0.6,0-0.9,0-1.3,0.1v-0.9
		c0.4,0.1,0.7,0.1,1.3,0.1h2.5V210H109c-0.5,0-0.9,0-1.2,0.1c0-0.4,0.1-0.6,0.1-1v-1.8c0-0.4,0-0.6-0.1-1c0.3,0,0.7,0.1,1.2,0.1h1.7
		v-0.9h-2.2c-0.6,0-0.9,0-1.3,0.1v-0.9c0.4,0.1,0.7,0.1,1.3,0.1h2.2c0-0.3,0-0.5-0.1-0.8h1c0,0.4,0,0.5-0.1,0.8h2.2V204.7z
		 M110.6,206.9h-2.1v0.9h2.1V206.9z M110.6,208.4h-2.1v0.9h2.1V208.4z M113.6,207.8v-0.9h-2.2v0.9H113.6z M113.6,209.3v-0.9h-2.2
		v0.9H113.6z M118.8,202.4c-0.6-0.8-0.9-1.2-1.8-1.9l0.7-0.4c0.8,0.7,1.2,1,1.8,1.8L118.8,202.4z"/>
	<path d="M122.5,203.1c0.4,0.1,0.6,0.1,1.2,0.1c1.4,0,3.1-0.1,4.5-0.3c-0.2-0.5-0.5-1.1-0.7-1.8c-0.2-0.4-0.3-0.6-0.4-0.9l1.2-0.2
		c0.1,0.4,0.1,0.4,0.4,1.3c0.4,1,0.4,1,0.5,1.3c1.5-0.2,2.8-0.6,3.6-0.9l0.1,1.1c-0.3,0.1-0.4,0.1-0.9,0.2c-0.9,0.2-1.1,0.3-2,0.5
		c-0.4,0.1-0.4,0.1-0.5,0.1c0.5,1.2,1.6,3,2.7,4.4l-1,0.6c-0.4-0.3-0.6-0.5-1-0.6c-0.8-0.3-1.6-0.4-2.6-0.4c-1.3,0-2.2,0.2-2.9,0.6
		c-0.5,0.3-0.8,0.9-0.8,1.4s0.2,0.9,0.6,1.2c0.6,0.4,1.6,0.7,2.9,0.7c1.5,0,3.1-0.4,4.3-1l0.2,1.2c-1.5,0.6-2.9,0.8-4.4,0.8
		c-1.8,0-3.2-0.4-3.9-1.1c-0.4-0.5-0.7-1-0.7-1.6c0-1,0.6-1.9,1.7-2.4c0.8-0.4,1.7-0.6,2.9-0.6c1.3,0,2.5,0.2,3.1,0.5
		c-0.8-1.1-1.2-1.7-1.8-2.9c-0.2-0.3-0.2-0.3-0.3-0.5c-1.5,0.2-3.4,0.4-5.3,0.4c-0.3,0-0.4,0-0.6,0L122.5,203.1z"/>
	<path d="M135.7,209.2c0.4-0.3,1.5-1.3,2.6-2.5c0-0.6,0-1.5,0.1-2.9c-2,0.1-2,0.1-2.4,0.2l-0.1-1c0.2,0,0.3,0,0.5,0c0,0,0.7,0,2-0.1
		c0-1.1,0.1-1.8,0.1-2c0-0.3,0-0.4,0-0.8h1.2c-0.1,0.4-0.1,0.8-0.2,2.7c0.1,0,0.2,0,0.3-0.1l0.4,0.5c-0.2,0.2-0.4,0.4-0.8,0.9
		c0,0.2,0,0.3,0,0.4c0,0.3,0,0.3,0,1v0.1c0,0.1,0,0.1,0,0.2l0,0c0.2-0.3,0.7-0.8,1.9-1.8c1.4-1.1,2.5-1.7,3.4-1.7
		c1.1,0,1.8,0.7,1.8,1.8c0,0.5-0.1,1.1-0.3,2.2c-0.6,2.4-0.6,2.9-0.6,3.6c0,0.7,0.3,1.1,0.9,1.1c0.4,0,0.9-0.3,1.3-0.8
		c0.4-0.5,0.7-1.1,0.9-1.7c0.3,0.6,0.4,0.7,0.7,1c-0.4,0.8-0.6,1.1-0.9,1.5c-0.6,0.7-1.3,1.1-2.1,1.1c-0.4,0-0.8-0.1-1-0.3
		c-0.5-0.3-0.7-0.9-0.7-1.7s0-0.9,0.6-3.5c0.3-1.4,0.4-1.8,0.4-2.2c0-0.5-0.3-0.8-0.8-0.8c-0.6,0-1.3,0.3-2.3,1
		c-0.9,0.7-1.3,1-2.9,2.5v3.2c0,1.9,0,2,0,2.5h-1.2c0.1-0.6,0.1-0.6,0.1-2.5c0-1.8,0-1.8,0-2.4l0,0c-0.1,0.1-0.1,0.2-0.3,0.4
		c-0.2,0.3-0.2,0.3-0.7,0.8c-0.2,0.2-0.4,0.4-0.6,0.7c-0.2,0.3-0.3,0.3-0.4,0.5L135.7,209.2z"/>
	<path d="M150.5,202.3c0.3,0,0.4,0,0.5,0c0.2,0,0.4,0,0.9,0c1.8-0.1,6.6-0.4,8.5-0.5c0.8,0,1.5-0.1,1.8-0.2l0.1,1.1
		c-0.6,0-1.1,0.1-1.7,0.2c-1,0.3-2.1,0.8-2.9,1.5c-1.2,1-1.8,2.2-1.8,3.5s0.8,2.3,2.1,2.8c0.7,0.3,1.7,0.5,2.2,0.5c0,0,0.1,0,0.2,0
		l-0.2,1.2c-0.2,0-0.2,0-0.5-0.1c-1.5-0.3-2.4-0.6-3.2-1.2c-1.1-0.7-1.7-1.8-1.7-3.1c0-1.7,1-3.4,2.8-4.6c0.5-0.3,0.9-0.5,1.4-0.8
		c-0.9,0.1-1.6,0.2-3.3,0.3c-3.1,0.2-4.4,0.3-5.2,0.5L150.5,202.3z"/>
	<path d="M166.8,201.5c-0.1,0.5-0.1,1-0.1,1.8c0,1.6,0.2,3.7,0.4,4.7c0.3,1.5,0.9,2.6,1.5,2.6c0.3,0,0.5-0.3,0.8-0.8
		c0.3-0.8,0.6-1.5,0.8-2.6c0.3,0.4,0.5,0.5,0.9,0.9c-0.7,2.6-1.4,3.6-2.5,3.6c-0.8,0-1.6-0.8-2.1-2.3c-0.5-1.4-0.7-3.3-0.8-7
		c0-0.6,0-0.6,0-0.9H166.8z M174,202.3c1,1.2,1.6,2.1,2.1,3.4c0.6,1.3,0.9,2.3,1.1,4l-1.1,0.4c-0.3-2.8-1.4-5.4-3.1-7.4L174,202.3z"
		/>
	<path d="M181.4,201c0.4,0.1,0.7,0.1,1.4,0.1c1.2,0,3.2-0.1,4.6-0.2c0.4,0,0.5-0.1,0.7-0.2l0.6,0.8c-0.2,0.1-0.3,0.2-0.8,0.6
		c-2.1,2-3.9,3.6-4.9,4.3l0,0c1.1-0.6,2.4-0.9,3.7-0.9c2.5,0,4.1,1.2,4.1,3.1c0,2.3-2.2,3.9-5.5,3.9c-2.1,0-3.3-0.8-3.3-2.2
		c0-1,0.9-1.8,2.2-1.8c1,0,1.9,0.4,2.5,1.2c0.3,0.4,0.5,0.8,0.7,1.4c1.6-0.4,2.4-1.3,2.4-2.6c0-1.4-1.2-2.3-3.2-2.3
		c-2.2,0-4.6,1-6.3,2.6l-0.7-1c0.5-0.3,1.1-0.7,2.1-1.5c1.6-1.3,4-3.4,5-4.4c0.1-0.1,0.1-0.1,0.2-0.2c0,0,0,0,0.1-0.1l0.1-0.1l0,0
		c0,0,0,0-0.1,0c-0.5,0.1-2.3,0.2-4.6,0.3c-0.3,0-0.5,0-0.8,0.1L181.4,201z M184.3,209.5c-0.8,0-1.2,0.4-1.2,0.9
		c0,0.4,0.2,0.7,0.6,0.9c0.4,0.2,1,0.3,1.7,0.3c0.4,0,0.6,0,1.1-0.1C186.1,210.2,185.3,209.5,184.3,209.5z"/>
	<path d="M193.7,209.2c1.2,1,2,1.8,3,3.2l-0.8,0.8c-1-1.4-1.8-2.3-3-3.3L193.7,209.2z"/>
	<path d="M209.1,206.2c0-0.3,0.1-0.6,0.1-1.2v-2.6c0-0.6,0-0.7,0-1.1c0.3,0,0.8,0.1,1.2,0.1h7.8c0.6,0,0.8,0,1.1-0.1l0.6,0.6
		c-0.1,0.2-0.2,0.4-0.2,0.8c-0.5,3.4-1.2,5.3-2.8,7c-1.1,1.2-2.5,2.1-4.3,2.7c-0.2-0.5-0.3-0.6-0.7-1c2.4-0.8,4-2,5.1-3.7
		c0.8-1.3,1.3-2.8,1.6-5.4h-8v2.6c0,1,0,1,0,1.2L209.1,206.2L209.1,206.2z"/>
	<path d="M223.2,210.8c1.2,0,3-0.5,4.4-1.2c2.9-1.3,4.9-3.5,6.1-6.7c0.3,0.5,0.5,0.6,0.9,0.9c-1.2,2.6-2.6,4.4-4.6,5.7
		c-1.5,1-3.1,1.7-5.6,2.2c-0.4,0.1-0.5,0.1-0.9,0.2L223.2,210.8z M224.2,201.5c1.6,1,2.5,1.8,3.6,2.8l-0.8,0.9
		c-1.1-1.2-2.3-2.1-3.6-2.9L224.2,201.5z"/>
	<path d="M243,200.1c-0.2,0.3-0.2,0.3-0.5,1c-0.1,0.3-0.3,0.5-0.5,0.8c0.2,0,0.2,0,4.6-0.1c0.4,0,0.6-0.1,0.9-0.1l0.7,0.7
		c-0.2,0.2-0.2,0.3-0.4,1c-1,2.8-2.4,4.9-3.9,6.4c-1.3,1.2-2.7,2.2-4.7,3.1c-0.2-0.5-0.4-0.6-0.7-0.9c1.3-0.5,2.1-0.9,3.1-1.6
		c1.2-0.8,1.9-1.4,2.6-2.4c-1.1-1-2.2-1.8-3.4-2.4l0.7-0.8c1.3,0.7,2.1,1.3,3.3,2.3c0.9-1.3,1.6-2.8,2.1-4.3l-5.2,0.1
		c-1,1.6-2.1,2.8-3.6,4c-0.3-0.4-0.5-0.5-0.9-0.7c1.6-1.2,2.8-2.5,3.8-4.3c0.5-0.9,0.8-1.5,0.9-2.1L243,200.1z"/>
	<path d="M262.7,201c-0.3,0.2-0.3,0.2-0.7,0.6c-0.9,1-2.2,2.1-3.5,3v6.4c0,0.9,0,1.2,0.1,1.6h-1.3c0.1-0.4,0.1-0.7,0.1-1.6v-5.7
		c-2,1.2-3,1.7-5.8,2.6c-0.2-0.5-0.3-0.6-0.6-1c2.8-0.7,5.4-2,7.8-3.9c1.4-1.1,2.4-2.1,2.9-2.8L262.7,201z"/>
	<path d="M271.9,200.5c-0.2,0.3-0.3,0.6-0.4,1.1c-1.1,3.6-2.1,6.5-3.1,8.8c2-0.1,5.5-0.6,7.3-0.9c-0.8-1.6-1.6-2.9-2.3-3.9l0.9-0.5
		c1.2,1.7,2.7,4.4,3.7,6.8l-1,0.6c-0.3-0.9-0.5-1.3-0.9-2c-2.5,0.5-5.5,0.9-9.2,1.2c-0.6,0-1,0.1-1.3,0.2l-0.1-1.2
		c0.3,0,0.3,0,0.4,0s0.9,0,1.3-0.1c0.9-2.1,1.5-3.7,2.3-5.9c0.7-2.3,1.1-3.5,1.2-4.3L271.9,200.5z"/>
	<path d="M284.5,201.5c-0.1,0.2-0.1,0.3-0.2,1c-0.6,4.3-1.8,7.2-4,9.4c-0.4-0.4-0.5-0.5-1-0.8c0.9-0.9,1.5-1.7,2.2-3
		c0.7-1.5,1.3-3.2,1.5-5.2c0.1-0.6,0.2-1.1,0.2-1.4c0,0,0-0.1,0-0.2L284.5,201.5z M288.7,201.2c0,0.6,0.3,2.4,0.7,3.6
		c0.7,2.6,2,4.9,3.4,6.2c-0.4,0.3-0.6,0.4-0.9,0.8c-2-2.1-3.5-5.6-4.1-9.4c-0.1-0.5-0.1-0.8-0.2-1L288.7,201.2z M293.3,201.8
		c0,0.9-0.8,1.7-1.7,1.7c-0.9,0-1.7-0.8-1.7-1.7s0.8-1.7,1.7-1.7S293.3,200.8,293.3,201.8z M290.5,201.8c0,0.6,0.5,1.1,1.1,1.1
		s1.1-0.5,1.1-1.1s-0.5-1.1-1.1-1.1S290.5,201.2,290.5,201.8z"/>
	<path d="M305.7,212.3c-1.2-1.5-2.9-3.1-4.8-4.6c-1,1.2-1.8,1.9-2.9,2.7c-1,0.8-1.8,1.2-2.9,1.8c-0.2-0.5-0.4-0.6-0.7-1
		c1.2-0.5,1.9-0.9,3-1.7c2.4-1.8,4.3-4.1,5.4-6.8c0-0.1,0-0.1,0.1-0.2v-0.1c-0.1,0-0.2,0-0.4,0l-5,0.1c-0.7,0-1.1,0-1.5,0.1v-1.2
		c0.4,0.1,0.7,0.1,1.2,0.1c0,0,0.2,0,0.4,0l5.4-0.1c0.5,0,0.7,0,1-0.1l0.6,0.6c-0.1,0.2-0.3,0.4-0.4,0.7c-0.8,1.9-1.5,3-2.5,4.2
		c2,1.5,3.3,2.7,5,4.5L305.7,212.3z"/>
	<path d="M309.9,206.2c0-0.3,0.1-0.6,0.1-1.2v-2.6c0-0.6,0-0.7,0-1.1c0.3,0,0.8,0.1,1.2,0.1h7.8c0.6,0,0.8,0,1.1-0.1l0.6,0.6
		c-0.1,0.2-0.2,0.4-0.2,0.8c-0.5,3.4-1.2,5.3-2.8,7c-1.1,1.2-2.5,2.1-4.3,2.7c-0.2-0.5-0.3-0.6-0.7-1c2.4-0.8,4-2,5.1-3.7
		c0.8-1.3,1.3-2.8,1.6-5.4h-8v2.6c0,1,0,1,0,1.2L309.9,206.2L309.9,206.2z"/>
	<path d="M20.8,235.8c0.4,0.1,0.8,0.1,1.9,0.1h8.7c1.1,0,1.4,0,1.8-0.1v1.2c-0.5,0-0.8-0.1-1.8-0.1h-8.7c-1.1,0-1.4,0-1.9,0.1
		C20.8,237,20.8,235.8,20.8,235.8z"/>
	<path d="M38.3,242.7c0.1-0.3,0.1-0.7,0.1-1.6v-9.3c0-0.9,0-1.2-0.1-1.5h1.3c-0.1,0.3-0.1,0.6-0.1,1.6v2.8c2.1,0.8,4.2,1.7,6.7,3.2
		l-0.6,1.1c-1.1-0.8-3.5-2.1-5.6-3c-0.2-0.1-0.3-0.2-0.5-0.3l0,0c0,0.3,0.1,0.5,0.1,0.9v4.5c0,0.9,0,1.2,0.1,1.6H38.3z M44.1,230.8
		c0.7,0.8,1.1,1.4,1.5,2.3l-0.8,0.5c-0.4-0.8-1.1-1.9-1.5-2.4L44.1,230.8z M45.8,230c0.7,0.8,1,1.4,1.5,2.3l-0.8,0.4
		c-0.3-0.7-0.9-1.7-1.5-2.4L45.8,230z"/>
	<path d="M53.7,232.1c0.5-1,0.7-1.6,0.7-2.1l1.2,0.2c-0.1,0.2-0.1,0.2-0.4,0.8c-0.2,0.5-0.4,0.9-0.5,1c0.2,0,0.2,0,0.3,0
		c2.4-0.1,3.9-0.3,4.7-0.6l0.1,1c-0.2,0-0.3,0-0.6,0.1c-1.6,0.2-3.1,0.3-4.9,0.4c-0.5,0.9-0.8,1.5-1.4,2.1c-0.1,0.2-0.4,0.5-0.5,0.6
		s-0.2,0.1-0.2,0.2l0,0l0,0l0,0c0.5-0.4,0.5-0.4,0.7-0.5c0.7-0.5,1.5-0.7,2.3-0.7c1.1,0,1.8,0.6,2,1.7c1.1-0.4,1.9-0.8,2.6-1
		c0.7-0.3,0.8-0.3,1-0.4l0.5,1c-0.8,0.1-2.1,0.6-4,1.3c0,0.4,0,0.5,0,0.9c0,0.2,0,0.5,0,0.8s0,0.5,0,0.7s0,0.3,0,0.5h-1
		c0-0.3,0.1-1.2,0.1-2.2c0-0.2,0-0.3,0-0.4c-2,1-2.8,1.7-2.8,2.6c0,1,0.9,1.4,3,1.4c1.5,0,3.1-0.2,4-0.6l0.1,1.2
		c-0.2,0-0.3,0-0.6,0.1c-1.2,0.2-2.5,0.3-3.6,0.3c-2.7,0-4-0.8-4-2.3c0-0.8,0.5-1.6,1.5-2.4c0.5-0.4,1.2-0.8,2.2-1.2
		c-0.1-0.8-0.5-1.2-1.2-1.2c-0.9,0-2.1,0.6-3.3,1.6c-0.6,0.5-0.9,0.8-1.2,1.2l-0.8-0.8c1-0.8,2.3-2.4,3.4-4.3c0-0.1,0-0.1,0.1-0.2
		c-0.1,0-0.2,0-0.3,0c-0.2,0-1.6,0-2.2,0c-0.1,0-0.2,0-0.2,0c-0.1,0-0.2,0-0.3,0v-1c0.5,0.1,1.7,0.2,3.2,0.2L53.7,232.1L53.7,232.1z
		"/>
	<path d="M70.4,233.7c0,0.3,0,0.3-0.1,1c0,2.5-0.5,4-1.5,5.3c-0.9,1.2-2,1.9-3.8,2.6c-0.2-0.5-0.3-0.6-0.7-1c1.2-0.4,2-0.7,2.7-1.4
		c1.6-1.3,2.2-2.8,2.2-5.7c0-0.4,0-0.5-0.1-0.8L70.4,233.7L70.4,233.7z M76.4,231.8c-0.2,0.2-0.2,0.2-0.4,0.6c-1,2-2.4,3.4-4.4,4.3
		c-0.2-0.4-0.3-0.5-0.7-0.9c1-0.4,1.7-0.8,2.4-1.4c0.7-0.6,1.2-1.4,1.7-2.2h-8.5c-0.8,0-1.2,0-1.8,0.1v-1.2c0.5,0.1,0.9,0.1,1.8,0.1
		h8.1c1,0,1,0,1.3-0.1L76.4,231.8z"/>
	<path d="M88.5,231.7c0-0.2-0.1-0.3-0.1-0.4c0-0.9,0.8-1.7,1.7-1.7c0.9,0,1.7,0.8,1.7,1.7S91,233,90.1,233c-0.2,0-0.3,0-0.5-0.1
		c0,0,0,0,0,0.1c-0.7,2.7-1.7,4.5-3.1,6c-1.6,1.6-3.3,2.7-5.5,3.6c-0.2-0.5-0.4-0.7-0.7-1c2-0.6,4.1-1.9,5.5-3.4
		c1.2-1.4,2.1-3.1,2.6-5.3h-7.6c-0.9,0-1.2,0-1.7,0.1v-1.2c0.5,0.1,0.9,0.1,1.7,0.1h7.4h0.3V231.7z M89.1,231.3
		c0,0.6,0.5,1.1,1.1,1.1s1.1-0.5,1.1-1.1s-0.5-1.1-1.1-1.1S89.1,230.7,89.1,231.3z"/>
	<path d="M96.2,230.6c0,0.4-0.1,0.6-0.1,1.2v4c0,0.7,0,0.9,0.1,1.2H95c0-0.3,0.1-0.7,0.1-1.3v-4c0-0.6,0-0.9-0.1-1.3h1.2V230.6z
		 M102.9,230.6c-0.1,0.3-0.1,0.6-0.1,1.3v1.8c0,2.4-0.1,3.7-0.4,4.6c-0.4,1.4-1.4,2.5-2.8,3.3c-0.7,0.4-1.5,0.7-2.7,1.1
		c-0.2-0.4-0.3-0.6-0.6-1c1.4-0.3,2.1-0.6,2.8-1c1.4-0.8,2.1-1.8,2.4-3.2c0.2-0.9,0.2-1.5,0.2-3.8V232c0-0.8,0-1-0.1-1.3h1.3V230.6z
		"/>
	<path d="M112.7,238.2c-0.9,2-1.8,2.9-2.8,2.9c-1.4,0-2.5-1.6-2.5-3.7c0-1.5,0.6-3,1.6-4.1c1.2-1.3,2.8-2,4.8-2
		c1.7,0,3.1,0.5,4.1,1.5c0.9,0.9,1.5,2.2,1.5,3.7c0,2.3-1.3,4.2-3.4,5.2c-0.7,0.3-1.2,0.5-2.3,0.7c-0.1-0.5-0.2-0.6-0.5-1
		c1.1-0.2,1.8-0.4,2.5-0.7c1.6-0.8,2.7-2.4,2.7-4.2c0-1.7-0.9-3.1-2.4-3.8c-0.6-0.2-1-0.3-1.7-0.4
		C114,234.3,113.4,236.6,112.7,238.2z M110.9,233c-1.5,0.9-2.4,2.6-2.4,4.5c0,1.4,0.6,2.5,1.4,2.5c0.6,0,1.2-0.7,1.9-2.2
		c0.6-1.4,1.2-3.6,1.4-5.5C112.2,232.3,111.6,232.5,110.9,233z"/>
	<path d="M125.1,231.6c-0.3,0-0.6,0-1.1,0.1v-1.1c0.3,0.1,0.6,0.1,1.1,0.1h2c0.7,0,1.1,0,1.4-0.1c0,0.4-0.1,0.7-0.1,1
		c0,1.9,0.4,3.6,1.3,5.2c0.6,1.1,1.3,2.1,2.2,3.1c0.9,0.9,1.5,1.3,2.8,2.2c-0.4,0.3-0.5,0.5-0.8,1c-1.3-0.9-2-1.5-2.9-2.6
		c-0.9-1-1.6-2.1-2.1-3.2c-0.5-0.9-0.7-1.6-0.9-2.8c-0.5,2-1.1,3.4-2.1,4.9c-0.6,0.8-1.2,1.6-2,2.3c-0.6,0.5-0.9,0.8-1.9,1.5
		c-0.2-0.4-0.4-0.6-0.8-0.9c1.6-1,2.5-1.8,3.5-3c1.1-1.3,1.8-2.8,2.3-4.4c0.3-1,0.4-1.8,0.5-3.3H125.1z"/>
	<path d="M146.1,232.9c0.9,0,1.3,0,1.8-0.1c0,0.5,0,0.5-0.1,2c0,2.2-0.3,5.2-0.5,6.3c-0.3,1.3-0.7,1.7-1.9,1.7
		c-0.7,0-1.5-0.1-2.7-0.2c0-0.4-0.1-0.7-0.3-1.1c1.2,0.3,2.1,0.4,2.8,0.4c0.8,0,1-0.4,1.2-2.2c0.2-1.5,0.3-3.5,0.3-5.8h-4.6
		c-0.2,2.1-0.7,3.9-1.5,5.3c-0.9,1.5-2.1,2.7-4.2,3.9c-0.3-0.4-0.5-0.7-0.8-0.8c1.2-0.6,1.8-1,2.5-1.6c1.7-1.6,2.6-3.5,2.9-6.7h-2.9
		c-0.9,0-1.5,0-1.8,0.1V233c0.4,0.1,0.9,0.1,1.9,0.1h3c0-0.7,0.1-1.2,0.1-1.8c0-0.7,0-1.1-0.1-1.5h1.2c0,0.4-0.1,0.6-0.1,1.2
		c0,0.7,0,0.7-0.1,2L146.1,232.9L146.1,232.9z"/>
	<path d="M151.4,231.3c0-0.8,0-1.2-0.1-1.5h1c-0.1,0.4-0.1,0.8-0.1,1.5v1.4h0.3c0.4,0,0.7,0,1-0.1v0.9c-0.3,0-0.6-0.1-1-0.1h-0.3
		c0.3,1,0.8,1.8,1.4,2.7c-0.2,0.3-0.3,0.4-0.5,0.8c-0.4-0.7-0.7-1.3-1-2.2c0,1.1,0.1,1.8,0.1,2.3v4.6c0,0.8,0,1.3,0.1,1.7h-1
		c0.1-0.5,0.1-1,0.1-1.7v-4.2c0-0.6,0-0.7,0.1-2.6c-0.5,2.1-0.8,3-1.5,4.2c-0.2-0.3-0.3-0.5-0.6-0.7c0.7-1,1.1-1.8,1.5-3.1
		c0.2-0.7,0.3-1.1,0.4-1.7h-0.5c-0.5,0-0.8,0-1.1,0.1v-0.9c0.3,0,0.6,0.1,1.1,0.1h0.6V231.3z M153.8,243.2c0.1-0.5,0.1-0.9,0.1-1.7
		v-9.7c0-0.7,0-1.2-0.1-1.7c0.4,0,0.7,0.1,1.3,0.1h1.4c0.6,0,0.9,0,1.3-0.1c0,0.4,0,0.8,0,1.4v1.4c0,0.6,0,0.9,0,1.4
		c-0.3,0-0.8,0-1.4,0h-1.8v7.3c0,0.9,0,1.3,0.1,1.6H153.8z M154.7,231v1h2.3v-1H154.7z M154.7,232.6v1.1h2.3v-1.1H154.7z
		 M156.5,235.9c-0.6,0-0.9,0-1.3,0.1v-0.8c0.3,0,0.8,0.1,1.2,0.1h1.5v-0.1c0-0.3,0-0.5-0.1-0.8h0.8c0,0.3-0.1,0.5-0.1,0.8v0.1h1.6
		c0.6,0,0.9,0,1.3-0.1v0.8c-0.4,0-0.7-0.1-1.3-0.1h-1.6v0.7h1.1c0.4,0,0.9,0,1.3,0c0,0.3,0,0.5,0,1v1.4c0,0.6,0,0.7,0,1.1h-0.2
		c-0.1,0-0.7,0-1,0H159c0.7,0.7,1.3,1.1,2.3,1.5c-0.3,0.2-0.3,0.3-0.5,0.6c-1-0.6-1.6-1-2.2-1.8c0.1,0.6,0.1,0.8,0.1,1v1
		c0,0.3,0,0.6,0.1,0.9H158c0.1-0.3,0.1-0.5,0.1-0.9v-1c0-0.3,0-0.6,0-1c-0.8,1-1.3,1.4-2.4,2c-0.2-0.3-0.3-0.4-0.5-0.7
		c1.2-0.5,1.7-0.8,2.5-1.7h-0.4c-0.6,0-0.8,0-1.3,0c0-0.3,0-0.6,0-1v-1.1c0-0.7,0-1.1,0-1.3c0.4,0,0.9,0,1.3,0h0.9v-0.7H156.5z
		 M156.5,237.2v0.7h1.5v-0.7H156.5z M156.5,238.5v0.8h1.5v-0.8H156.5z M158.7,237.9h1.6v-0.7h-1.6V237.9z M158.7,239.3h1.6v-0.8
		h-1.6V239.3z M163,241.9c0,0.9-0.3,1.2-1.5,1.2c-0.2,0-0.6,0-1,0c0-0.4-0.1-0.5-0.2-0.9c0.5,0.1,1,0.1,1.3,0.1
		c0.5,0,0.6-0.1,0.6-0.4v-7.5h-1.9c-0.6,0-1.1,0-1.4,0c0-0.4,0-0.9,0-1.4v-1.4c0-0.5,0-1,0-1.4c0.4,0,0.8,0.1,1.4,0.1h1.5
		c0.6,0,1,0,1.4-0.1c-0.1,0.6-0.1,1-0.1,1.7v10H163z M159.6,231.9h2.5v-1h-2.5V231.9z M159.6,233.6h2.5v-1.1h-2.5V233.6z"/>
	<path d="M167.6,230.7c-0.2,0.6-0.4,1.4-0.6,2.4c-0.3,1.6-0.5,2.9-0.5,4.7c0,1.2,0,2.1,0.1,2.9c0.2-1,0.5-1.8,1-2.9l0.7,0.3
		c-0.7,1.5-1.2,3.3-1.2,4.1c0,0,0,0.1,0,0.2l-1.1,0.1c0-0.2,0-0.3-0.1-0.6c-0.3-1.6-0.4-2.7-0.4-4.2c0-2.1,0.2-3.7,0.7-5.9
		c0.2-0.7,0.2-0.9,0.2-1.2L167.6,230.7z M171.4,236.7c-0.8,0.8-1.1,1.5-1.1,2.2c0,1.1,0.9,1.6,2.9,1.6c1.4,0,2.6-0.2,3.4-0.5
		l0.2,1.2c-0.2,0-0.2,0-0.5,0.1c-1,0.2-2.1,0.3-3.1,0.3c-1.7,0-2.8-0.4-3.4-1.1c-0.3-0.4-0.5-0.8-0.5-1.4c0-0.9,0.4-1.7,1.3-2.8
		L171.4,236.7z M169.5,232.3c0.6,0.2,1.4,0.2,2.5,0.2c1.7,0,3-0.1,4-0.4l0.1,1.1c0,0-0.4,0-1,0.1c-0.9,0.1-2.1,0.2-3.2,0.2
		c-0.8,0-1.4,0-2.4-0.1L169.5,232.3z"/>
	<path d="M178.8,232.3c0.3,0.1,0.6,0.1,1.2,0.1h3.4c0.6,0,0.9,0,1.2-0.1v1c-0.3,0-0.6-0.1-1.1-0.1H180c-0.5,0-0.8,0-1.2,0.1V232.3z
		 M179.3,230.2c0.4,0.1,0.6,0.1,1.1,0.1h2.4c0.5,0,0.8,0,1.1-0.1v0.9c-0.3,0-0.7-0.1-1.1-0.1h-2.4c-0.5,0-0.8,0-1.1,0.1V230.2z
		 M179.4,234.5c0.3,0,0.6,0.1,1.1,0.1h2.5c0.5,0,0.8,0,1.1-0.1v0.9c-0.4,0-0.6-0.1-1.1-0.1h-2.5c-0.5,0-0.8,0-1.1,0.1V234.5z
		 M179.4,236.5c0.3,0,0.6,0.1,1.1,0.1h2.5c0.5,0,0.8,0,1.1-0.1v0.9c-0.4,0-0.6-0.1-1.1-0.1h-2.5c-0.5,0-0.8,0-1.1,0.1V236.5z
		 M179.4,243.4c0.1-0.4,0.1-0.8,0.1-1.5v-2c0-0.5,0-0.9-0.1-1.2c0.4,0,0.7,0.1,1.2,0.1h2.3c0.6,0,0.8,0,1.1,0c0,0.3,0,0.6,0,1.2v2.2
		c0,0.4,0,0.8,0.1,1.2h-0.9v-0.8h-2.7v0.9L179.4,243.4L179.4,243.4z M180.4,241.6h2.7v-2.2h-2.7V241.6z M186.2,241.4
		c0,0.3,0.1,0.4,0.4,0.5c0.3,0.1,0.9,0.1,1.8,0.1c1.6,0,2.1-0.1,2.3-0.3s0.4-1,0.5-2.4c0.3,0.2,0.7,0.4,1,0.5
		c-0.2,1.5-0.3,2.2-0.7,2.6c-0.4,0.5-1.1,0.6-3.2,0.6c-1.3,0-2-0.1-2.5-0.2c-0.5-0.1-0.6-0.4-0.6-1.1v-5c0-0.7,0-1-0.1-1.4
		c0.4,0,0.8,0.1,1.5,0.1h3.8v-3.9h-4.1c-0.6,0-1,0-1.4,0.1v-1c0.4,0.1,0.9,0.1,1.4,0.1h3.6c0.6,0,1,0,1.4-0.1c0,0.4,0,0.6,0,1.5v2.8
		c0,0.6,0,1,0.1,1.4c-0.5,0-0.8-0.1-1.5-0.1h-3.7V241.4z"/>
	<path d="M205.9,235.2c-0.1,0.2-0.1,0.2-0.3,0.9c-0.6,1.7-1,2.6-1.7,3.8c0.3,0.8,0.6,1.3,0.9,1.7c0.2,0.3,0.5,0.5,0.6,0.5
		s0.2-0.2,0.2-0.4c0.2-0.5,0.2-0.8,0.4-1.8c0.3,0.3,0.5,0.4,0.8,0.6c-0.3,1.9-0.7,2.6-1.3,2.6c-0.7,0-1.4-0.9-2.1-2.4
		c-0.8,1-1.4,1.7-2.6,2.6c-0.3-0.3-0.5-0.4-0.8-0.6c1.3-0.9,2.1-1.6,3-2.9c-0.6-1.7-0.8-3.3-0.9-6.3h-7.4c-0.6,0-1.1,0-1.5,0.1v-1
		c0.4,0.1,0.8,0.1,1.5,0.1h2.4v-1h-1.7c-0.6,0-1,0-1.3,0.1v-0.9c0.4,0.1,0.7,0.1,1.3,0.1h1.7v-0.3c0-0.5,0-0.7-0.1-1h1
		c-0.1,0.3-0.1,0.6-0.1,1v0.3h1.7c0.6,0,0.9,0,1.3-0.1v0.9c-0.4-0.1-0.7-0.1-1.3-0.1h-1.7v1h4.2c0-0.8,0-1.3,0-1.8s0-0.8-0.1-1.2
		h1.1c-0.1,0.4-0.1,0.7-0.1,1.6c0,0.5,0,0.7,0,1.3h2.1c0.7,0,1.1,0,1.5-0.1v1c-0.4-0.1-0.8-0.1-1.5-0.1H203c0.1,2.3,0.3,3.9,0.7,5.3
		c0.7-1.3,1.3-2.9,1.4-4L205.9,235.2z M200.1,234.7c0.6,0,0.9,0,1.3-0.1v0.9c-0.4-0.1-0.7-0.1-1.3-0.1h-2.2v0.9h1.8
		c0.5,0,0.9,0,1.2-0.1c0,0.4-0.1,0.6-0.1,1v1.8c0,0.5,0,0.7,0.1,1c-0.4,0-0.7-0.1-1.2-0.1h-1.8v0.8h2c0.6,0,0.9,0,1.3-0.1v0.9
		c-0.3,0-0.8-0.1-1.2-0.1h-2.1v0.5c0,0.5,0,0.8,0.1,1.2h-1c0.1-0.4,0.1-0.8,0.1-1.2v-0.5h-2.5c-0.6,0-0.9,0-1.3,0.1v-0.9
		c0.4,0.1,0.7,0.1,1.3,0.1h2.5V240h-1.7c-0.5,0-0.9,0-1.2,0.1c0-0.4,0.1-0.6,0.1-1v-1.8c0-0.4,0-0.6-0.1-1c0.3,0,0.7,0.1,1.2,0.1
		h1.7v-0.9h-2.2c-0.6,0-0.9,0-1.3,0.1v-0.9c0.4,0.1,0.7,0.1,1.3,0.1h2.2c0-0.3,0-0.5-0.1-0.8h1c0,0.4,0,0.5-0.1,0.8h2.2V234.7z
		 M197,236.9h-2.1v0.9h2.1V236.9z M197,238.4h-2.1v0.9h2.1V238.4z M200,237.8v-0.9h-2.2v0.9H200z M200,239.4v-0.9h-2.2v0.9H200z
		 M205.2,232.5c-0.6-0.8-0.9-1.2-1.8-1.9l0.7-0.4c0.8,0.7,1.2,1,1.8,1.8L205.2,232.5z"/>
	<path d="M211.5,230.5c-0.1,0.5-0.2,1.3-0.2,3.2c-0.1,1.8-0.1,3.8-0.1,4.5c0,0.2,0,0.6,0,0.9c0.1,0.9,0.3,1.4,0.7,1.8
		c0.4,0.4,1.1,0.6,1.9,0.6c1.8,0,3.2-0.9,4-2.6c0.3-0.7,0.5-1.3,0.7-2.4c0.4,0.4,0.6,0.5,1.1,0.7c-0.6,1.8-1,2.6-1.7,3.4
		c-1.1,1.3-2.5,1.9-4.2,1.9c-1.3,0-2.2-0.4-2.8-1c-0.6-0.7-0.8-1.5-0.8-3.1c0-1,0-1.4,0.1-6.1c0-0.4,0-0.7,0-1s0-0.5-0.1-0.8
		L211.5,230.5L211.5,230.5z"/>
	<path d="M222.5,232.3c0.3,0,0.4,0,0.5,0c0.2,0,0.4,0,0.9,0c1.8-0.1,6.6-0.4,8.5-0.5c0.8,0,1.5-0.1,1.8-0.2l0.1,1.1
		c-0.6,0-1.1,0.1-1.7,0.2c-1,0.3-2.1,0.8-2.9,1.5c-1.2,1-1.8,2.2-1.8,3.5s0.8,2.3,2.1,2.8c0.7,0.3,1.7,0.5,2.2,0.5c0,0,0.1,0,0.2,0
		l-0.2,1.2c-0.2,0-0.2,0-0.5-0.1c-1.5-0.3-2.4-0.6-3.2-1.2c-1.1-0.7-1.7-1.8-1.7-3.1c0-1.7,1-3.4,2.8-4.6c0.5-0.3,0.9-0.5,1.4-0.8
		c-0.9,0.1-1.6,0.2-3.3,0.3c-3.1,0.2-4.4,0.3-5.2,0.5L222.5,232.3z"/>
	<path d="M245.8,230.9c-0.2,0.1-0.3,0.2-1.8,1.7c-0.8,0.7-1.6,1.4-3.4,2.8c-0.6,0.4-0.7,0.5-0.7,0.8s0.1,0.4,1.3,1.3
		c2.2,1.7,2.6,2,4.8,4.1c0.2,0.2,0.3,0.2,0.4,0.4l-0.9,0.9c-0.4-0.5-0.9-1.1-1.9-2.1c-1-0.9-1.6-1.4-3.8-3.1c-0.8-0.7-1.1-1-1.1-1.5
		c0-0.4,0.2-0.7,0.4-1c0.2-0.2,0.2-0.2,1.3-1c2-1.5,3.9-3.3,4.4-4.1L245.8,230.9z"/>
	<path d="M251.4,232.8c0.5,0.1,1.1,0.1,1.9,0.1c0.3,0,0.5,0,0.9,0c0.3-1.6,0.3-2.1,0.3-2.7v-0.1l1.2,0.1c-0.1,0.2-0.1,0.3-0.1,0.5
		c0,0.1-0.1,0.4-0.2,0.9c-0.1,0.5-0.1,0.7-0.2,1.1c1-0.1,2.1-0.3,2.7-0.5l0.1,1h-0.2l-0.3,0.1c-1,0.2-1.8,0.3-2.5,0.4
		c-0.6,3.2-1.5,6.1-2.8,8.8l-1.1-0.5c1.1-1.8,2.2-5.2,2.8-8.3c-0.3,0-0.5,0-1,0s-0.7,0-1.2,0h-0.1c0,0-0.1,0-0.3,0v-0.9H251.4z
		 M258.1,238.2c-0.3,0.4-0.3,0.4-0.4,0.6c-0.2,0.3-0.4,0.7-0.4,1.1c0,0.9,0.9,1.4,2.6,1.4c1.1,0,2.5-0.2,3.3-0.5l0.1,1.1h-0.2
		l-0.5,0.1c-1,0.2-1.9,0.2-2.7,0.2c-2.5,0-3.7-0.8-3.7-2.2c0-0.7,0.2-1.1,1-2.2L258.1,238.2z M262.7,235.6c-0.7-0.1-1.1-0.1-1.8-0.1
		c-1.3,0-2.4,0.1-3.8,0.5l-0.1-1c1.7-0.4,2.7-0.5,4-0.5c0.3,0,0.5,0,1.6,0L262.7,235.6z M260.5,230.4c0.7,0.8,1.1,1.4,1.5,2.3
		l-0.8,0.5c-0.4-0.8-1.1-1.9-1.5-2.4L260.5,230.4z M262.2,229.5c0.7,0.8,1,1.4,1.5,2.3l-0.8,0.4c-0.3-0.7-0.9-1.7-1.5-2.4
		L262.2,229.5z"/>
	<path d="M266.5,233.2c0.4,0.1,0.6,0.1,1.2,0.1c1.4,0,3.1-0.1,4.5-0.3c-0.2-0.5-0.5-1.1-0.7-1.8c-0.2-0.4-0.3-0.6-0.4-0.9l1.2-0.2
		c0.1,0.4,0.1,0.4,0.4,1.3c0.4,1,0.4,1,0.5,1.3c1.5-0.2,2.8-0.6,3.6-0.9l0.2,1.1c-0.3,0.1-0.4,0.1-0.9,0.2c-0.9,0.2-1.1,0.3-2,0.5
		c-0.4,0.1-0.4,0.1-0.5,0.1c0.5,1.2,1.7,3,2.7,4.4l-1,0.6c-0.4-0.3-0.6-0.5-1-0.6c-0.8-0.3-1.6-0.4-2.6-0.4c-1.3,0-2.2,0.2-2.8,0.6
		c-0.5,0.3-0.8,0.9-0.8,1.4s0.2,0.9,0.6,1.2c0.6,0.4,1.6,0.7,2.9,0.7c1.5,0,3.1-0.4,4.3-1l0.2,1.2c-1.5,0.6-2.9,0.8-4.4,0.8
		c-1.8,0-3.2-0.4-3.9-1.1c-0.4-0.5-0.7-1-0.7-1.6c0-1,0.6-1.9,1.7-2.4c0.8-0.4,1.7-0.6,2.9-0.6c1.3,0,2.5,0.2,3.1,0.5
		c-0.8-1.1-1.2-1.7-1.8-2.9c-0.2-0.3-0.2-0.3-0.3-0.5c-1.5,0.2-3.4,0.4-5.3,0.4c-0.3,0-0.4,0-0.6,0L266.5,233.2z"/>
	<path d="M282,231.6c-0.1,0.5-0.1,1-0.1,1.8c0,1.6,0.2,3.7,0.4,4.7c0.3,1.5,0.9,2.6,1.5,2.6c0.3,0,0.5-0.3,0.8-0.8
		c0.3-0.8,0.6-1.5,0.8-2.6c0.3,0.4,0.5,0.5,0.9,0.9c-0.7,2.6-1.4,3.6-2.5,3.6c-0.8,0-1.6-0.8-2.1-2.3c-0.5-1.4-0.7-3.3-0.8-7
		c0-0.6,0-0.6,0-0.9H282z M289.2,232.4c1,1.2,1.6,2.1,2.1,3.4c0.6,1.3,0.9,2.3,1.1,4l-1.1,0.4c-0.3-2.8-1.4-5.4-3.1-7.4L289.2,232.4
		z"/>
	<path d="M298.4,240.9c0,1.2-1,2.2-2.2,2.2s-2.2-1-2.2-2.2s1-2.2,2.2-2.2S298.4,239.7,298.4,240.9z M294.8,240.9
		c0,0.8,0.6,1.4,1.4,1.4s1.4-0.6,1.4-1.4c0-0.8-0.6-1.4-1.4-1.4S294.8,240.1,294.8,240.9z"/>
	<path d="M21.9,266.3c0-0.3,0.1-0.6,0.1-1.2v-2.6c0-0.6,0-0.7,0-1.1c0.3,0,0.8,0.1,1.2,0.1H31c0.6,0,0.8,0,1.1-0.1l0.6,0.6
		c-0.1,0.2-0.2,0.4-0.2,0.8c-0.5,3.4-1.2,5.3-2.8,7c-1.1,1.2-2.6,2.1-4.3,2.7c-0.2-0.5-0.3-0.6-0.7-1c2.4-0.8,4-2,5.1-3.7
		c0.8-1.3,1.3-2.8,1.6-5.4h-8v2.6c0,1,0,1,0,1.2h-1.5V266.3z"/>
	<path d="M36,270.9c1.2,0,3-0.5,4.4-1.2c2.9-1.3,4.9-3.5,6.1-6.7c0.3,0.5,0.5,0.6,0.9,0.9c-1.2,2.6-2.6,4.4-4.6,5.7
		c-1.5,1-3.1,1.7-5.6,2.2c-0.4,0.1-0.5,0.1-0.9,0.2L36,270.9z M37,261.6c1.6,1,2.5,1.8,3.6,2.8l-0.8,0.9c-1.1-1.2-2.3-2.1-3.6-2.9
		L37,261.6z"/>
	<path d="M55.8,260.2c-0.2,0.3-0.2,0.3-0.5,1c-0.1,0.3-0.3,0.5-0.5,0.8c0.2,0,0.2,0,4.6-0.1c0.4,0,0.6-0.1,0.9-0.1l0.7,0.7
		c-0.2,0.2-0.2,0.3-0.4,1c-1,2.8-2.4,4.9-3.9,6.4c-1.3,1.2-2.7,2.2-4.7,3.1c-0.2-0.5-0.4-0.6-0.7-0.9c1.3-0.5,2.1-0.9,3.1-1.6
		c1.2-0.8,1.9-1.4,2.6-2.4c-1.1-1-2.2-1.8-3.4-2.4l0.7-0.8c1.3,0.7,2.1,1.3,3.3,2.3c0.9-1.3,1.6-2.8,2.1-4.3l-5.2,0.1
		c-1,1.6-2.1,2.8-3.6,4c-0.3-0.4-0.5-0.5-0.9-0.7c1.6-1.2,2.9-2.5,3.8-4.3c0.5-0.9,0.8-1.5,0.9-2.1L55.8,260.2z"/>
	<path d="M75.5,261c-0.3,0.2-0.3,0.2-0.7,0.6c-0.9,1-2.2,2.1-3.5,3v6.4c0,0.9,0,1.2,0.1,1.6h-1.3c0.1-0.4,0.1-0.7,0.1-1.6v-5.7
		c-2,1.2-3,1.7-5.8,2.6c-0.2-0.5-0.3-0.6-0.6-1c2.8-0.7,5.4-2,7.8-3.9c1.4-1.1,2.4-2.1,2.9-2.8L75.5,261z"/>
	<path d="M84.7,260.6c-0.1,0.3-0.3,0.6-0.4,1.1c-1.1,3.6-2.1,6.5-3.1,8.8c2-0.1,5.5-0.6,7.3-0.9c-0.8-1.6-1.6-2.9-2.3-3.9l0.9-0.5
		c1.2,1.7,2.7,4.4,3.7,6.8l-1,0.6c-0.3-0.9-0.5-1.3-0.9-2c-2.5,0.5-5.5,0.9-9.2,1.2c-0.6,0-1,0.1-1.3,0.2l-0.2-1.2
		c0.3,0,0.3,0,0.4,0s0.9,0,1.3-0.1c0.9-2.1,1.5-3.7,2.3-5.9c0.7-2.3,1.1-3.5,1.2-4.3L84.7,260.6z"/>
	<path d="M97.3,261.5c-0.1,0.2-0.1,0.3-0.2,1c-0.6,4.3-1.8,7.2-4,9.4c-0.4-0.4-0.5-0.5-1-0.8c0.9-0.9,1.5-1.7,2.2-3
		c0.7-1.5,1.3-3.2,1.5-5.2c0.1-0.6,0.1-1.1,0.1-1.4c0,0,0-0.1,0-0.2L97.3,261.5z M101.5,261.3c0,0.6,0.3,2.4,0.7,3.6
		c0.7,2.6,1.9,4.9,3.4,6.2c-0.4,0.3-0.6,0.4-0.9,0.8c-2-2.1-3.5-5.6-4.1-9.4c-0.1-0.5-0.1-0.8-0.2-1L101.5,261.3z M106.1,261.9
		c0,0.9-0.8,1.7-1.7,1.7c-0.9,0-1.7-0.8-1.7-1.7s0.8-1.7,1.7-1.7S106.1,260.9,106.1,261.9z M103.3,261.9c0,0.6,0.5,1.1,1.1,1.1
		s1.1-0.5,1.1-1.1s-0.5-1.1-1.1-1.1S103.3,261.3,103.3,261.9z"/>
	<path d="M118.5,272.4c-1.2-1.5-2.9-3.1-4.8-4.6c-1.1,1.2-1.8,1.9-2.9,2.7c-1,0.7-1.8,1.2-2.9,1.8c-0.2-0.5-0.4-0.6-0.7-1
		c1.2-0.5,1.9-0.9,3-1.7c2.4-1.8,4.3-4.1,5.4-6.8c0-0.1,0-0.1,0.1-0.2v-0.1c-0.1,0-0.2,0-0.4,0l-5,0.1c-0.7,0-1.1,0-1.5,0.1v-1.2
		c0.4,0.1,0.7,0.1,1.2,0.1c0,0,0.2,0,0.4,0l5.4-0.1c0.5,0,0.7,0,1-0.1l0.6,0.6c-0.1,0.2-0.3,0.4-0.4,0.7c-0.8,1.9-1.5,3-2.5,4.2
		c2,1.5,3.3,2.7,5,4.5L118.5,272.4z"/>
	<path d="M122.7,266.3c0-0.3,0.1-0.6,0.1-1.2v-2.6c0-0.6,0-0.7,0-1.1c0.3,0,0.8,0.1,1.2,0.1h7.8c0.6,0,0.8,0,1.1-0.1l0.6,0.6
		c-0.1,0.2-0.2,0.4-0.2,0.8c-0.5,3.4-1.2,5.3-2.8,7c-1.1,1.2-2.6,2.1-4.3,2.7c-0.2-0.5-0.3-0.6-0.7-1c2.4-0.8,4-2,5.1-3.7
		c0.8-1.3,1.3-2.8,1.6-5.4h-8v2.6c0,1,0,1,0,1.2h-1.5V266.3z"/>
	<path d="M136,265.8c0.4,0.1,0.8,0.1,1.9,0.1h8.7c1.1,0,1.4,0,1.8-0.1v1.2c-0.5,0-0.8-0.1-1.8-0.1h-8.7c-1.1,0-1.4,0-1.9,0.1V265.8z
		"/>
	<path d="M153.5,272.7c0.1-0.3,0.1-0.7,0.1-1.6v-9.3c0-0.9,0-1.2-0.1-1.5h1.3c-0.1,0.3-0.1,0.6-0.1,1.6v2.8c2.1,0.8,4.2,1.7,6.7,3.2
		l-0.6,1.1c-1.1-0.8-3.5-2.1-5.6-3c-0.2-0.1-0.3-0.2-0.5-0.3l0,0c0,0.3,0.1,0.5,0.1,0.9v4.5c0,0.9,0,1.2,0.1,1.6L153.5,272.7
		L153.5,272.7z M159.3,260.9c0.7,0.8,1.1,1.4,1.5,2.3l-0.8,0.5c-0.4-0.8-1.1-1.9-1.5-2.4L159.3,260.9z M161,260
		c0.7,0.8,1,1.4,1.5,2.3l-0.8,0.4c-0.3-0.7-0.9-1.7-1.5-2.4L161,260z"/>
	<path d="M167.5,260.6c-0.6,1.5-1.2,4.6-1.2,7c0,0.5,0,1.4,0.1,2.1c0,0.1,0,0.2,0,0.4c0,0.1,0,0.1,0,0.3h0.1
		c0.3-1.1,0.4-1.4,0.9-2.6c0.1-0.1,0.1-0.2,0.1-0.3l0.7,0.3c-0.7,1.5-1.3,3.4-1.3,4.3c0,0.1,0,0.1,0,0.3l-1.1,0.1
		c0-0.1,0-0.2-0.1-0.6c-0.3-1.4-0.4-2.9-0.4-4.5c0-2,0.2-3.6,0.8-6.2c0.1-0.7,0.1-0.8,0.2-0.9L167.5,260.6z M169,263.4
		c0.7,0.2,1.4,0.2,2.7,0.2c0.6,0,1,0,1.6,0c0-1.4,0-1.4,0-2.5c0-0.3,0-0.5,0-0.6h1.1c-0.1,0.4-0.1,1.1-0.1,2.4c0,0.2,0,0.4,0,0.7
		c1.2-0.1,2-0.3,2.6-0.6v1c0,0,0,0-1,0.2c-0.4,0.1-0.8,0.1-1.6,0.2c0,1.5,0,2.2,0.2,4.2c1.1,0.5,1.5,0.7,2.5,1.5
		c0.2,0.1,0.2,0.2,0.4,0.3l-0.5,1c-0.5-0.5-1.1-0.9-2.1-1.6c-0.1,0-0.1,0-0.2-0.1c-0.1,0-0.1,0-0.1-0.1c0,0.2,0,0.3,0,0.4
		c0,0.4-0.1,0.8-0.2,1c-0.4,0.8-1.3,1.3-2.5,1.3c-1.7,0-2.8-0.8-2.8-2.1c0-1.2,1.2-2.1,2.8-2.1c0.6,0,1.3,0.1,1.7,0.3
		c0-0.3-0.1-1.7-0.2-3.9c-0.7,0-1.1,0-1.7,0c-0.6,0-1.2,0-1.7,0c-0.3,0-0.4,0-0.5,0s-0.2,0-0.3,0s-0.1,0-0.1,0s0,0-0.1,0L169,263.4z
		 M171.9,269.1c-1.2,0-1.9,0.5-1.9,1.2s0.7,1.2,1.7,1.2c0.7,0,1.2-0.2,1.5-0.5c0.2-0.2,0.3-0.6,0.3-1.2c0-0.1,0-0.4,0-0.4
		C172.9,269.1,172.5,269.1,171.9,269.1z"/>
	<path d="M190.3,262.1c1.1,1.2,1.7,2.8,1.7,4.4c0,3.6-2.9,6.6-6.6,6.6s-6.6-3-6.6-6.6c0-1.9,0.8-3.6,2.2-4.9
		c1.2-1.1,2.8-1.7,4.4-1.7C187.3,260,189,260.7,190.3,262.1z"/>
	<path d="M204.7,262.1c1.1,1.2,1.7,2.8,1.7,4.4c0,3.6-2.9,6.6-6.6,6.6s-6.6-3-6.6-6.6c0-1.9,0.8-3.6,2.2-4.9
		c1.2-1.1,2.8-1.7,4.4-1.7C201.7,260,203.4,260.7,204.7,262.1z"/>
	<path d="M219.1,262.1c1.1,1.2,1.7,2.8,1.7,4.4c0,3.6-2.9,6.6-6.6,6.6s-6.6-3-6.6-6.6c0-1.9,0.8-3.6,2.2-4.9
		c1.2-1.1,2.8-1.7,4.4-1.7C216.1,260,217.8,260.7,219.1,262.1z"/>
	<path d="M233.5,262.1c1.1,1.2,1.7,2.8,1.7,4.4c0,3.6-2.9,6.6-6.6,6.6s-6.6-3-6.6-6.6c0-1.9,0.8-3.6,2.2-4.9
		c1.2-1.1,2.8-1.7,4.4-1.7C230.5,260,232.2,260.7,233.5,262.1z"/>
	<path d="M247.9,262.1c1.1,1.2,1.7,2.8,1.7,4.4c0,3.6-2.9,6.6-6.6,6.6s-6.6-3-6.6-6.6c0-1.9,0.8-3.6,2.2-4.9
		c1.2-1.1,2.8-1.7,4.4-1.7C244.9,260,246.6,260.7,247.9,262.1z"/>
	<path d="M262.3,262.1c1.1,1.2,1.7,2.8,1.7,4.4c0,3.6-2.9,6.6-6.6,6.6s-6.6-3-6.6-6.6c0-1.9,0.8-3.6,2.2-4.9
		c1.2-1.1,2.8-1.7,4.4-1.7C259.3,260,261,260.7,262.3,262.1z"/>
	<path d="M270,262.3c0.3,0,0.4,0,0.5,0c0.2,0,0.4,0,0.9,0c0.8-0.1,0.9-0.1,2.8-0.2l2.4-0.1c1.8-0.1,2-0.1,2.5-0.1h0.9
		c1.3-0.1,1.6-0.1,1.8-0.2l0.1,1.1c-0.6,0-1.1,0.1-1.7,0.2c-1,0.3-2.1,0.8-2.9,1.5c-1.2,1-1.8,2.2-1.8,3.5s0.8,2.3,2.1,2.8
		c0.7,0.3,1.7,0.5,2.2,0.5h0.1l-0.2,1.2c-0.2,0-0.2,0-0.5-0.1c-1.5-0.3-2.4-0.6-3.2-1.2c-1.1-0.7-1.7-1.8-1.7-3.1
		c0-1.7,1-3.4,2.8-4.6c0.5-0.3,0.9-0.5,1.4-0.8c-0.9,0.2-1.7,0.2-3.3,0.3c-3,0.2-4.6,0.4-5.2,0.5L270,262.3z M280.1,264.5
		c0.7,0.8,1.1,1.4,1.5,2.3l-0.8,0.4c-0.4-0.8-1.1-1.9-1.5-2.4L280.1,264.5z M281.8,263.7c0.7,0.8,1.1,1.4,1.5,2.3l-0.8,0.4
		c-0.3-0.7-0.9-1.7-1.5-2.4L281.8,263.7z"/>
	<path d="M291.3,261c0-0.4,0-0.6-0.1-0.9h1.1c-0.1,0.5-0.1,0.7-0.1,1.9v0.2c2.8,0,4,0,4.5-0.1v1.1c-0.6-0.1-1.1-0.1-2.9-0.1
		c-0.2,0-0.4,0-1.6,0v3c0.3,0.6,0.4,1.1,0.4,1.8c0,1.6-0.7,2.9-2,3.9c-0.6,0.4-1.3,0.8-2.4,1.2c-0.3-0.5-0.3-0.6-0.7-0.9
		c1.2-0.4,1.8-0.7,2.4-1.1c1.1-0.8,1.6-1.8,1.7-3.2c-0.1,0.4-0.2,0.5-0.4,0.7c-0.5,0.5-1.1,0.8-1.9,0.8c-1.4,0-2.5-1-2.5-2.4
		s1.1-2.5,2.7-2.5c0.7,0,1.3,0.2,1.7,0.7c0-0.2,0-0.3,0-0.8c0-0.1,0-0.2,0-0.4c0-0.2,0-0.2,0-0.8c-3,0.1-6,0.2-7,0.4v-1.1
		c0.3,0,0.4,0,0.6,0c0.4,0,0.4,0,2.9-0.1c1.4-0.1,2.6-0.1,3.6-0.1L291.3,261z M290.7,265.6c-0.3-0.2-0.6-0.2-1-0.2
		c-0.9,0-1.7,0.7-1.7,1.6s0.6,1.5,1.5,1.5c1,0,1.8-0.7,1.8-1.8C291.3,266.1,291.1,265.8,290.7,265.6z"/>
	<path d="M302.8,270.9c0,1.2-1,2.2-2.2,2.2s-2.2-1-2.2-2.2s1-2.2,2.2-2.2S302.8,269.7,302.8,270.9z M299.2,270.9
		c0,0.8,0.6,1.4,1.4,1.4s1.4-0.6,1.4-1.4s-0.6-1.4-1.4-1.4C299.8,269.6,299.2,270.2,299.2,270.9z"/>
	<path d="M32,302.1c-0.7-0.7-1.8-1.5-3.1-2.1c-0.3-0.1-0.6-0.3-1-0.5c0,0.3,0,0.3,0,0.5c0,0.8-0.1,1.3-0.4,1.6
		c-0.4,0.6-1.4,0.9-2.5,0.9c-1,0-1.8-0.2-2.3-0.6s-0.8-1-0.8-1.6c0-1,0.8-1.8,2.1-2.1c0.4-0.1,0.9-0.1,1.6-0.1c0.5,0,0.7,0,1.3,0.1
		c0,0,0,0,0-0.2c0,0,0-0.1,0-0.2s0-0.4,0-0.9c0-0.2,0-0.5,0-0.9c-0.5,0-1.3,0-1.8,0c-0.9,0-1.6,0-2.5-0.1c-0.2,0-0.3,0-0.4,0h-0.1
		v-1c0.7,0.2,1.9,0.2,3.4,0.2c0.4,0,0.9,0,1.3,0V293c-0.4,0-0.7,0-1,0c-1.1,0-2.3,0-3.7-0.2c-0.1,0-0.2,0-0.3,0c0,0-0.1,0-0.2,0v-1
		c0.6,0.2,2.2,0.3,3.8,0.3c0.3,0,0.8,0,1.3,0c0-1.8,0-1.8-0.1-2.2h1.2c-0.1,0.3-0.1,1-0.1,2.1c2.1-0.1,3.6-0.3,4.4-0.6l0.1,1
		c-0.3,0-0.3,0-1,0.1c-1.4,0.2-1.8,0.3-3.5,0.4c0,1.2,0,1.2,0,2c2-0.1,3.3-0.3,4.2-0.6l0.1,1c-0.2,0-0.3,0-0.9,0.1
		c-1,0.2-2.2,0.3-3.3,0.4c0,0.8,0,0.8,0.1,2.3c1.3,0.4,2.6,1,4.2,2.2c0.2,0.2,0.3,0.2,0.5,0.3L32,302.1z M26.9,299.3
		c-0.6-0.1-0.9-0.2-1.5-0.2c-1.5,0-2.5,0.5-2.5,1.3s0.8,1.2,2.1,1.2c0.8,0,1.4-0.2,1.7-0.5c0.2-0.2,0.3-0.6,0.3-1.3L26.9,299.3z"/>
	<path d="M35.5,292.8c0.5,0.1,1.1,0.1,1.9,0.1c0.3,0,0.5,0,0.9,0c0.3-1.8,0.3-2.1,0.3-2.8l1.2,0.1c-0.1,0.4-0.1,0.4-0.3,1.4
		c-0.1,0.5-0.1,0.7-0.2,1.1c1.2-0.1,2-0.3,2.7-0.5l0.1,1c-0.1,0-0.1,0-0.4,0.1c-0.8,0.2-1.8,0.3-2.5,0.4c-0.2,1.2-0.6,2.9-1,4.2
		c-0.5,1.6-0.9,2.7-1.7,4.6l-1.1-0.5c1.1-1.9,2.3-5.4,2.8-8.3c-0.3,0-0.5,0-1,0s-0.7,0-1.2,0h-0.1c0,0-0.1,0-0.3,0v-0.9H35.5z
		 M42.2,298.3c-0.3,0.4-0.3,0.4-0.5,0.6c-0.2,0.3-0.4,0.7-0.4,1.1c0,0.9,0.9,1.4,2.6,1.4c1.1,0,2.5-0.2,3.3-0.5l0.1,1.1
		c-0.2,0-0.2,0-0.7,0.1c-1,0.2-1.9,0.3-2.7,0.3c-2.5,0-3.7-0.8-3.7-2.2c0-0.7,0.2-1.1,1-2.2L42.2,298.3z M46.9,295.7
		c-0.7-0.1-1.1-0.1-1.8-0.1c-1.3,0-2.4,0.1-3.7,0.5l-0.1-1c1.7-0.4,2.7-0.5,4-0.5c0.3,0,0.5,0,1.6,0V295.7z"/>
	<path d="M49.7,299.3c1.2,1,2,1.8,3,3.2l-0.8,0.8c-1-1.4-1.8-2.3-3-3.3L49.7,299.3z"/>
	<path d="M65.4,293.4c-0.6,0-1.1,0-1.6,0.1v-1.1c0.6,0.1,1,0.1,1.6,0.1h4.2v-1.3c0-0.5,0-0.9-0.1-1.4h1.2c-0.1,0.5-0.1,0.9-0.1,1.3
		v1.3H75c0.8,0,1.2,0,1.7-0.1v1.1c-0.6-0.1-1.1-0.1-1.7-0.1h-4c1.7,3,3.7,5.1,6.2,6.5c-0.3,0.3-0.5,0.6-0.7,1
		c-1.2-0.8-2.1-1.6-3.1-2.6c-1.2-1.3-2.1-2.6-2.8-4.2c0,0.9,0.1,1.5,0.1,2v3.4h1.6c0.7,0,1.1,0,1.5-0.1v1c-0.5-0.1-0.8-0.1-1.5-0.1
		h-1.6v1.4c0,0.7,0,1.2,0.1,1.7h-1.2c0.1-0.5,0.1-1,0.1-1.7v-1.4h-1.4c-0.7,0-1.1,0-1.5,0.1v-1c0.4,0.1,0.7,0.1,1.5,0.1h1.5V296
		c0-0.6,0-1.1,0.1-1.9c-0.7,1.6-1.5,2.9-2.8,4.3c-0.9,1-1.8,1.8-2.9,2.5c-0.2-0.4-0.3-0.6-0.7-0.9c1.3-0.8,2.4-1.7,3.5-3
		s1.8-2.2,2.4-3.6L65.4,293.4L65.4,293.4z"/>
	<path d="M88.7,291.1c-0.2,0.3-0.3,0.4-0.5,0.9c-1,2.3-1.4,3.2-2.2,4.4c1.3,1.1,2.2,2,3.4,3.2l-0.8,0.9c-0.8-1-1.8-2-3.3-3.3
		c-1.6,2.2-3.4,3.7-6,5.2c-0.3-0.5-0.4-0.6-0.8-0.9c2.4-1.2,4.3-2.8,6-5c-1.4-1.1-2.8-2-4-2.7l0.8-0.8c1.5,0.9,2.2,1.4,3.9,2.6
		c0.7-1.1,1.2-2.2,1.8-3.5c0.4-0.9,0.5-1.2,0.5-1.6L88.7,291.1z"/>
	<path d="M92.8,295.9c0.4,0.1,0.8,0.1,1.9,0.1h8.7c1.1,0,1.4,0,1.8-0.1v1.2c-0.5,0-0.8-0.1-1.8-0.1h-8.7c-1.1,0-1.4,0-1.9,0.1V295.9
		z"/>
	<path d="M111.2,290.9c-0.1,0.4-0.1,0.4-0.1,1.3c-0.1,4.1-0.2,5.2-0.8,6.7c-0.5,1.4-1.2,2.4-2.6,3.7c-0.3-0.4-0.5-0.5-0.9-0.8
		c1.2-1,2-2.1,2.5-3.5c0.5-1.3,0.7-3.3,0.7-6.4c0-0.5,0-0.7-0.1-1.1L111.2,290.9z M114.9,290.7c-0.1,0.4-0.1,0.6-0.1,1.3l-0.1,9.1
		c1.2-0.5,2-0.9,2.8-1.7c0.8-0.9,1.4-1.8,1.8-3c0.3,0.4,0.4,0.5,0.8,0.9c-0.7,1.7-1.7,3-3,3.9c-0.7,0.5-1.3,0.8-2.1,1.1
		c-0.3,0.1-0.3,0.1-0.5,0.2s-0.2,0.1-0.3,0.2l-0.6-0.7c0.1-0.3,0.1-0.4,0.1-1l0.1-8.8c0-1,0-1-0.1-1.3L114.9,290.7z"/>
	<path d="M124.4,290.7c-0.2,0.6-0.4,1.4-0.6,2.4c-0.3,1.6-0.5,2.9-0.5,4.7c0,1.2,0,2.1,0.1,2.8c0.2-1,0.5-1.8,1-2.9l0.7,0.3
		c-0.7,1.5-1.2,3.3-1.2,4.1c0,0,0,0.1,0,0.2l-1.1,0.1c0-0.2,0-0.3-0.1-0.6c-0.3-1.6-0.4-2.7-0.4-4.2c0-2.1,0.2-3.7,0.7-5.9
		c0.2-0.7,0.2-0.9,0.2-1.2L124.4,290.7z M128.2,296.8c-0.8,0.8-1.1,1.5-1.1,2.2c0,1.1,0.9,1.7,2.9,1.7c1.4,0,2.6-0.2,3.4-0.5
		l0.1,1.2c-0.2,0-0.2,0-0.5,0.1c-1,0.2-2.1,0.3-3.1,0.3c-1.7,0-2.8-0.4-3.4-1.1c-0.3-0.4-0.5-0.8-0.5-1.4c0-0.9,0.4-1.7,1.3-2.8
		L128.2,296.8z M126.3,292.3c0.6,0.2,1.4,0.2,2.5,0.2c1.7,0,3-0.1,4-0.4l0.1,1.1c0,0-0.4,0-1,0.1c-0.9,0.1-2.1,0.2-3.2,0.2
		c-0.8,0-1.4,0-2.4-0.1L126.3,292.3z"/>
	<path d="M136,293.6c0.4,0,0.4,0,3.1-0.6c1.7-0.4,3.1-0.6,4.3-0.6c2.7,0,4.5,1.5,4.5,3.7c0,1.9-1.1,3.5-3.1,4.4
		c-1.4,0.7-2.6,0.9-5,1.1c-0.1-0.5-0.2-0.7-0.5-1.1c1.7-0.1,3-0.3,4.2-0.7c2.1-0.8,3.2-2.1,3.2-3.8s-1.2-2.7-3.3-2.7
		c-1.6,0-3.5,0.3-6.1,1.1c-0.6,0.2-0.8,0.2-1.1,0.4L136,293.6z"/>
	<path d="M152.4,291.6c-0.1,0.5-0.1,1-0.1,1.8c0,1.7,0.2,3.7,0.4,4.7c0.3,1.5,0.9,2.6,1.5,2.6c0.3,0,0.5-0.3,0.8-0.8
		c0.3-0.8,0.6-1.5,0.8-2.6c0.3,0.4,0.5,0.5,0.9,0.9c-0.7,2.6-1.4,3.6-2.5,3.6c-0.8,0-1.6-0.8-2.1-2.3c-0.5-1.4-0.7-3.3-0.8-7
		c0-0.6,0-0.6,0-0.9L152.4,291.6z M159.6,292.4c1,1.2,1.6,2.1,2.1,3.4c0.6,1.3,0.9,2.3,1.1,4l-1.1,0.4c-0.3-2.8-1.4-5.4-3.1-7.4
		L159.6,292.4z"/>
	<path d="M164.9,292.4c0.3,0,0.4,0,0.5,0c0.2,0,0.4,0,0.9,0c1.8-0.1,6.6-0.4,8.5-0.5c0.8,0,1.5-0.1,1.8-0.2l0.1,1.1
		c-0.6,0-1.1,0.1-1.7,0.2c-1,0.3-2.1,0.8-2.9,1.5c-1.2,1-1.8,2.2-1.8,3.5s0.8,2.3,2.1,2.8c0.7,0.3,1.7,0.5,2.2,0.5c0,0,0.1,0,0.2,0
		l-0.2,1.2c-0.2,0-0.2,0-0.5-0.1c-1.5-0.3-2.4-0.6-3.2-1.2c-1.1-0.7-1.7-1.8-1.7-3.1c0-1.7,1-3.4,2.8-4.6c0.5-0.3,0.9-0.5,1.4-0.8
		c-0.9,0.2-1.6,0.2-3.3,0.3c-3.1,0.2-4.4,0.3-5.2,0.5L164.9,292.4z"/>
	<path d="M178.4,300.4c0.6-1,0.8-1.5,1.2-2.5c0.4-1.2,0.6-2,0.8-3.5l1,0.3c-0.3,1.6-0.5,2.4-0.9,3.6c-0.3,1.1-0.5,1.6-1.1,2.6
		L178.4,300.4z M183.7,301.4c0,0.5,0.3,0.6,2.1,0.6c0.9,0,1.6-0.1,1.9-0.2c0.3-0.1,0.5-0.3,0.6-0.9s0.2-1.3,0.2-2.5
		c0.4,0.2,0.6,0.3,1,0.4c-0.1,1.9-0.3,2.7-0.6,3.2c-0.4,0.7-0.9,0.8-3.2,0.8c-2.6,0-3-0.2-3-1.3v-7.2c0-0.5,0-0.8-0.1-1.4h1.2
		c-0.1,0.5-0.1,0.9-0.1,1.4L183.7,301.4L183.7,301.4z M187.6,293c-1.5-1-2.7-1.6-4.9-2.4l0.6-0.8c2.1,0.8,3.2,1.3,5,2.4L187.6,293z
		 M191.5,300.6c-0.4-1.4-0.6-2.1-1.1-3.1c-0.4-1-0.7-1.6-1.4-2.7l0.9-0.5c1.2,2,1.8,3.2,2.6,5.7L191.5,300.6z"/>
	<path d="M199.3,291.1c0-0.6,0-1-0.1-1.4h1.2c-0.1,0.3-0.1,0.7-0.1,1.4v4.4h3.9c0.5,0,0.8,0,1.2-0.1c0,0.4-0.1,0.7-0.1,1.2v5.3
		c0,0.6,0,1,0.1,1.5h-1v-0.8h-9.1c-0.6,0-1,0-1.4,0.1v-1.1c0.4,0.1,0.7,0.1,1.4,0.1h9.1v-2.3h-8.5c-0.6,0-1,0-1.3,0.1v-1.1
		c0.4,0.1,0.7,0.1,1.4,0.1h8.5v-2.1h-9c-0.6,0-0.9,0-1.4,0.1v-1.1c0.4,0.1,0.8,0.1,1.4,0.1h4v-4.4H199.3z M195,290.7
		c1.2,1.6,1.5,2,2.3,3.6l-0.9,0.5c-0.8-1.8-1.1-2.2-2.3-3.7L195,290.7z M205.4,291c-0.9,1.9-1.4,2.7-2.5,4l-0.8-0.5
		c1.2-1.3,1.6-2.1,2.4-4L205.4,291z"/>
	<path d="M208.3,292.8c0.5,0.1,1.1,0.1,1.9,0.1c0.3,0,0.5,0,0.9,0c0.3-1.8,0.3-2.1,0.3-2.8l1.2,0.1c-0.1,0.4-0.1,0.4-0.3,1.4
		c-0.1,0.5-0.1,0.7-0.2,1.1c1.2-0.1,2-0.3,2.7-0.5l0.1,1c-0.1,0-0.1,0-0.4,0.1c-0.8,0.2-1.8,0.3-2.5,0.4c-0.2,1.2-0.6,2.9-1,4.2
		c-0.5,1.6-0.9,2.7-1.7,4.6l-1.1-0.5c1.1-1.9,2.3-5.4,2.8-8.3c-0.3,0-0.5,0-1,0s-0.7,0-1.2,0h-0.1c0,0-0.1,0-0.3,0L208.3,292.8
		L208.3,292.8z M215,298.3c-0.3,0.4-0.3,0.4-0.5,0.6c-0.2,0.3-0.4,0.7-0.4,1.1c0,0.9,0.9,1.4,2.6,1.4c1.1,0,2.5-0.2,3.3-0.5l0.1,1.1
		c-0.2,0-0.2,0-0.7,0.1c-1,0.2-1.9,0.3-2.7,0.3c-2.5,0-3.7-0.8-3.7-2.2c0-0.7,0.2-1.1,1-2.2L215,298.3z M219.7,295.7
		c-0.7-0.1-1.1-0.1-1.8-0.1c-1.3,0-2.4,0.1-3.8,0.5l-0.1-1c1.7-0.4,2.7-0.5,4-0.5c0.3,0,0.5,0,1.6,0L219.7,295.7z"/>
	<path d="M226.2,290.2c-0.1,0.3-0.2,0.7-0.3,1.5c-0.2,1.5-0.4,3.1-0.5,3.9h0.1c0-0.1,0-0.1,0.1-0.4c0.2-0.8,0.5-1.6,0.9-2.2
		c0.8-1.3,1.8-1.9,3-1.9c1,0,1.8,0.5,2.4,1.3c0.6,0.9,0.9,2,0.9,3.6c0,2.7-1.2,4.8-3.5,5.9c-0.7,0.4-1.6,0.7-2.7,0.9
		c-0.2-0.4-0.3-0.6-0.6-1c1.4-0.2,2.2-0.5,3-0.9c1.8-1,2.6-2.6,2.6-5s-0.8-3.8-2.3-3.8c-1.1,0-2.1,0.9-3,2.6
		c-0.5,1.1-0.8,2.2-0.8,3.3c0,0.1,0,0.1,0,0.4h-1.1c0-0.1,0-0.1,0-0.2v-0.3v-1.6c0-0.1,0-0.3,0-0.3c0-1.5,0.1-2.9,0.5-5.5
		c0-0.2,0-0.3,0-0.5L226.2,290.2z"/>
	<path d="M236.6,294c0.5,0,1.1-0.1,3.3-0.4c0.3-1.1,0.5-2.5,0.5-3.2c0,0,0-0.1,0-0.2l1.2,0.1c-0.1,0.3-0.2,0.6-0.3,1.4
		c-0.1,0.4-0.2,1.1-0.3,1.7c0.3,0,0.5,0,0.9,0c1.1,0,1.7,0.2,2.2,0.6c0.5,0.5,0.7,1.2,0.7,2.4c0,2.3-0.4,4.3-1,5.2
		c-0.4,0.5-0.8,0.7-1.5,0.7c-0.6,0-1.3-0.2-2.3-0.6c0-0.2,0-0.3,0-0.5s0-0.3,0-0.6c0.9,0.4,1.7,0.7,2.2,0.7c0.4,0,0.7-0.2,0.9-0.7
		c0.4-1,0.6-2.5,0.6-4.2c0-1.6-0.5-2.1-1.8-2.1c-0.3,0-0.5,0-1.1,0.1c-0.6,2.8-1.7,5.4-3.2,8.2l-1-0.6c1.2-1.6,2.5-4.6,3.2-7.5
		c-1.9,0.3-2.3,0.3-3,0.5L236.6,294z M246.5,292.6c1.5,1.6,2.5,3.3,3.1,5.3l-1,0.5c-0.5-1.9-1.7-4-3.1-5.4L246.5,292.6z
		 M247.1,290.1c0.7,0.8,1.1,1.4,1.5,2.3l-0.8,0.5c-0.4-0.8-1.1-1.9-1.5-2.4L247.1,290.1z M248.8,289.3c0.7,0.8,1,1.4,1.5,2.3
		l-0.8,0.4c-0.3-0.7-0.9-1.7-1.5-2.4L248.8,289.3z"/>
	<path d="M256,290.3c-0.1,0.3-0.1,0.3-0.2,1c-0.1,0.5-0.2,0.9-0.4,1.6c1-0.1,2-0.3,2.7-0.5v1c-0.2,0-0.2,0-0.5,0.1
		c-0.6,0.1-1.5,0.3-2.5,0.3c-0.5,1.6-1,3-1.7,4.4c-0.4,0.7-0.5,1-1.1,2c-0.1,0.2-0.2,0.4-0.3,0.5l-1-0.6c0.5-0.6,0.9-1.3,1.4-2.3
		c0.7-1.4,1.1-2.4,1.6-3.9c-0.4,0-0.9,0-1.1,0c-0.3,0-0.8,0-1,0s-0.3,0-0.3,0s-0.1,0-0.2,0v-1c0.5,0.1,1,0.1,1.8,0.1
		c0.3,0,0.8,0,1.1,0c0.2-0.9,0.5-2.1,0.5-2.8L256,290.3z M263.1,301.9c-0.6-0.7-1.5-1.5-2.6-2c0,0.2,0,0.3,0,0.5
		c0,1.5-1,2.4-2.9,2.4c-1.8,0-2.9-0.8-2.9-2.2c0-0.8,0.6-1.6,1.4-1.9c0.5-0.2,1.1-0.3,1.8-0.3c0.6,0,0.9,0.1,1.5,0.2
		c-0.1-1-0.1-1.7-0.1-2.1c0-0.5,0-0.9,0.1-1.5l1,0.1c-0.2,0.6-0.2,0.9-0.2,1.4c0,0.7,0.1,1.7,0.2,2.3c1.2,0.5,2.1,1.1,2.9,1.8
		c0.2,0.2,0.2,0.2,0.3,0.2L263.1,301.9z M257.9,299.2c-1.3,0-2.1,0.5-2.1,1.3s0.7,1.2,1.9,1.2c1.3,0,1.9-0.5,1.9-1.6
		c0-0.2,0-0.6,0-0.6C258.9,299.3,258.5,299.2,257.9,299.2z M263.1,295.1c-1.3-0.9-2.4-1.5-4-2l0.6-0.8c1.7,0.7,2.7,1.2,4,2
		L263.1,295.1z"/>
	<path d="M267.6,291.6c-0.1,0.5-0.1,1-0.1,1.8c0,1.7,0.2,3.7,0.4,4.7c0.3,1.5,0.9,2.6,1.5,2.6c0.3,0,0.5-0.3,0.8-0.8
		c0.3-0.8,0.6-1.5,0.8-2.6c0.3,0.4,0.5,0.5,0.9,0.9c-0.7,2.6-1.4,3.6-2.5,3.6c-0.8,0-1.6-0.8-2.1-2.3c-0.5-1.4-0.7-3.3-0.8-7
		c0-0.6,0-0.6,0-0.9L267.6,291.6z M274.8,292.4c1,1.2,1.6,2.1,2.1,3.4c0.6,1.3,0.9,2.3,1.1,4l-1.1,0.4c-0.3-2.8-1.4-5.4-3.1-7.4
		L274.8,292.4z"/>
	<path d="M285.5,291.2c0-0.5,0-0.9-0.1-1.3h1.2c-0.1,0.3-0.1,0.7-0.1,1.3v1.1h4.6c0.8,0,1.3,0,1.7-0.1v1.1c-0.4-0.1-0.8-0.1-1.7-0.1
		h-5.7c-0.1,1-0.1,1.3-0.2,2.1h4.1c0.8,0,1.2,0,1.5-0.1c0,0.3,0,0.5-0.1,1c-0.1,1.8-0.3,4.1-0.6,5.1c-0.3,1.3-0.7,1.6-1.9,1.6
		c-0.5,0-1.3,0-2.1-0.1c0-0.5-0.1-0.7-0.2-1.1c0.9,0.2,1.6,0.2,2.3,0.2c0.6,0,0.8-0.2,1-1.3c0.3-1.3,0.4-2.5,0.5-4.5H285
		c-0.3,1.7-0.7,2.8-1.4,3.8c-0.5,0.7-1.1,1.4-1.9,2.1c-0.5,0.4-0.8,0.6-1.6,1.1c-0.2-0.4-0.4-0.5-0.7-0.8c1.4-0.7,2.2-1.3,3-2.4
		c1.2-1.6,1.8-3.6,1.9-6.8h-3.1c-0.8,0-1.3,0-1.7,0.1v-1.1c0.5,0.1,0.9,0.1,1.7,0.1h4.3L285.5,291.2L285.5,291.2z"/>
	<path d="M297.1,290.7c-0.6,1.5-1.2,4.6-1.2,7c0,0.5,0,1.4,0.1,2.1c0,0.1,0,0.2,0,0.4c0,0.1,0,0.1,0,0.3h0.1
		c0.3-1.1,0.4-1.4,0.9-2.6c0.1-0.1,0.1-0.2,0.1-0.3l0.7,0.3c-0.7,1.5-1.3,3.4-1.3,4.3c0,0.1,0,0.1,0,0.3l-1.1,0.1
		c0-0.1,0-0.2-0.1-0.6c-0.3-1.4-0.4-2.9-0.4-4.5c0-2,0.2-3.6,0.8-6.2c0.1-0.7,0.2-0.8,0.2-0.9L297.1,290.7z M298.6,293.5
		c0.7,0.2,1.4,0.2,2.7,0.2c0.6,0,1,0,1.6,0c0-1.4,0-1.4,0-2.5c0-0.3,0-0.5,0-0.6h1.1c-0.1,0.4-0.1,1.1-0.1,2.4c0,0.2,0,0.4,0,0.7
		c1.2-0.1,2-0.3,2.6-0.6v1c0,0,0,0-1,0.2c-0.4,0.1-0.8,0.2-1.6,0.2c0,1.5,0,2.2,0.2,4.2c1.1,0.5,1.5,0.7,2.5,1.5
		c0.2,0.1,0.2,0.2,0.4,0.3l-0.5,1c-0.5-0.5-1.1-0.9-2.1-1.6c-0.1,0-0.1,0-0.2-0.1c-0.1,0-0.1,0-0.1-0.1c0,0.2,0,0.3,0,0.4
		c0,0.4-0.1,0.8-0.2,1c-0.4,0.8-1.3,1.3-2.5,1.3c-1.7,0-2.8-0.8-2.8-2.1c0-1.2,1.2-2.1,2.8-2.1c0.6,0,1.3,0.1,1.7,0.3
		c0-0.3-0.1-1.7-0.2-3.9c-0.7,0-1.1,0-1.7,0s-1.2,0-1.7,0c-0.3,0-0.4,0-0.5,0s-0.2,0-0.3,0c-0.1,0-0.1,0-0.2,0c0,0,0,0-0.1,0
		L298.6,293.5z M301.5,299.1c-1.2,0-1.9,0.5-1.9,1.2s0.7,1.2,1.7,1.2c0.7,0,1.2-0.2,1.5-0.5c0.2-0.2,0.3-0.6,0.3-1.2
		c0-0.1,0-0.5,0-0.5C302.5,299.2,302.1,299.1,301.5,299.1z"/>
	<path d="M310.2,293.4c-0.6,0-1.1,0-1.6,0.1v-1.1c0.6,0.1,1,0.1,1.6,0.1h4.2v-1.3c0-0.5,0-0.9-0.1-1.4h1.2c-0.1,0.5-0.1,0.9-0.1,1.3
		v1.3h4.4c0.8,0,1.2,0,1.7-0.1v1.1c-0.6-0.1-1.1-0.1-1.7-0.1h-4c1.7,3,3.7,5.1,6.2,6.5c-0.3,0.3-0.5,0.6-0.7,1
		c-1.2-0.8-2.1-1.6-3.1-2.6c-1.2-1.3-2.1-2.6-2.8-4.2c0,0.9,0.1,1.5,0.1,2v3.4h1.6c0.7,0,1.1,0,1.5-0.1v1c-0.4-0.1-0.8-0.1-1.5-0.1
		h-1.6v1.4c0,0.7,0,1.2,0.1,1.7h-1.2c0.1-0.5,0.1-1,0.1-1.7v-1.4h-1.4c-0.7,0-1.1,0-1.5,0.1v-1c0.4,0.1,0.7,0.1,1.5,0.1h1.5V296
		c0-0.6,0-1.1,0.1-1.9c-0.7,1.6-1.5,2.9-2.8,4.3c-0.9,1-1.8,1.8-2.8,2.5c-0.2-0.4-0.3-0.6-0.7-0.9c1.3-0.8,2.4-1.7,3.5-3
		s1.8-2.2,2.4-3.6L310.2,293.4L310.2,293.4z"/>
	<path d="M31.1,321.1c-0.2,0.3-0.3,0.4-0.5,0.9c-1,2.3-1.4,3.2-2.2,4.4c1.3,1.1,2.2,2,3.4,3.2l-0.8,0.9c-0.8-1-1.8-2-3.3-3.3
		c-1.6,2.2-3.4,3.7-6,5.2c-0.3-0.5-0.4-0.6-0.8-0.9c2.4-1.2,4.3-2.8,6-5c-1.4-1.1-2.8-2-4-2.7l0.8-0.8c1.5,0.9,2.2,1.4,3.9,2.6
		c0.7-1.1,1.2-2.2,1.8-3.5c0.4-0.9,0.5-1.2,0.5-1.6L31.1,321.1z"/>
	<path d="M35.2,325.9C35.6,326,36,326,37,326h8.7c1.1,0,1.4,0,1.8-0.1v1.2c-0.5,0-0.8-0.1-1.8-0.1H37c-1.1,0-1.4,0-1.9,0.1v-1.2
		H35.2z"/>
	<path d="M53.6,320.9c-0.1,0.4-0.1,0.4-0.1,1.3c-0.1,4.1-0.2,5.2-0.8,6.7c-0.5,1.4-1.2,2.4-2.6,3.7c-0.3-0.4-0.5-0.5-0.9-0.8
		c1.2-1,2-2.1,2.5-3.4s0.7-3.3,0.7-6.4c0-0.5,0-0.7-0.1-1.1L53.6,320.9z M57.3,320.8c-0.1,0.4-0.1,0.6-0.1,1.3l-0.1,9.1
		c1.2-0.5,2-0.9,2.8-1.7c0.8-0.9,1.4-1.8,1.8-3c0.3,0.4,0.4,0.5,0.8,0.9c-0.7,1.7-1.7,3-3,3.9c-0.7,0.5-1.3,0.8-2.1,1.1
		c-0.3,0.1-0.3,0.1-0.5,0.2s-0.2,0.1-0.3,0.2l-0.6-0.7c0.1-0.3,0.1-0.4,0.1-1l0.1-8.8c0-1,0-1-0.1-1.3L57.3,320.8z"/>
	<path d="M68.1,322.2c0.5-1,0.7-1.6,0.7-2.1l1.2,0.2c-0.1,0.2-0.1,0.2-0.4,0.8c-0.2,0.5-0.4,0.9-0.5,1c0.2,0,0.2,0,0.3,0
		c2.4-0.1,3.9-0.3,4.7-0.6l0.1,1c-0.2,0-0.3,0-0.6,0.1c-1.6,0.2-3.1,0.3-4.9,0.4c-0.5,0.9-0.8,1.5-1.4,2.1c-0.1,0.2-0.4,0.5-0.5,0.6
		s-0.2,0.1-0.2,0.2l0,0l0,0l0,0c0.5-0.4,0.5-0.4,0.7-0.5c0.7-0.5,1.5-0.7,2.3-0.7c1.1,0,1.8,0.6,2,1.7c1.1-0.4,1.9-0.8,2.6-1
		c0.7-0.3,0.8-0.3,1-0.4l0.5,1c-0.8,0.1-2.1,0.6-4,1.3c0,0.4,0,0.5,0,0.9c0,0.2,0,0.5,0,0.8s0,0.5,0,0.7s0,0.3,0,0.5h-1
		c0-0.3,0.1-1.2,0.1-2.2c0-0.2,0-0.3,0-0.5c-2,1-2.8,1.7-2.8,2.6c0,1,0.9,1.4,3,1.4c1.5,0,3.1-0.2,4-0.6l0.1,1.2
		c-0.2,0-0.3,0-0.6,0.1c-1.2,0.2-2.5,0.3-3.6,0.3c-2.7,0-4-0.8-4-2.3c0-0.8,0.5-1.6,1.5-2.4c0.5-0.4,1.2-0.8,2.2-1.2
		c-0.1-0.8-0.5-1.2-1.2-1.2c-0.9,0-2.1,0.6-3.3,1.6c-0.6,0.5-0.9,0.8-1.2,1.2l-0.8-0.8c1-0.8,2.3-2.4,3.4-4.3c0-0.1,0-0.1,0.1-0.2
		c-0.1,0-0.2,0-0.3,0c-0.2,0-1.6,0-2.2,0c-0.1,0-0.2,0-0.2,0c-0.1,0-0.2,0-0.3,0v-1c0.5,0.1,1.7,0.2,3.2,0.2L68.1,322.2L68.1,322.2z
		"/>
	<path d="M79.1,321.3c-0.6,0-0.9,0-1.3,0.1v-1c0.4,0.1,0.7,0.1,1.3,0.1h2.4c0.6,0,0.9,0,1.3-0.1v1c-0.4,0-0.7-0.1-1.2-0.1h-1
		c-0.1,1.4-0.4,2.4-0.9,3.7h1.6c0.5,0,0.6,0,0.9,0c0,0.4,0,0.5,0,1.2v4.1c0,0.7,0,0.9,0,1.2c-0.3,0-0.5,0-0.9,0h-1.6v1.5h-1
		c0.1-0.4,0.1-0.8,0.1-1.4v-4.1c0-0.2,0-0.2,0-0.4c0-0.1,0-0.2,0-0.3c-0.4,0.8-0.6,1.1-1,1.7c-0.2-0.3-0.3-0.6-0.6-0.8
		c0.9-1.2,1.5-2.3,2-3.9c0.2-0.9,0.3-1.4,0.4-2.4h-0.5V321.3z M79.7,330.6h1.7v-4.8h-1.7V330.6z M84.3,326.3c-0.2,3.4-0.7,5.4-1.9,7
		c-0.2-0.3-0.5-0.5-0.8-0.6c0.7-0.9,1-1.5,1.3-2.7c0.4-1.5,0.5-3.5,0.5-6.8c0-0.8,0-1.2-0.1-1.6c0.4,0,0.9,0.1,1.5,0.1h1.9v-0.6
		c0-0.7,0-1.1-0.1-1.5h1.1c-0.1,0.3-0.1,0.7-0.1,1.5v0.6h2c0.7,0,1,0,1.3-0.1l0.5,0.5c-0.1,0.1-0.1,0.1-0.2,0.3
		c-0.5,1-0.9,1.7-1.4,2.4c-0.3-0.2-0.5-0.3-0.8-0.4c0.6-0.7,0.9-1.2,1.2-1.9h-2.6v3h1.2c0.7,0,1,0,1.3-0.1l0.5,0.5
		c-0.1,0.2-0.2,0.4-0.4,0.9c-0.4,1.1-1.2,2.2-2,3.2c1,1,2.3,1.7,3.6,2.2c-0.3,0.3-0.4,0.5-0.6,0.9c-1.6-0.8-2.5-1.4-3.7-2.5
		c-1.2,1.2-2.1,1.8-3.6,2.6c-0.2-0.3-0.3-0.6-0.6-0.8c1.5-0.7,2.6-1.4,3.6-2.4c-0.7-0.8-1.2-1.5-1.6-2.4c-0.2-0.4-0.3-0.6-0.5-1.4
		L84.3,326.3L84.3,326.3z M86.7,325.5v-3h-2.4v1c0,0.5,0,1.1,0,1.9h2.4V325.5z M85.8,326.3c0.5,1.3,1,2.2,1.8,3.2
		c0.9-1,1.3-1.8,1.9-3.2H85.8z"/>
	<path d="M95.6,328c-0.3,0-0.5,0-1,0c0-0.3,0-0.5,0-0.8V326h-0.9c-0.6,0-1,0-1.5,0.1v-0.9c0.4,0.1,0.8,0.1,1.5,0.1h0.9
		c0-0.3,0-0.6-0.1-0.9h1c0,0.2,0,0.5,0,0.8v0.1h2.9v-0.1c0-0.3,0-0.6-0.1-0.9h1c-0.1,0.3-0.1,0.5-0.1,0.9v0.1h3.1v-0.1
		c0-0.3,0-0.6,0-0.8h1c0,0.3-0.1,0.6-0.1,0.8v0.1h0.8c0.7,0,1,0,1.5-0.1v0.9c-0.4-0.1-0.9-0.1-1.5-0.1h-0.8v1.2c0,0.4,0,0.6,0,0.8
		c-0.5,0-0.7,0-1,0h-3.1v1h4.7c0.9,0,1.2,0,1.6-0.1v0.9c-0.5-0.1-1-0.1-1.6-0.1h-4.1c0.8,0.6,1.4,1,2.2,1.4c1.2,0.6,2.2,0.9,3.8,1.2
		c-0.2,0.3-0.4,0.6-0.6,0.9c-1.4-0.4-2.3-0.8-3.4-1.3c-0.9-0.5-1.6-0.9-2.6-1.8c0,0.7,0.1,1.1,0.1,1.5v0.6c0,0.7,0,1.1,0.1,1.4h-1.1
		c0.1-0.4,0.1-0.7,0.1-1.4v-0.7c0-0.4,0-0.8,0.1-1.5c-1,0.9-1.6,1.3-2.6,1.8c-1.1,0.6-1.9,0.9-3.1,1.2c-0.2-0.4-0.3-0.5-0.6-0.9
		c2.4-0.6,4.4-1.5,5.7-2.6H94c-0.7,0-1.1,0-1.6,0.1v-0.9c0.4,0.1,0.8,0.1,1.6,0.1h4.4v-1h-2.8V328z M98.3,320.7c0-0.5,0-0.7-0.1-1.1
		h1.1c-0.1,0.3-0.1,0.6-0.1,1.1v0.2h4.8c0.6,0,1.1,0,1.5-0.1v1c-0.5-0.1-0.9-0.1-1.5-0.1h-5.7c-0.5,0.6-0.9,1-1.4,1.4
		c2.7-0.1,3.4-0.1,5.1-0.2c-0.4-0.3-0.7-0.4-1.3-0.7l0.7-0.4c1.3,0.7,2.1,1.2,3.4,2.1l-0.6,0.6c-0.6-0.5-0.9-0.7-1.3-1
		c-3.4,0.3-5.2,0.3-7.6,0.4c-1.3,0-1.4,0-2.1,0.1l-0.1-0.9c0.4,0,0.6,0,1,0c0.3,0,0.8,0,1.6,0c0.6-0.5,1-0.9,1.4-1.4h-3.3
		c-0.6,0-1.1,0-1.5,0.1v-1c0.4,0.1,0.9,0.1,1.5,0.1h4.4L98.3,320.7L98.3,320.7z M98.5,326h-2.9v1.2h2.9V326z M102.5,327.2V326h-3.1
		v1.2H102.5z"/>
	<path d="M110.7,320.6c-0.1,0.5-0.1,1.3-0.2,3.2c-0.1,1.8-0.1,3.8-0.1,4.5c0,0.2,0,0.6,0,0.9c0.1,0.9,0.3,1.4,0.7,1.8
		c0.4,0.4,1.1,0.6,1.9,0.6c1.8,0,3.2-0.9,4-2.6c0.3-0.7,0.5-1.3,0.7-2.4c0.4,0.4,0.6,0.5,1.1,0.7c-0.6,1.8-1,2.6-1.7,3.4
		c-1.1,1.3-2.5,1.9-4.2,1.9c-1.3,0-2.2-0.4-2.8-1c-0.6-0.7-0.8-1.5-0.8-3.1c0-1,0-1.4,0.1-6.1c0-0.5,0-0.7,0-1s0-0.5-0.1-0.8H110.7z
		"/>
	<path d="M121.7,322.4c0.3,0,0.4,0,0.5,0c0.2,0,0.4,0,0.9,0c1.8-0.1,6.6-0.4,8.5-0.5c0.8,0,1.5-0.1,1.8-0.2l0.1,1.1
		c-0.6,0-1.1,0.1-1.7,0.2c-1,0.3-2.1,0.8-2.9,1.5c-1.2,1-1.8,2.2-1.8,3.5s0.8,2.3,2.1,2.8c0.7,0.3,1.7,0.5,2.2,0.5h0.1l-0.2,1.2
		c-0.2,0-0.2,0-0.5-0.1c-1.5-0.3-2.4-0.6-3.2-1.2c-1.1-0.7-1.7-1.8-1.7-3.1c0-1.7,1-3.4,2.8-4.6c0.5-0.3,0.9-0.5,1.4-0.8
		c-0.9,0.2-1.6,0.2-3.3,0.3c-3.1,0.2-4.4,0.3-5.2,0.5L121.7,322.4z"/>
	<path d="M145,321c-0.2,0.1-0.3,0.2-1.8,1.7c-0.8,0.7-1.6,1.4-3.4,2.8c-0.6,0.4-0.7,0.5-0.7,0.8s0.1,0.4,1.3,1.3
		c2.2,1.7,2.6,2,4.8,4.1c0.2,0.2,0.3,0.2,0.4,0.4l-0.9,0.9c-0.4-0.5-0.9-1.1-1.9-2.1c-1-0.9-1.6-1.4-3.8-3.1c-0.8-0.7-1.1-1-1.1-1.5
		c0-0.4,0.2-0.7,0.4-1c0.2-0.2,0.2-0.2,1.3-1c2-1.5,3.9-3.3,4.4-4.1L145,321z"/>
	<path d="M150.6,322.9c0.5,0.1,1.1,0.1,1.9,0.1c0.3,0,0.5,0,0.9,0c0.3-1.6,0.3-2.1,0.3-2.7v-0.1l1.2,0.1c-0.1,0.2-0.1,0.3-0.1,0.5
		c0,0.1-0.1,0.4-0.1,0.9c-0.1,0.5-0.1,0.7-0.2,1.1c1-0.1,2.1-0.3,2.7-0.5l0.1,1h-0.2l-0.3,0.1c-1,0.2-1.8,0.3-2.5,0.4
		c-0.6,3.2-1.5,6.1-2.8,8.8l-1.1-0.5c1.1-1.8,2.2-5.2,2.8-8.3c-0.3,0-0.5,0-1,0s-0.7,0-1.2,0h-0.1c0,0-0.1,0-0.3,0L150.6,322.9
		L150.6,322.9z M157.3,328.3c-0.3,0.4-0.3,0.4-0.5,0.6c-0.2,0.3-0.4,0.7-0.4,1.1c0,0.9,0.9,1.4,2.6,1.4c1.1,0,2.5-0.2,3.3-0.5
		l0.1,1.1h-0.2l-0.5,0.1c-1,0.2-1.9,0.2-2.7,0.2c-2.5,0-3.7-0.8-3.7-2.2c0-0.7,0.2-1.1,1-2.2L157.3,328.3z M161.9,325.7
		c-0.7-0.1-1.1-0.1-1.8-0.1c-1.3,0-2.4,0.1-3.8,0.5l-0.1-1c1.7-0.4,2.7-0.5,4-0.5c0.3,0,0.5,0,1.6,0L161.9,325.7z M159.7,320.5
		c0.7,0.8,1.1,1.4,1.5,2.3l-0.8,0.5c-0.4-0.8-1.1-1.9-1.5-2.4L159.7,320.5z M161.4,319.7c0.7,0.8,1,1.4,1.5,2.3l-0.8,0.4
		c-0.3-0.7-0.9-1.7-1.5-2.4L161.4,319.7z"/>
	<path d="M165.7,323.3c0.4,0.1,0.6,0.1,1.2,0.1c1.4,0,3.1-0.1,4.5-0.3c-0.2-0.5-0.5-1.1-0.7-1.8c-0.2-0.4-0.3-0.6-0.4-0.9l1.2-0.2
		c0.1,0.4,0.1,0.4,0.4,1.4c0.4,1,0.4,1,0.5,1.3c1.5-0.2,2.8-0.6,3.6-0.9l0.2,1.1c-0.3,0.1-0.4,0.1-0.9,0.2c-0.9,0.2-1.1,0.3-2,0.5
		c-0.4,0.1-0.4,0.1-0.5,0.1c0.5,1.2,1.7,3,2.7,4.4l-1,0.6c-0.4-0.3-0.6-0.5-1-0.6c-0.8-0.3-1.6-0.4-2.6-0.4c-1.3,0-2.2,0.2-2.8,0.6
		c-0.5,0.3-0.8,0.9-0.8,1.4s0.2,0.9,0.6,1.2c0.6,0.4,1.6,0.7,2.9,0.7c1.5,0,3.1-0.4,4.3-1l0.2,1.2c-1.5,0.6-2.9,0.8-4.4,0.8
		c-1.8,0-3.2-0.4-3.9-1.1c-0.4-0.5-0.7-1-0.7-1.6c0-1,0.6-1.9,1.7-2.4c0.8-0.4,1.7-0.6,2.9-0.6c1.3,0,2.5,0.2,3.1,0.5
		c-0.8-1.1-1.2-1.7-1.8-2.9c-0.2-0.3-0.2-0.3-0.3-0.5c-1.5,0.2-3.4,0.4-5.3,0.4c-0.3,0-0.4,0-0.6,0L165.7,323.3z"/>
	<path d="M181.2,321.7c-0.1,0.5-0.1,1-0.1,1.8c0,1.7,0.2,3.7,0.4,4.7c0.3,1.5,0.9,2.6,1.5,2.6c0.3,0,0.5-0.3,0.8-0.8
		c0.3-0.8,0.6-1.5,0.8-2.6c0.3,0.4,0.5,0.5,0.9,0.9c-0.7,2.6-1.4,3.6-2.5,3.6c-0.8,0-1.6-0.8-2.1-2.3c-0.5-1.4-0.7-3.3-0.8-7
		c0-0.6,0-0.6,0-0.9L181.2,321.7z M188.4,322.5c1,1.2,1.6,2.1,2.1,3.4c0.6,1.3,0.9,2.3,1.1,4l-1.1,0.4c-0.3-2.8-1.4-5.4-3.1-7.4
		L188.4,322.5z"/>
	<path d="M197.6,331c0,1.2-1,2.2-2.2,2.2s-2.2-1-2.2-2.2s1-2.2,2.2-2.2S197.6,329.8,197.6,331z M194,331c0,0.8,0.6,1.4,1.4,1.4
		c0.8,0,1.4-0.6,1.4-1.4s-0.6-1.4-1.4-1.4S194,330.3,194,331z"/>
</g>
<path class="st0" d="M157.4,20.6v32.1H19.7V20.6H157.4 M160.4,17.6H16.7v38.1h143.7V17.6L160.4,17.6z"/>
<g>
	<path class="st1" d="M343,2v356H2V2H343 M345,0H0v360h345V0L345,0z"/>
</g>
</svg>
